<svg width="461" height="302" viewBox="0 0 461 302" fill="none" xmlns="http://www.w3.org/2000/svg">
<path d="M75.9325 276.729H383.764C420.189 267.82 441.488 250.582 444.699 220.867C451.838 154.806 402.012 170.364 382.124 92.737C367.745 36.614 284.114 24.98 243.53 37.72C197.363 52.213 180.301 18.397 120.374 33.474C46.5365 52.051 73.4505 95.368 34.6375 169.429C5.78648 224.481 20.4025 268.542 69.0955 279.916C70.9685 277.956 73.4225 276.729 75.9325 276.729Z" fill="#EDF4F7"/>
<path opacity="0.26" d="M330.172 264.479C289.199 264.479 227.612 278.878 208.426 278.878C174.801 278.878 95.5215 280.064 95.5215 284.872C95.5215 289.681 110.904 303.786 206.494 300.596C234.101 299.675 259.361 293.66 266.809 290.056C270.976 289.801 274.481 288.948 276.421 287.782C289.936 290.423 309.02 292.069 330.173 292.069C371.146 292.069 404.362 285.893 404.362 278.274C404.362 270.655 371.146 264.479 330.172 264.479Z" fill="#606060"/>
<path d="M387.146 44.632C382.148 44.632 381.437 52.416 386.474 52.416C391.471 52.416 392.182 44.632 387.146 44.632Z" fill="#EDF4F7"/>
<path d="M459.266 154.841L458.702 154.502C457.784 153.951 456.736 153.786 455.734 154.246C454.756 154.695 454.08 155.657 453.988 156.728C453.896 157.799 454.396 158.862 455.283 159.473C456.077 160.019 457.377 160.251 458.251 159.729C458.46 159.604 458.668 159.48 458.877 159.355C459.7 158.864 460.299 158.213 460.385 157.211C460.46 156.33 460.048 155.311 459.266 154.841Z" fill="#EDF4F7"/>
<path d="M49.8365 29.214C45.3215 29.214 44.6785 36.247 49.2295 36.247C53.7455 36.247 54.3875 29.214 49.8365 29.214Z" fill="#EDF4F7"/>
<path d="M34.4795 85.664C34.3705 85.532 34.2625 85.399 34.1535 85.267C33.1675 84.064 31.5015 83.643 30.0535 84.091C28.3685 84.612 27.2795 86.162 27.3525 87.921C27.4165 89.465 28.4045 90.879 29.8895 91.407C30.5045 91.626 31.2045 91.658 31.8465 91.576C32.9015 91.442 33.7355 90.735 34.3815 89.954C34.4775 89.837 34.5745 89.721 34.6705 89.604C34.7985 89.353 34.9265 89.103 35.0545 88.852C35.2135 88.451 35.2665 88.041 35.2135 87.622C35.1835 86.9 34.9475 86.235 34.4795 85.664Z" fill="#EDF4F7"/>
<path d="M104.771 0C101.658 0 101.216 4.84799 104.353 4.84799C107.465 4.84899 107.908 0 104.771 0Z" fill="#EDF4F7"/>
<path d="M459.855 209.654C459.846 209.571 459.838 209.494 459.817 209.413C459.687 208.67 459.379 208.009 458.895 207.43C458.407 206.854 457.809 206.438 457.1 206.182C456.665 206.072 456.23 205.963 455.785 205.914C455.4 205.93 455.014 205.946 454.629 205.962C454.019 206.043 453.475 206.267 452.996 206.634C452.62 206.81 452.313 207.068 452.076 207.408C451.764 207.672 451.54 207.995 451.401 208.379C450.958 209.246 450.77 210.216 450.937 211.188C451.109 212.192 451.638 213.064 452.383 213.741C452.647 214.053 452.97 214.278 453.354 214.416C453.683 214.64 454.045 214.77 454.441 214.805C455.394 215.012 456.385 214.946 457.283 214.533C458.008 214.2 458.646 213.616 459.124 212.985C459.833 212.049 459.978 210.777 459.855 209.654Z" fill="#EDF4F7"/>
<path d="M27.5995 136.878C23.8735 136.878 23.3435 142.682 27.0985 142.682C30.8245 142.682 31.3555 136.878 27.5995 136.878Z" fill="#EDF4F7"/>
<path d="M266.141 165.063C272.949 135.091 276.172 104.839 257.667 84.1129C254.024 80.0319 249.758 76.2539 244.549 74.5829C239.34 72.9119 233.027 73.7809 229.387 77.8639C224.439 83.4139 226.213 92.3759 230.396 98.5239C236.624 107.676 245.462 116.023 249.408 126.797C254.036 139.429 257.632 156.351 253.382 168.816" fill="#B5D9F5"/>
<path d="M233.222 75.069C233.222 75.069 277.737 118.961 260.882 173.528" stroke="white" stroke-miterlimit="10" stroke-linejoin="round"/>
<path d="M252.685 84.6029C252.685 84.6029 254.848 90.5409 247.911 94.1719" stroke="white" stroke-miterlimit="10" stroke-linecap="round" stroke-linejoin="round"/>
<path d="M237.903 99.63C237.903 99.63 244.449 109.464 252.962 103.039" stroke="white" stroke-miterlimit="10" stroke-linecap="round" stroke-linejoin="round"/>
<path d="M265.071 107.636C265.071 107.636 266.48 117.474 259.185 117.392" stroke="white" stroke-miterlimit="10" stroke-linecap="round" stroke-linejoin="round"/>
<path d="M332.022 155.791C335.955 130.775 342.579 99.431 321.465 80.174C319.281 78.182 316.857 76.339 314.026 75.49C311.195 74.642 307.878 74.943 305.644 76.878C302.581 79.531 299.865 84.872 303.886 93.774C310.752 108.975 322.958 118.469 319.741 151.095" fill="#99B6CF"/>
<path d="M305.644 76.879C314.742 84.311 322.654 94.927 325.775 106.959C328.896 118.992 329.222 131.589 328.497 143.999" stroke="white" stroke-miterlimit="10" stroke-linejoin="round"/>
<path d="M318.316 90.735C318.316 90.735 323.2 90.911 321.021 84.457" stroke="white" stroke-miterlimit="10" stroke-linecap="round" stroke-linejoin="round"/>
<path d="M312.239 99.212C312.239 99.212 317.14 107.488 324.205 102.036" stroke="white" stroke-miterlimit="10" stroke-linecap="round" stroke-linejoin="round"/>
<path d="M327.883 117.986C327.883 117.986 334.096 119.86 333.15 110.552" stroke="white" stroke-miterlimit="10" stroke-linecap="round" stroke-linejoin="round"/>
<path d="M299.083 129.942C302.126 95.9959 296.391 66.2859 272.986 46.2489C268.378 42.3039 263.13 38.7839 257.158 37.7189C251.186 36.6539 244.377 38.544 240.981 43.571C236.365 50.403 239.642 59.9889 245.15 66.1259C253.35 75.2609 264.298 83.125 270.231 94.381C277.187 107.578 283.646 125.641 280.822 139.969" fill="#B5D9F5"/>
<path d="M244.394 54.7649C244.394 54.7649 254.848 68.8819 263.917 57.5649" stroke="white" stroke-miterlimit="10" stroke-linecap="round" stroke-linejoin="round"/>
<path d="M273.935 71.5649C273.935 71.5649 285.87 68.4129 276.589 55.1849" stroke="white" stroke-miterlimit="10" stroke-linecap="round" stroke-linejoin="round"/>
<path d="M291.336 144.291C294.588 70.6429 244.781 39.9299 244.781 39.9299" stroke="white" stroke-miterlimit="10" stroke-linejoin="round"/>
<path d="M353.716 179.878C348.601 151.83 352.826 122.161 365.566 96.6549C370.896 85.9839 377.808 75.5789 378.842 63.6949C379.005 61.8179 379.005 59.8649 378.269 58.1309C376.703 54.4429 372.256 52.8109 368.25 52.8479C361.043 52.9149 354.317 57.1089 349.828 62.7469C345.339 68.3849 342.821 75.3399 341.053 82.3269C333.222 113.264 338.833 145.825 344.472 177.236" fill="#99B6CF"/>
<path d="M371.031 53.095C371.031 53.095 338.313 89.018 346.663 171.861" stroke="white" stroke-miterlimit="10" stroke-linejoin="round"/>
<path d="M351.148 68.1069C351.148 68.1069 344.593 77.9079 355.691 81.4809" stroke="white" stroke-miterlimit="10" stroke-linecap="round" stroke-linejoin="round"/>
<path d="M373.646 61.2369C373.646 61.2369 374.1 75.6509 360.444 70.2119" stroke="white" stroke-miterlimit="10" stroke-linecap="round" stroke-linejoin="round"/>
<path d="M359.526 92.83C359.526 92.83 359.396 107.032 349.618 102.597" stroke="white" stroke-miterlimit="10" stroke-linecap="round" stroke-linejoin="round"/>
<path d="M360.857 179.4C360.585 168.582 364.966 158.083 371.044 149.129C377.121 140.176 384.863 132.506 392.26 124.607C397.04 119.502 402.041 112.736 399.671 106.156C397.709 100.708 391.311 98.09 385.52 98.067C376.547 98.031 367.988 102.719 361.935 109.343C355.882 115.967 352.094 124.371 349.486 132.957C345.481 146.141 344.048 160.102 345.294 173.825" fill="#B5D9F5"/>
<path d="M396.28 101.533C396.28 101.533 351.383 118.03 351.837 185.208" stroke="white" stroke-miterlimit="10" stroke-linejoin="round"/>
<path d="M372.944 105.013C372.944 105.013 364.346 111.497 373.616 118.49" stroke="white" stroke-miterlimit="10" stroke-linejoin="round"/>
<path d="M363.084 133.799C363.084 133.799 372.045 144.242 378.622 128.973" stroke="white" stroke-miterlimit="10" stroke-linejoin="round"/>
<path d="M84.1955 192.022C82.1905 166.778 81.3275 134.754 56.3075 120.947C53.7195 119.519 50.9325 118.291 47.9815 118.126C45.0305 117.961 41.8755 119.027 40.1535 121.429C37.7925 124.723 36.3965 130.55 42.3805 138.269C52.5995 151.451 66.6825 157.839 71.1565 190.317" fill="#99B6CF"/>
<path d="M40.1545 121.429C50.7345 126.536 60.9015 135.016 66.7405 145.99C72.5795 156.964 75.8315 169.138 78.0195 181.375" stroke="white" stroke-miterlimit="10" stroke-linejoin="round"/>
<path d="M55.7065 131.95C55.7065 131.95 60.4975 130.983 56.8735 125.214" stroke="white" stroke-miterlimit="10" stroke-linecap="round" stroke-linejoin="round"/>
<path d="M51.7715 141.611C51.7715 141.611 58.4665 148.517 64.0655 141.568" stroke="white" stroke-miterlimit="10" stroke-linecap="round" stroke-linejoin="round"/>
<path d="M71.3605 156.222C71.3605 156.222 77.8385 156.596 74.7505 147.766" stroke="white" stroke-miterlimit="10" stroke-linecap="round" stroke-linejoin="round"/>
<path d="M110.904 210.391C99.3945 184.307 96.5895 154.47 103.035 126.698C105.732 115.078 110.028 103.349 108.265 91.552C107.986 89.689 107.531 87.789 106.411 86.274C104.029 83.052 99.3245 82.501 95.4365 83.471C88.4435 85.215 82.8795 90.861 79.8285 97.391C76.7765 103.92 75.9495 111.27 75.8575 118.477C75.4515 150.387 88.4955 180.744 101.298 209.976" fill="#B5D9F5"/>
<path d="M98.1985 83.063C98.1985 83.063 74.7535 125.622 102.178 204.238" stroke="white" stroke-miterlimit="10" stroke-linejoin="round"/>
<path d="M82.3615 102.295C82.3615 102.295 78.2715 113.354 89.8955 114.242" stroke="white" stroke-miterlimit="10" stroke-linecap="round" stroke-linejoin="round"/>
<path d="M102.638 90.371C102.638 90.371 106.439 104.282 91.8915 102.176" stroke="white" stroke-miterlimit="10" stroke-linecap="round" stroke-linejoin="round"/>
<path d="M96.2695 124.384C96.2695 124.384 99.4535 138.225 88.9105 136.191" stroke="white" stroke-miterlimit="10" stroke-linecap="round" stroke-linejoin="round"/>
<path opacity="0.26" d="M71.9175 265.055C71.9175 267.253 63.4215 269.034 52.9415 269.034C42.4615 269.034 33.9655 267.252 33.9655 265.055C33.9655 262.857 42.4615 261.076 52.9415 261.076C63.4215 261.076 71.9175 262.857 71.9175 265.055Z" fill="#606060"/>
<mask id="mask0_105_948" style="mask-type:luminance" maskUnits="userSpaceOnUse" x="0" y="165" width="106" height="78">
<path d="M38.9345 233.999C38.9345 238.582 45.9325 242.298 54.5645 242.298C63.1975 242.298 70.1945 238.582 70.1945 233.999C70.1945 232.903 106.598 212.957 105.87 211.999C103.556 208.952 83.3855 168.319 51.4145 165.957C19.5825 163.606 1.64348 205.689 0.00148182 209.339C-0.277518 209.96 38.9345 233.333 38.9345 233.999Z" fill="white"/>
</mask>
<g mask="url(#mask0_105_948)">
<path d="M54.4635 251.352C54.4635 251.352 44.0285 194.743 20.5505 194.743C14.2795 194.743 -7.45651 208.568 29.4705 224.583C49.9275 233.455 54.4635 251.352 54.4635 251.352Z" fill="#57CCD6"/>
<path d="M54.4635 251.352C52.1635 241.111 53.3435 195.463 84.4935 194.743C90.7625 194.598 115.754 207.353 79.1195 224.025C56.4105 234.36 55.2795 246.342 54.4635 251.352Z" fill="#57CCD6"/>
<path d="M54.4635 251.352C54.4635 251.352 45.2315 212.394 31.4725 194.02C17.7135 175.646 53.1395 166.191 58.4365 194.744C59.9045 202.654 59.3415 212.503 57.5935 223.048C54.4975 241.72 54.4635 251.352 54.4635 251.352Z" fill="#57CCD6"/>
<path d="M84.4925 194.744C71.0115 195.055 63.1505 203.786 58.7495 214.416C59.4855 207.164 59.4945 200.446 58.4365 194.744C53.1385 166.191 17.7135 175.646 31.4725 194.02C35.4935 199.389 39.1235 206.519 42.2535 213.918C36.9075 203.387 29.7245 194.744 20.5515 194.744C14.2805 194.744 -7.45551 208.569 29.4715 224.584C49.9285 233.456 54.4645 251.353 54.4645 251.353C55.2805 246.343 56.4125 234.361 79.1205 224.026C115.753 207.354 90.7625 194.599 84.4925 194.744Z" fill="#B5D9F5"/>
<path d="M54.4635 251.352C54.0585 246.422 52.6255 241.7 50.6935 237.257C50.2515 236.127 49.6825 235.054 49.1175 233.983C48.8315 233.449 48.5735 232.902 48.2825 232.372L47.3385 230.821C46.7125 229.785 46.1035 228.741 45.3565 227.785C44.6385 226.812 43.9905 225.787 43.2275 224.849L40.8885 222.072L40.3045 221.378L39.6715 220.726L38.4055 219.421C36.7675 217.629 34.9165 216.054 33.1135 214.417C32.2425 213.561 31.2535 212.845 30.3005 212.082C29.3355 211.334 28.3965 210.547 27.4405 209.775C25.4585 208.336 23.4335 206.943 21.4705 205.405C23.7125 206.444 25.9445 207.549 28.1235 208.753C29.1675 209.425 30.2285 210.081 31.2625 210.777C32.2935 211.477 33.3775 212.113 34.3235 212.932C36.2545 214.516 38.2625 216.028 39.9675 217.878L41.2995 219.207L41.9655 219.872C42.1775 220.104 42.3695 220.352 42.5715 220.593L44.9625 223.505C47.9895 227.514 50.4975 231.938 52.1975 236.661C53.8605 241.373 54.8845 246.397 54.4635 251.352Z" fill="#F6FAE7"/>
<path d="M42.9815 186.15C45.9805 190.569 48.1525 195.514 49.9375 200.549C51.7045 205.602 53.0185 210.811 53.9305 216.086C54.1455 217.406 54.3125 218.735 54.5055 220.058L54.7815 222.045L54.9485 224.045L55.2755 228.041L55.3825 232.048L55.4315 234.049C55.4395 234.716 55.3945 235.384 55.3775 236.051L55.2295 240.049C55.0665 242.709 54.7425 245.36 54.4265 247.997C54.3075 245.331 54.3505 242.682 54.2435 240.036C54.0785 237.391 54.0665 234.75 53.7955 232.121L53.4765 228.178L53.0155 224.252C52.8715 222.943 52.7025 221.638 52.4875 220.339C52.2815 219.039 52.1035 217.735 51.8765 216.439C50.9465 211.259 49.7725 206.128 48.3225 201.065C46.8445 196.011 45.1695 191.001 42.9815 186.15Z" fill="#F6FAE7"/>
<path d="M83.6445 202.94C79.0945 205.03 75.0095 207.866 71.3845 211.155C67.7815 214.466 64.6435 218.263 62.1855 222.495C59.7455 226.732 57.9055 231.327 56.7095 236.114C55.4735 240.893 54.7815 245.833 54.4735 250.825C54.1435 245.835 54.4115 240.774 55.3785 235.813C56.3325 230.852 58.0595 226.006 60.5495 221.559C63.0555 217.129 66.3195 213.085 70.2725 209.868C74.2135 206.675 78.7355 204.087 83.6445 202.94Z" fill="#F6FAE7"/>
</g>
<path d="M64.2465 264.189C64.2465 262.617 59.1855 261.342 52.9415 261.342C46.6975 261.342 41.6365 262.617 41.6365 264.189C41.6365 265.761 46.6975 267.036 52.9415 267.036C59.1855 267.036 64.2465 265.761 64.2465 264.189Z" fill="#F6677A"/>
<path d="M64.2465 264.189H41.6365L36.1175 236.344H69.7645L64.2465 264.189Z" fill="#F6677A"/>
<path d="M70.7715 234.407H35.1095V241.605H70.7715V234.407Z" fill="#F6677A"/>
<path d="M70.7725 234.407H35.1095V241.605H37.1595L41.6355 264.189C41.6355 265.761 46.6965 267.036 52.9405 267.036C59.1845 267.036 64.2455 265.761 64.2455 264.189L68.7215 241.605H70.7715L70.7725 234.407Z" fill="#DB9372"/>
<path opacity="0.26" d="M423.926 242.592C423.926 244.79 415.431 246.571 404.951 246.571C394.471 246.571 385.974 244.79 385.974 242.592C385.974 240.394 394.471 238.613 404.951 238.613C415.43 238.613 423.926 240.394 423.926 242.592Z" fill="#606060"/>
<mask id="mask1_105_948" style="mask-type:luminance" maskUnits="userSpaceOnUse" x="352" y="143" width="106" height="77">
<path d="M390.943 211.536C390.943 216.119 397.94 219.835 406.572 219.835C415.205 219.835 422.202 216.119 422.202 211.536C422.202 210.44 458.606 190.494 457.878 189.536C455.564 186.489 435.393 145.856 403.422 143.495C371.59 141.144 353.651 183.227 352.009 186.877C351.731 187.497 390.943 210.87 390.943 211.536Z" fill="white"/>
</mask>
<g mask="url(#mask1_105_948)">
<path d="M406.472 228.889C406.472 228.889 396.037 172.28 372.56 172.28C366.289 172.28 344.553 186.105 381.48 202.12C401.935 210.992 406.472 228.889 406.472 228.889Z" fill="#57CCD6"/>
<path d="M406.472 228.889C404.172 218.648 405.353 173 436.502 172.28C442.771 172.135 467.762 184.89 431.128 201.562C408.419 211.897 407.288 223.88 406.472 228.889Z" fill="#57CCD6"/>
<path d="M406.473 228.889C406.473 228.889 397.241 189.931 383.482 171.557C369.723 153.183 405.149 143.728 410.446 172.281C411.914 180.191 411.351 190.04 409.603 200.585C406.507 219.257 406.473 228.889 406.473 228.889Z" fill="#57CCD6"/>
<path d="M436.501 172.281C423.02 172.592 415.159 181.323 410.758 191.953C411.494 184.701 411.503 177.983 410.445 172.281C405.147 143.728 369.722 153.183 383.481 171.557C387.502 176.926 391.132 184.056 394.262 191.455C388.916 180.924 381.733 172.281 372.56 172.281C366.289 172.281 344.553 186.106 381.48 202.121C401.937 210.993 406.473 228.89 406.473 228.89C407.289 223.88 408.421 211.898 431.129 201.563C467.762 184.891 442.771 172.136 436.501 172.281Z" fill="#99B6CF"/>
<path d="M406.473 228.889C406.068 223.959 404.634 219.237 402.702 214.794C402.26 213.664 401.691 212.591 401.126 211.52C400.84 210.986 400.583 210.439 400.292 209.909L399.348 208.358C398.722 207.322 398.112 206.278 397.365 205.322C396.647 204.349 395.999 203.324 395.236 202.386L392.897 199.609L392.314 198.915L391.68 198.263L390.414 196.958C388.776 195.166 386.925 193.591 385.122 191.954C384.251 191.098 383.262 190.382 382.309 189.619C381.344 188.871 380.406 188.083 379.451 187.312C377.469 185.873 375.443 184.48 373.48 182.942C375.721 183.981 377.954 185.086 380.133 186.29C381.177 186.962 382.238 187.618 383.272 188.314C384.303 189.014 385.387 189.65 386.333 190.469C388.264 192.053 390.274 193.565 391.978 195.415L393.309 196.744L393.975 197.409C394.187 197.64 394.379 197.889 394.581 198.13L396.973 201.042C400 205.051 402.507 209.475 404.207 214.198C405.869 218.911 406.894 223.934 406.473 228.889Z" fill="#F6FAE7"/>
<path d="M394.99 163.687C397.989 168.106 400.162 173.051 401.947 178.086C403.714 183.139 405.027 188.348 405.939 193.623C406.155 194.943 406.322 196.272 406.516 197.595L406.792 199.582L406.958 201.581L407.285 205.577L407.392 209.584L407.441 211.585C407.449 212.252 407.404 212.92 407.387 213.587L407.24 217.585C407.077 220.245 406.752 222.896 406.436 225.533C406.317 222.867 406.36 220.218 406.254 217.572C406.089 214.927 406.077 212.286 405.806 209.657L405.487 205.714L405.026 201.788C404.882 200.479 404.714 199.174 404.499 197.875C404.293 196.575 404.114 195.271 403.887 193.975C402.957 188.795 401.783 183.664 400.333 178.601C398.853 173.548 397.178 168.538 394.99 163.687Z" fill="#F6FAE7"/>
<path d="M435.654 180.477C431.104 182.567 427.019 185.403 423.394 188.692C419.791 192.003 416.652 195.801 414.194 200.031C411.754 204.268 409.915 208.863 408.719 213.65C407.483 218.429 406.791 223.369 406.482 228.361C406.152 223.371 406.42 218.31 407.387 213.349C408.341 208.388 410.069 203.542 412.559 199.095C415.065 194.665 418.329 190.621 422.282 187.404C426.223 184.212 430.744 181.624 435.654 180.477Z" fill="#F6FAE7"/>
</g>
<path d="M416.254 241.726C416.254 240.154 411.192 238.879 404.949 238.879C398.705 238.879 393.645 240.154 393.645 241.726C393.645 243.298 398.705 244.573 404.949 244.573C411.193 244.573 416.254 243.298 416.254 241.726Z" fill="#F6677A"/>
<path d="M416.254 241.726H393.645L388.126 213.881H421.773L416.254 241.726Z" fill="#F6677A"/>
<path d="M422.78 211.944H387.118V219.142H422.78V211.944Z" fill="#F6677A"/>
<path d="M422.781 211.944H387.12V219.142H389.171L393.646 241.726C393.646 243.298 398.708 244.572 404.952 244.572C411.196 244.572 416.257 243.298 416.257 241.726L420.732 219.142H422.784V211.944H422.781Z" fill="#DB9372"/>
<path d="M81.9795 289.913C81.9795 293.053 84.7325 295.482 87.8485 295.09L378.061 258.601C380.838 258.252 382.845 255.773 382.61 252.984L382.273 248.999C382.021 246.017 379.316 243.857 376.352 244.271L86.4765 284.745C83.8985 285.105 81.9795 287.31 81.9795 289.913Z" fill="#6C6B8F"/>
<path d="M111.961 111.075L103.528 115.082C99.1825 117.147 96.4135 121.529 96.4135 126.34V185.149L111.961 185.353V111.075Z" fill="#8B8BBA"/>
<path d="M225.655 113.259L212.88 116.634L214.791 139.564L222.98 134.597L225.655 113.259Z" fill="#8B8BBA"/>
<path d="M218.704 185.15V125.293C218.704 125.293 217.976 112.563 229.259 112.825C229.259 112.825 334.08 120.631 333.716 133.055C333.352 145.479 331.623 181.875 331.623 181.875C331.623 181.875 251.824 202.256 218.704 185.15Z" fill="#A39ACE"/>
<path d="M219.159 183.33L218.746 123.64C218.746 123.64 220.86 113.646 208.147 112.82C195.434 111.994 149.035 109.005 115.673 110.461C115.673 110.461 107.333 108.445 107.333 123.64C107.333 137.107 107.333 185.149 107.333 185.149C107.333 185.149 198.186 189.517 219.159 183.33Z" fill="#A39ACE"/>
<path d="M361.294 191.522L392.314 183.329V244.22C392.314 249.55 388.326 254.038 383.033 254.665L102.236 288.15V228.475L361.376 214.139L361.294 191.522Z" fill="#8B8BBA"/>
<path d="M256.85 219.922V196.174L125.53 191.522V227.429L256.85 219.922Z" fill="#A39ACE"/>
<path d="M256.85 196.174C256.85 196.174 242.361 185.878 219.159 183.33L125.53 180.054V192.975L256.85 196.174Z" fill="#AEA6DD"/>
<path d="M256.85 196.174L361.294 191.522L361.376 214.14L256.85 219.922V196.174Z" fill="#A39ACE"/>
<path d="M232.512 185.781C232.512 185.781 276.209 176.141 331.622 181.873L361.294 191.521L256.85 196.172L232.512 185.781Z" fill="#AEA6DD"/>
<path d="M392.314 183.33C392.314 183.33 398.5 181.672 396.68 174.858C394.86 168.044 390.493 165.86 373.387 164.404C356.281 162.948 332.526 162.265 332.526 162.265C332.526 162.265 317.408 159.743 316.609 170.179V180.374C316.609 180.374 349.929 190.252 361.294 191.523L392.314 183.33Z" fill="#9E95C6"/>
<path d="M125.53 191.522L71.3165 189.316V282.846C71.3165 287.663 75.4955 291.415 80.2845 290.897L125.53 285.373V191.522Z" fill="#8B8BBA"/>
<path d="M125.53 191.522V180.294C125.53 178.123 123.879 176.193 121.411 175.475C114.544 173.476 94.6045 170.997 78.3575 170.462C78.3575 170.462 69.8675 169.149 69.0665 177.962C68.0965 188.622 71.3165 189.316 71.3165 189.316L125.53 191.522Z" fill="#9E95C6"/>
<path d="M123.168 176.276L117.545 167.163C116.614 165.654 115.03 164.668 113.264 164.499L84.3345 163.436C82.7615 163.285 81.1975 163.798 80.0185 164.851L70.9825 172.927C70.9825 172.927 109.16 178.321 123.168 176.276Z" fill="#9E95C6"/>
<path d="M131.864 180.351C152.392 181.055 202.89 182.806 212.88 183.33C225.485 183.991 232.512 185.782 232.512 185.782C232.512 185.782 290.557 177.396 316.609 180.374" stroke="#756F87" stroke-width="1.6734" stroke-miterlimit="10" stroke-linecap="round" stroke-linejoin="round"/>
<path d="M125.53 285.373V227.429L361.376 214.14V229.676" stroke="#756F87" stroke-width="1.6734" stroke-miterlimit="10" stroke-linecap="round" stroke-linejoin="round"/>
<path d="M218.775 127.969L219.159 183.33" stroke="#756F87" stroke-width="1.6734" stroke-miterlimit="10" stroke-linecap="round" stroke-linejoin="round"/>
<path d="M232.512 185.781C232.512 185.781 242.055 187.8 249.452 191.987" stroke="#756F87" stroke-width="1.6734" stroke-miterlimit="10" stroke-linecap="round" stroke-linejoin="round"/>
<path d="M361.294 191.522C361.294 191.522 343.735 188.102 330.172 184.238" stroke="#756F87" stroke-width="1.6734" stroke-miterlimit="10" stroke-linecap="round" stroke-linejoin="round"/>
<path d="M233.896 195.016L154.482 193.68" stroke="#756F87" stroke-width="1.6734" stroke-miterlimit="10" stroke-linecap="round" stroke-linejoin="round"/>
<path d="M350.86 191.987C350.86 191.987 342.013 191.987 329.889 192.921" stroke="#756F87" stroke-width="1.6734" stroke-miterlimit="10" stroke-linecap="round" stroke-linejoin="round"/>
<path d="M353.067 273.042C353.067 273.042 385.158 264.178 399.091 250.966C413.025 237.754 408.242 231.67 403.23 226.08C398.218 220.49 385.344 224.647 379.445 226.762C373.546 228.878 339.744 239.793 334.81 239.517C329.875 239.241 314.346 232.543 310.392 232.931C306.437 233.319 277.323 250.754 277.323 250.754C277.323 250.754 273.36 264.406 278.055 274.029L353.067 273.042Z" fill="#485959"/>
<path opacity="0.34" d="M368.713 237.365C364.541 238.76 360.301 239.81 356.001 240.744C348.148 242.45 340.218 243.911 332.618 246.441C334.868 248.266 336.176 250.67 337.793 253.085C338.933 254.787 340.419 255.999 341.99 257.28C342.731 257.885 343.509 258.871 344.333 259.669C346.054 259.104 347.631 257.5 348.877 256.452C353.534 252.535 357.843 248.253 362.994 244.971C367.982 241.792 374.12 238.766 378.613 236.341C375.709 235.794 371.144 236.552 368.713 237.365Z" fill="#485959"/>
<path d="M347.064 270.328C347.064 270.328 351.448 270.096 358.578 269.999C364.249 269.922 368.868 268.516 378.607 267.694C383.698 267.264 389.038 265.872 390.178 268.231C390.984 269.897 388.461 276.773 383.032 277.741C378.519 278.546 373.683 276.72 368.118 276.99C360.155 277.377 355.277 282.922 348.051 282.829L347.064 270.328Z" fill="#FFC7A7"/>
<path d="M350.847 283.651C350.847 283.651 357.497 276.332 355.277 269.67C355.277 269.67 339.251 256.304 335.303 248.882C331.355 241.461 314.482 244.433 299.603 250.966C284.724 257.498 272.388 272.795 280.776 278.47C289.165 284.145 311.041 290.313 326.503 280.197C326.503 280.197 332.589 285.378 350.847 283.651Z" fill="#485959"/>
<path opacity="0.34" d="M347.729 280.461C342.304 279.481 334.792 278.336 330.488 274.892C326.919 272.036 325.257 264.853 323.37 263.412C320.767 261.424 309.593 272.976 302.665 273.648C293.933 274.495 287.152 263.014 284.759 256.03C283.814 253.274 283.159 250.445 282.694 247.578C279.479 249.463 277.323 250.755 277.323 250.755C277.323 250.755 273.359 264.407 278.055 274.03L278.095 274.029C278.254 275.797 279.091 277.33 280.777 278.471C289.166 284.146 311.042 290.314 326.504 280.198C326.504 280.198 332.59 285.379 350.848 283.652C350.848 283.652 351.775 282.628 352.82 281.003C351.156 280.959 349.465 280.775 347.729 280.461Z" fill="#485959"/>
<path d="M353.13 280.511C353.13 280.511 330.701 282.175 326.005 268.518C321.309 254.861 316.265 272.502 296.322 276.249C276.379 279.996 278.055 274.029 278.055 274.029" stroke="#2F3B3B" stroke-width="0.8367" stroke-miterlimit="10" stroke-linecap="round" stroke-linejoin="round"/>
<path d="M353.924 268.519C349.977 265.121 338.551 254.989 335.303 248.883C331.355 241.462 314.482 244.434 299.603 250.967" stroke="#2F3B3B" stroke-width="0.8367" stroke-miterlimit="10" stroke-linecap="round" stroke-linejoin="round"/>
<path d="M326.503 280.197C326.503 280.197 320.44 280.197 316.892 272.302" stroke="#2F3B3B" stroke-width="0.8367" stroke-miterlimit="10" stroke-linecap="round" stroke-linejoin="round"/>
<path d="M330.944 280.531C330.944 280.531 333.905 286.282 329.381 287.723C323.827 289.492 319.838 288.585 320.127 286.776C320.416 284.967 320.854 281.184 325.898 278.552C330.944 275.92 330.944 280.531 330.944 280.531Z" fill="#FFC7A7"/>
<path d="M385.24 232.99C385.24 232.99 356.452 246.608 344.599 259.959" stroke="#2F3B3B" stroke-width="0.8367" stroke-miterlimit="10" stroke-linecap="round" stroke-linejoin="round"/>
<path d="M288.807 132.785C288.807 132.785 272.764 156.067 282.801 172.415L303.197 173.47C303.197 173.47 316.933 157.703 312.601 138.813L288.807 132.785Z" fill="#303131"/>
<path d="M299.603 240.725C315.561 236.524 326.503 237.552 326.503 237.552C325.023 233.067 322.555 230.03 319.446 224.395C316.337 218.761 314.989 211.607 319.446 201.738C323.903 191.869 318.73 186.84 314.423 172.416C313.635 169.777 310.651 166.768 307.907 166.53C302.575 166.068 296.058 165.716 296.058 165.716C296.058 165.716 271.73 162.724 269.098 169.072C266.466 175.421 262.519 194.832 267.124 207.085C271.729 219.338 270.393 230.364 270.743 237.884C271.032 244.103 273.704 252.399 277.322 250.754C280.941 249.109 291.544 242.846 299.603 240.725Z" fill="#D0ECFD"/>
<mask id="mask2_105_948" style="mask-type:luminance" maskUnits="userSpaceOnUse" x="265" y="165" width="62" height="86">
<path d="M299.603 240.725C315.561 236.524 326.503 237.552 326.503 237.552C325.023 233.067 322.555 230.03 319.446 224.395C316.337 218.761 314.989 211.607 319.446 201.738C323.903 191.869 318.73 186.84 314.423 172.416C313.635 169.777 310.651 166.768 307.907 166.53C302.575 166.068 296.058 165.716 296.058 165.716C296.058 165.716 271.73 162.724 269.098 169.072C266.466 175.421 262.519 194.832 267.124 207.085C271.729 219.338 270.393 230.364 270.743 237.884C271.032 244.103 273.704 252.399 277.322 250.754C280.941 249.109 291.544 242.846 299.603 240.725Z" fill="white"/>
</mask>
<g mask="url(#mask2_105_948)">
<path d="M267.633 251.219C266.667 243.514 282.819 235.144 303.71 232.524C323.295 230.068 340.092 233.537 342.912 240.329" stroke="#81A3B8" stroke-width="2.5101" stroke-miterlimit="10"/>
<path d="M262.794 243.05C261.828 235.345 277.98 226.975 298.871 224.355C318.456 221.899 335.253 225.368 338.073 232.16" stroke="#81A3B8" stroke-width="2.5101" stroke-miterlimit="10"/>
<path d="M257.957 234.882C256.991 227.177 273.143 218.807 294.034 216.187C313.619 213.731 330.416 217.2 333.236 223.991" stroke="#81A3B8" stroke-width="2.5101" stroke-miterlimit="10"/>
<path d="M253.118 226.714C252.152 219.009 268.304 210.639 289.195 208.019C308.78 205.563 325.577 209.032 328.397 215.824" stroke="#81A3B8" stroke-width="2.5101" stroke-miterlimit="10"/>
<path d="M249.494 217.989C248.528 210.284 264.68 201.914 285.571 199.294C305.156 196.838 321.953 200.307 324.773 207.099" stroke="#81A3B8" stroke-width="2.5101" stroke-miterlimit="10"/>
<path d="M251.228 204.434C250.761 196.683 267.42 189.373 288.436 188.108C308.139 186.921 324.677 191.468 327.052 198.427" stroke="#81A3B8" stroke-width="2.5101" stroke-miterlimit="10"/>
<path d="M250.231 196.137C249.764 188.386 266.423 181.076 287.439 179.811C307.142 178.624 323.68 183.171 326.055 190.13" stroke="#81A3B8" stroke-width="2.5101" stroke-miterlimit="10"/>
<path d="M299.462 164.224C301.713 169.561 300.432 174.583 294.976 174.789C285.437 175.15 281.32 170.62 281.32 164.003C281.32 157.385 285.746 152.02 291.207 152.02C296.667 152.02 296.89 158.126 299.462 164.224Z" stroke="#81A3B8" stroke-width="2.5101" stroke-miterlimit="10"/>
</g>
<path d="M313.769 129.396C313.769 129.396 312.736 142.804 309.338 152.749C307.762 157.36 303.953 161.018 301.369 161.018C297.304 161.018 291.551 159.127 288.819 156.259C285.117 152.371 283.852 139.815 288.123 133.716C292.395 127.615 302.806 118.169 313.769 129.396Z" fill="#FFC7A7"/>
<path d="M288.35 154.126L286.05 166.695C286.05 166.695 286.127 171.548 291.897 172.281C297.667 173.013 298.086 170.527 298.086 170.527C298.086 170.527 295.101 165.663 298.509 156.869C292.554 154.444 288.35 154.126 288.35 154.126Z" fill="#FFC7A7"/>
<path d="M306.367 140.017C306.367 140.017 308.834 138.585 310.391 140.26" stroke="#503D4F" stroke-width="1.8514" stroke-miterlimit="10" stroke-linecap="round"/>
<path d="M299.678 140.88C299.678 140.88 297.581 137.894 294.541 140.368" stroke="#503D4F" stroke-width="1.8597" stroke-miterlimit="10" stroke-linecap="round"/>
<path d="M298.807 143.657C298.472 143.583 298.281 143.696 297.964 143.786C297.395 143.948 296.811 143.914 296.236 143.799C295.268 143.607 294.405 143.041 293.401 143.085C293.201 143.094 293.103 143.288 293.185 143.462C293.734 144.628 295.35 144.941 296.52 145.041C297.327 145.11 298.983 145.08 299.063 143.992C299.074 143.849 298.948 143.688 298.807 143.657Z" fill="#503D4F"/>
<path d="M309.371 143.53C309.094 143.455 308.975 143.577 308.76 143.724C308.477 143.917 308.197 143.962 307.861 143.894C307.253 143.77 306.82 143.258 306.176 143.289C306.061 143.294 305.969 143.381 305.966 143.499C305.951 144.322 306.899 144.736 307.592 144.868C308.339 145.01 309.138 144.823 309.577 144.166C309.662 144.039 309.655 143.847 309.577 143.719C309.526 143.633 309.473 143.558 309.371 143.53Z" fill="#503D4F"/>
<path d="M304.347 146.647C304.347 146.647 305.17 149.513 305.357 149.965C305.916 151.318 304.086 152.222 301.917 151.657" stroke="#503D4F" stroke-width="1.0074" stroke-miterlimit="10" stroke-linecap="round" stroke-linejoin="round"/>
<path d="M303.198 155.347C303.198 155.347 301.069 156.474 297.629 154.444" stroke="#503D4F" stroke-width="1.3588" stroke-miterlimit="10" stroke-linecap="round" stroke-linejoin="round"/>
<path d="M272.699 161.193C272.916 149.158 273.054 148.883 274.471 139.7C275.217 134.864 276.672 128.792 281.611 120.735C285.842 113.833 298.759 114.246 306.241 118.57C313.722 122.893 313.769 129.396 313.769 129.396C313.769 129.396 298.665 122.088 290.272 137.222C289.204 139.147 287.966 145.348 287.463 148.571C286.63 153.902 285.441 160.703 287.837 171.823C289.986 181.799 299.041 192.601 290.664 203.894C290.664 203.894 290.207 196.363 277.191 190.18C269.5 186.526 272.508 171.786 272.699 161.193Z" fill="#303131"/>
<path d="M306.176 127.649C306.176 127.649 302.587 131.426 311.725 143.649C311.725 143.649 313.635 149.843 305.459 160.476C297.282 171.109 295.361 186.144 303.688 191.173C312.016 196.202 317.429 203.894 317.429 203.894C317.429 203.894 322.632 197.139 316.331 186.115C310.031 175.092 306.242 176.641 312.196 162.243C318.15 147.845 317.468 132.633 312.827 125.641C312.827 125.641 308.457 124.413 306.176 127.649Z" fill="#303131"/>
<path d="M317.056 194.985L304.484 197.096L299.066 215.154L311.341 213.093L317.056 194.985Z" fill="#597FC5"/>
<path d="M317.056 194.985L316.387 192.921L303.816 195.031L304.484 197.096L317.056 194.985Z" fill="#6996E8"/>
<path d="M303.816 195.031L298.324 213.1L299.066 215.154L304.484 197.096L303.816 195.031Z" fill="#73A4FF"/>
<path d="M288.807 216.176C287.702 214.772 288.187 212.55 288.696 210.865C289.187 209.242 293.36 205.635 294.443 205.306C295.662 204.935 296.754 204.246 297.963 203.849C298.57 203.65 299.18 203.46 299.794 203.281C300.371 203.112 300.948 203.521 300.99 204.121L301.813 215.698C301.841 216.085 291.578 219.696 288.807 216.176Z" fill="#FFC7A7"/>
<path d="M297.866 201.899C297.193 202.666 296.489 203.606 295.932 204.509C295.371 205.427 294.881 206.365 294.575 207.29C294.267 208.211 294.114 209.103 294.132 209.866C294.187 210.626 294.421 211.226 294.705 211.71C295.886 213.726 295.209 216.319 293.193 217.5C291.176 218.681 288.584 218.004 287.403 215.987C287.08 215.436 286.896 214.841 286.84 214.244L286.773 213.481C286.609 211.637 286.874 209.841 287.441 208.286C288.038 206.751 288.868 205.469 289.774 204.363C290.683 203.256 291.697 202.35 292.734 201.53C293.794 200.71 294.824 200.026 296.041 199.371C296.804 198.96 297.755 199.246 298.166 200.008C298.485 200.6 298.384 201.306 297.966 201.784L297.866 201.899Z" fill="#FFC7A7"/>
<path d="M298.376 212.455C298.729 212.358 298.838 212.354 299.039 212.32C299.213 212.296 299.386 212.273 299.547 212.26C299.879 212.225 300.19 212.209 300.503 212.195C301.125 212.17 301.729 212.169 302.326 212.184C303.519 212.215 304.688 212.293 305.846 212.408C308.161 212.63 310.431 212.978 312.685 213.371C313.287 213.476 313.69 214.049 313.585 214.651C313.49 215.195 313.013 215.577 312.477 215.567H312.469C310.224 215.53 307.984 215.541 305.779 215.676C304.677 215.739 303.585 215.839 302.521 215.979C301.989 216.048 301.466 216.133 300.965 216.234C300.717 216.285 300.467 216.338 300.242 216.4C300.124 216.429 300.019 216.462 299.917 216.493C299.842 216.517 299.675 216.576 299.757 216.56C298.623 216.941 297.396 216.331 297.015 215.197C296.632 214.064 297.242 212.836 298.376 212.455Z" fill="#FFC7A7"/>
<path d="M298.152 209.67C298.301 209.564 298.354 209.538 298.413 209.504C298.477 209.467 298.541 209.432 298.587 209.412C298.685 209.365 298.796 209.309 298.885 209.274C299.068 209.199 299.254 209.125 299.421 209.074C299.77 208.954 300.093 208.875 300.418 208.8C301.063 208.657 301.685 208.566 302.296 208.508C303.519 208.391 304.706 208.373 305.874 208.416C308.211 208.498 310.475 208.805 312.71 209.189C313.322 209.294 313.734 209.876 313.629 210.488C313.534 211.042 313.049 211.431 312.504 211.423H312.491C310.299 211.392 308.112 211.443 306.002 211.702C304.948 211.827 303.916 212.012 302.945 212.262C302.46 212.386 301.994 212.535 301.571 212.704C301.365 212.789 301.156 212.877 300.992 212.971C300.898 213.016 300.833 213.062 300.764 213.105C300.726 213.127 300.718 213.143 300.693 213.16C300.677 213.171 300.681 213.173 300.686 213.173C300.686 213.173 300.679 213.186 300.772 213.12C299.82 213.844 298.461 213.658 297.738 212.706C297.014 211.752 297.2 210.393 298.152 209.67Z" fill="#FFC7A7"/>
<path d="M298.601 206.018C298.9 205.908 299.011 205.889 299.196 205.838L299.673 205.73C299.985 205.663 300.284 205.614 300.585 205.564C301.18 205.474 301.767 205.398 302.346 205.346C303.506 205.238 304.65 205.17 305.786 205.147C308.059 205.086 310.305 205.149 312.54 205.264C313.138 205.295 313.597 205.805 313.567 206.402C313.539 206.94 313.124 207.366 312.606 207.423L312.6 207.424C310.419 207.669 308.249 207.965 306.129 208.374C305.067 208.571 304.022 208.809 303.005 209.076C302.495 209.208 302 209.358 301.518 209.514C301.282 209.595 301.044 209.676 300.826 209.763L300.51 209.893C300.433 209.929 300.282 209.997 300.325 209.991C299.228 210.467 297.953 209.963 297.477 208.865C297 207.769 297.504 206.493 298.601 206.018Z" fill="#FFC7A7"/>
<path d="M294.669 204.981C294.791 204.845 294.841 204.806 294.891 204.76L295.043 204.631C295.131 204.564 295.227 204.485 295.31 204.43C295.475 204.318 295.644 204.204 295.799 204.119C296.119 203.928 296.424 203.784 296.731 203.643C297.34 203.373 297.938 203.158 298.531 202.985C299.717 202.635 300.885 202.395 302.046 202.227C304.367 201.882 306.655 201.793 308.925 201.788C309.516 201.787 309.996 202.264 309.997 202.855C309.998 203.386 309.612 203.828 309.105 203.912L309.092 203.914C306.929 204.277 304.786 204.724 302.768 205.377C301.758 205.698 300.784 206.078 299.889 206.514C299.44 206.729 299.02 206.971 298.645 207.219C298.464 207.344 298.282 207.472 298.144 207.596C298.063 207.659 298.013 207.717 297.956 207.772C297.927 207.8 297.922 207.817 297.902 207.839C297.889 207.853 297.901 207.851 297.901 207.851C297.901 207.851 297.9 207.862 297.976 207.779C297.203 208.692 295.837 208.805 294.924 208.032C294.011 207.259 293.896 205.893 294.669 204.981Z" fill="#FFC7A7"/>
<path d="M288.507 209.14C282.392 212.019 272.182 213.027 263.012 214.568C263.012 214.568 266.745 200.491 269.309 189.317C271.874 178.143 275.759 170.075 269.796 168.03C269.796 168.03 261.92 164.654 258.077 172.113C254.956 178.171 251.011 206.841 248.77 218.256C246.774 228.423 241.875 243.089 274.279 224.108C277.258 222.363 285.926 218.372 291.139 217.117C291.855 216.945 290.632 212.211 288.507 209.14Z" fill="#FFC7A7"/>
<path d="M310.308 167.249C310.308 167.249 326.504 164.654 326.504 185.314C326.504 193.878 327.059 202.875 328.678 209.521C331.064 219.32 330.54 227.293 327.501 229.147C325.579 230.319 322.086 229.558 320.768 226.707C320.768 226.707 318.049 224.866 316.894 219.734C314.425 208.762 320.768 202.122 320.129 196.839C319.568 192.198 317.981 185.72 317.057 181.588C315.586 175.007 314.338 171.386 310.393 168.029" fill="#FFC7A7"/>
<path d="M316.519 215.148C316.609 215.204 316.598 215.19 316.598 215.19C316.598 215.19 316.603 215.185 316.585 215.175C316.557 215.157 316.545 215.141 316.504 215.119C316.429 215.077 316.358 215.032 316.26 214.989C316.085 214.899 315.869 214.815 315.655 214.734C315.218 214.574 314.742 214.433 314.247 214.317C313.259 214.082 312.215 213.908 311.151 213.791C309.023 213.547 306.824 213.5 304.62 213.529H304.608C303.997 213.537 303.495 213.049 303.487 212.438C303.48 211.886 303.878 211.424 304.404 211.333C306.644 210.945 308.912 210.629 311.248 210.523C312.416 210.467 313.602 210.469 314.822 210.56C315.432 210.605 316.053 210.681 316.695 210.803C317.02 210.868 317.342 210.936 317.689 211.041C317.856 211.086 318.041 211.151 318.224 211.217C318.313 211.247 318.423 211.298 318.522 211.339L318.695 211.421C318.755 211.452 318.806 211.473 318.955 211.568C319.944 212.241 320.2 213.588 319.527 214.577C318.855 215.564 317.508 215.821 316.519 215.148Z" fill="#FFC7A7"/>
<path d="M316.212 211.188C316.302 211.257 316.298 211.247 316.298 211.247C316.298 211.247 316.31 211.247 316.295 211.236C316.272 211.219 316.264 211.203 316.23 211.181C316.164 211.137 316.104 211.09 316.013 211.043C315.855 210.946 315.653 210.853 315.453 210.763C315.04 210.586 314.585 210.424 314.104 210.293C313.146 210.026 312.121 209.826 311.072 209.691C308.972 209.41 306.786 209.354 304.596 209.384H304.582C303.961 209.393 303.45 208.896 303.442 208.275C303.434 207.713 303.84 207.242 304.377 207.151C306.615 206.768 308.886 206.465 311.233 206.408C312.406 206.375 313.599 206.412 314.828 206.553C315.442 206.622 316.068 206.732 316.715 206.893C317.042 206.98 317.366 207.069 317.715 207.202C317.882 207.259 318.069 207.343 318.25 207.424C318.341 207.464 318.449 207.524 318.547 207.575L318.719 207.676C318.776 207.712 318.832 207.742 318.976 207.855C319.897 208.619 320.024 209.984 319.26 210.904C318.497 211.825 317.132 211.952 316.212 211.188Z" fill="#FFC7A7"/>
<path d="M316.244 207.228C316.334 207.297 316.331 207.286 316.331 207.286C316.331 207.286 316.343 207.286 316.328 207.275C316.305 207.257 316.297 207.241 316.263 207.219C316.197 207.175 316.137 207.127 316.047 207.079C315.889 206.981 315.687 206.887 315.487 206.796C315.074 206.618 314.619 206.454 314.139 206.321C313.181 206.05 312.156 205.847 311.106 205.709C309.005 205.421 306.817 205.358 304.625 205.381H304.612C304.013 205.387 303.523 204.907 303.517 204.309C303.511 203.77 303.9 203.319 304.415 203.23C306.652 202.84 308.92 202.531 311.266 202.466C312.438 202.43 313.631 202.463 314.86 202.601C315.474 202.669 316.1 202.776 316.747 202.936C317.074 203.022 317.399 203.11 317.748 203.243C317.916 203.3 318.102 203.383 318.284 203.464C318.375 203.504 318.483 203.564 318.582 203.615L318.754 203.716C318.811 203.752 318.867 203.782 319.011 203.895C319.932 204.659 320.059 206.024 319.295 206.944C318.53 207.864 317.164 207.991 316.244 207.228Z" fill="#FFC7A7"/>
<path d="M319.115 205.742C319.263 205.889 319.149 205.752 319.132 205.73C319.071 205.676 319.031 205.619 318.951 205.559C318.817 205.438 318.641 205.317 318.469 205.194C318.099 204.96 317.698 204.724 317.252 204.528C316.371 204.125 315.407 203.779 314.398 203.517C313.394 203.242 312.351 203.036 311.295 202.863C310.236 202.696 309.162 202.578 308.08 202.475L308.054 202.472C307.466 202.416 307.035 201.894 307.091 201.306C307.141 200.778 307.568 200.377 308.079 200.341C309.207 200.261 310.342 200.198 311.489 200.187C312.636 200.183 313.792 200.216 314.963 200.335C316.134 200.44 317.318 200.644 318.523 200.966C319.125 201.121 319.734 201.341 320.351 201.601C320.662 201.745 320.972 201.89 321.294 202.081C321.45 202.165 321.622 202.287 321.785 202.394C321.981 202.549 322.08 202.588 322.416 202.938C323.19 203.85 323.078 205.217 322.166 205.99C321.255 206.766 319.889 206.654 319.115 205.742Z" fill="#FFC7A7"/>
<path d="M320.128 215.801C320.128 215.801 318.72 218.619 320.296 224.622C322.664 225.33 325.358 225.331 327.482 224.655L329.382 213.577C329.382 213.577 326.175 213.033 325.928 210.963C325.681 208.893 324.941 203.059 323.337 202.645C322.815 202.51 320.107 201.69 318.044 201.694C318.044 201.694 315.286 208.945 316.098 212.747C316.911 216.549 320.128 215.801 320.128 215.801Z" fill="#FFC7A7"/>
<path d="M323.223 197.624C323.848 198.328 324.207 198.898 324.574 199.611C324.919 200.302 325.2 201.039 325.376 201.81C325.548 202.578 325.666 203.381 325.661 204.181C325.679 204.987 325.585 205.782 325.451 206.576L325.434 206.676C325.184 208.165 323.774 209.168 322.286 208.918C320.797 208.668 319.794 207.258 320.044 205.77C320.096 205.461 320.204 205.164 320.346 204.904C320.572 204.494 320.796 204.069 320.943 203.624C321.115 203.179 321.202 202.716 321.269 202.235C321.331 201.754 321.319 201.26 321.261 200.762C321.233 200.512 321.182 200.267 321.124 200.022C321.073 199.799 320.959 199.506 320.938 199.387L320.83 198.791C320.693 198.04 321.192 197.32 321.943 197.183C322.433 197.092 322.913 197.277 323.223 197.624Z" fill="#FFC7A7"/>
<path d="M282.63 143.55C283.036 146.329 284.391 148.211 286.563 148.211C288.735 148.211 289.526 146.124 289.526 143.55C289.526 140.976 287.996 139.023 286.056 138.804C283.803 138.549 282.257 141.003 282.63 143.55Z" fill="#FFC7A7"/>
<path d="M320.767 244.778C320.767 244.778 319.242 243.407 313.77 242.239" stroke="#2F3B3B" stroke-width="0.8367" stroke-miterlimit="10" stroke-linecap="round" stroke-linejoin="round"/>
<path d="M273.184 284.872C273.184 286.304 269.574 287.464 265.121 287.464C260.668 287.464 257.058 286.304 257.058 284.872C257.058 283.44 260.668 282.28 265.121 282.28C269.574 282.28 273.184 283.44 273.184 284.872Z" fill="#B2F6FF"/>
<path d="M273.184 266.53H257.058V284.872H273.184V266.53Z" fill="#B2F6FF"/>
<path d="M258.045 271.878C258.045 271.878 253.604 268.917 251.712 271.878C249.82 274.839 253.192 283.227 258.538 279.198L258.045 271.878Z" stroke="#B2F6FF" stroke-width="2.4749" stroke-miterlimit="10" stroke-linecap="round" stroke-linejoin="round"/>
<path d="M273.184 266.53C273.184 267.485 269.574 268.259 265.121 268.259C260.668 268.259 257.058 267.485 257.058 266.53C257.058 265.575 260.668 264.801 265.121 264.801C269.574 264.801 273.184 265.575 273.184 266.53Z" fill="#8BC0C7"/>
<path d="M240.193 286.222C243.649 284.131 240.523 281.067 235.605 279.257C232.908 278.264 228.211 276.854 225.95 274.029C223.555 271.037 223.147 270.198 223.036 263.856L215.932 266.348L216.154 270.268L215.932 275.701C215.932 275.701 211.479 283.219 220.111 283.673C223.427 283.847 227.433 284.872 232.306 287.464C234.853 288.82 239.024 286.929 240.193 286.222Z" fill="#D97276"/>
<path d="M223.947 271.037C223.238 269.471 223.075 266.161 223.035 263.856L215.931 266.348L216.153 270.268L216.133 270.35C218.896 271.217 221.481 272.327 223.947 271.037Z" fill="#FFC7A7"/>
<path d="M214.926 188.022C202.323 169.344 180.505 162.219 180.505 162.219L167.175 156.346C167.175 156.346 159.39 159.573 163.797 178.645L174.282 188.358C188.03 189.858 201.578 189.978 214.926 188.022Z" fill="#597FC5"/>
<path d="M214.926 188.022C201.578 189.978 188.03 189.858 174.283 188.358L194.233 206.839C201.86 212.254 207.723 216.124 207.723 216.124C208.433 245.028 215.635 268.909 215.635 268.909L224.613 266.957C224.613 266.957 228.539 241.739 222.93 207.987C221.64 200.22 218.694 193.606 214.926 188.022Z" fill="#597FC5"/>
<path d="M186.757 191.182C179.131 180.783 170.902 173.396 162.595 165.356C162.252 168.574 162.466 172.882 163.798 178.645L194.234 206.839C201.861 212.254 207.724 216.124 207.724 216.124C208.434 245.028 215.636 268.909 215.636 268.909L219.645 268.038C216.111 250.064 212.558 233.308 212.096 211.393C208.254 207.175 193.934 200.753 186.757 191.182Z" fill="#4C6CA8"/>
<path d="M219.463 268.078C219.463 268.078 211.356 226.985 212.095 211.394C212.095 211.394 181.991 191.199 178.243 178.997" stroke="#435F94" stroke-width="0.9021" stroke-miterlimit="10" stroke-linecap="round" stroke-linejoin="round"/>
<path d="M212.595 295.661C215.654 296.29 222.387 294.758 223.443 291.272C223.902 289.756 222.873 288.41 221.619 287.978C218.165 286.789 210.279 284.799 208.443 284.324C206.607 283.849 203.019 280.172 202.92 273.732L195.809 276.275L196.024 280.256C196.024 280.256 195.809 284.025 195.809 286.088C195.809 288.151 192.207 292.734 199.329 293.823C204.372 294.594 208.76 294.872 212.595 295.661Z" fill="#D97276"/>
<path d="M204.162 279.632C203.456 278.042 202.956 276.072 202.92 273.731L195.809 276.274L196.024 280.255L196.004 280.339C198.766 281.214 201.693 280.946 204.162 279.632Z" fill="#FFC7A7"/>
<path d="M150.428 166.435C150.428 166.435 189.564 180.22 195.113 214.484C200.662 248.748 204.492 276.88 204.492 276.88L195.508 278.878C195.508 278.878 178.983 255.745 178.324 226.395C178.324 226.395 171.698 217.206 164.079 211.721C151.961 202.997 136.373 195.031 133.687 183.145C129.313 163.785 137.105 160.495 137.105 160.495L150.428 166.435Z" fill="#597FC5"/>
<path d="M214.926 188.022C202.323 169.344 180.505 162.219 180.505 162.219L167.175 156.346C167.175 156.346 159.39 159.573 163.797 178.645L174.282 188.358C188.03 189.858 201.578 189.978 214.926 188.022Z" fill="#4C6CA8"/>
<path d="M144.488 177.624C146.083 180.814 163.159 185.848 166.349 186.646C176.951 188.766 174.516 189.487 183.127 189.129C170.324 173.953 152.175 167.073 150.547 166.478C146.507 168.564 143.108 172.793 144.488 177.624Z" fill="#4C6CA8"/>
<path d="M157.248 195.967C142.693 185.354 138.905 177.588 143.619 163.398L137.106 160.494C137.106 160.494 129.314 163.784 133.688 183.144C136.374 195.03 151.961 202.996 164.08 211.72C171.699 217.205 178.325 226.394 178.325 226.394C178.984 255.743 195.509 278.877 195.509 278.877L199.474 277.995C196.64 268.506 192.994 260.071 190.752 250.266C188.365 239.827 186.488 231.991 184.727 219.922C178.244 215.154 167.876 204.237 157.248 195.967Z" fill="#4C6CA8"/>
<path d="M199.06 278.088C199.06 278.088 186.403 240.524 184.728 219.923C184.728 219.923 180.522 215.601 166.362 202.876C152.202 190.151 139.589 187.361 142.182 170.46" stroke="#435F94" stroke-width="0.9021" stroke-miterlimit="10" stroke-linecap="round" stroke-linejoin="round"/>
<path d="M192.471 203.972C192.471 203.972 187.838 188.087 170.644 177.359" stroke="#435F94" stroke-width="0.9021" stroke-miterlimit="10" stroke-linecap="round" stroke-linejoin="round"/>
<path d="M212.978 170.188C212.273 170.587 211.75 170.773 211.09 170.935C210.455 171.084 209.796 171.148 209.13 171.143C208.47 171.127 207.799 171.049 207.15 170.902C206.495 170.76 205.869 170.551 205.247 170.31L204.78 170.129C203.1 169.478 202.265 167.588 202.916 165.907C203.567 164.227 205.457 163.392 207.138 164.043C207.837 164.314 208.39 164.8 208.75 165.395C208.94 165.709 209.146 166.027 209.38 166.309C209.613 166.599 209.871 166.854 210.16 167.096C210.448 167.324 210.768 167.531 211.117 167.689C211.437 167.856 211.907 167.943 212.136 168.03L212.834 168.296C213.375 168.502 213.646 169.107 213.44 169.648C213.351 169.886 213.182 170.072 212.978 170.188Z" fill="#FFC7A7"/>
<path d="M205.324 162.099C206.056 161.892 206.599 161.813 207.228 161.732C207.836 161.663 208.443 161.628 209.049 161.626C210.26 161.621 211.468 161.752 212.641 162.033C213.812 162.309 214.959 162.7 216.02 163.253C217.101 163.769 218.07 164.465 218.995 165.188C219.488 165.573 219.576 166.286 219.191 166.779C218.828 167.243 218.176 167.348 217.69 167.038L217.618 166.991C216.766 166.444 215.903 165.926 214.968 165.581C214.051 165.198 213.084 164.965 212.113 164.824C211.142 164.678 210.153 164.659 209.179 164.749C208.693 164.794 208.21 164.865 207.738 164.961C207.288 165.055 206.758 165.199 206.447 165.321L206.416 165.333C205.538 165.678 204.546 165.247 204.201 164.369C203.856 163.491 204.287 162.499 205.165 162.154C205.216 162.133 205.271 162.115 205.324 162.099Z" fill="#FFC7A7"/>
<path d="M209.135 164.566C210.13 164.763 210.952 165.002 211.829 165.273C212.689 165.545 213.536 165.842 214.368 166.172C216.032 166.831 217.644 167.599 219.195 168.465C219.743 168.771 219.939 169.463 219.633 170.011C219.349 170.52 218.731 170.725 218.205 170.506L218.191 170.5C216.649 169.85 215.07 169.303 213.468 168.865C212.667 168.646 211.86 168.459 211.053 168.3C210.262 168.145 209.401 168.006 208.692 167.948L208.664 167.946C207.723 167.869 207.023 167.044 207.1 166.103C207.177 165.162 208.002 164.462 208.943 164.539C209.007 164.544 209.073 164.554 209.135 164.566Z" fill="#FFC7A7"/>
<path d="M206.376 163.388C207.773 163.136 209.011 163.193 210.23 163.324C211.444 163.466 212.62 163.718 213.769 164.057C216.055 164.749 218.28 165.757 220.173 167.368C220.65 167.774 220.708 168.491 220.302 168.968C219.917 169.42 219.255 169.496 218.78 169.158L218.754 169.139C217.118 167.967 215.106 167.236 213.072 166.81C212.051 166.6 211.012 166.471 209.993 166.44C208.984 166.409 207.957 166.485 207.162 166.707L207.138 166.714C206.229 166.967 205.287 166.436 205.034 165.528C204.78 164.619 205.312 163.677 206.22 163.424C206.271 163.41 206.325 163.398 206.376 163.388Z" fill="#FFC7A7"/>
<path d="M205.808 165.495C206.214 165.398 206.436 165.377 206.729 165.345C207.006 165.317 207.273 165.302 207.54 165.297C208.073 165.287 208.596 165.308 209.11 165.367C210.14 165.476 211.136 165.707 212.096 166.014C213.047 166.343 213.966 166.733 214.828 167.212C215.697 167.679 216.503 168.231 217.281 168.805C217.786 169.177 217.893 169.887 217.521 170.392C217.174 170.862 216.534 170.987 216.04 170.701L215.993 170.674C215.249 170.239 214.496 169.831 213.714 169.512C212.937 169.179 212.136 168.939 211.335 168.751C210.53 168.585 209.72 168.488 208.926 168.488C208.529 168.483 208.137 168.511 207.758 168.558C207.57 168.582 207.382 168.612 207.207 168.65C207.048 168.681 206.819 168.743 206.784 168.763C205.949 169.235 204.889 168.942 204.417 168.107C203.944 167.272 204.238 166.212 205.073 165.74C205.216 165.659 205.365 165.601 205.517 165.564L205.808 165.495Z" fill="#FFC7A7"/>
<path d="M198.724 161.674L207.225 162.313L206.296 170.051L200.134 168.219C198.612 167.873 197.659 166.359 198.005 164.837L198.724 161.674Z" fill="#FFC7A7"/>
<path d="M181.558 141.738C180.631 140.409 180.679 131.792 181.329 124.902C181.958 118.24 180.761 112.057 181.558 105.413C182.635 96.4229 179.708 92.33 173.561 92.33C166.438 92.33 167.591 102.59 167.577 106.799C167.553 114.334 171.458 126.859 171.752 134.393C171.899 138.155 171.917 142.317 173.62 145.773C176.288 151.187 182.259 154.039 186.571 157.937C187.438 158.72 199.355 168.466 199.648 167.75L201.94 162.136C196.266 156.269 181.678 141.91 181.558 141.738ZM180.659 142.385C180.659 142.38 180.605 142.315 180.646 142.364C180.658 142.377 180.669 142.397 180.681 142.411C180.676 142.404 180.663 142.392 180.659 142.385Z" fill="#FFC7A7"/>
<path d="M151.13 88.963C151.13 88.963 146.394 88.989 138.414 90.686L121.534 110.013C121.534 110.013 129.812 110.863 130.93 118.439C132.409 128.458 131.39 147.353 129.413 160.392C128.695 165.127 132.001 166.459 132.478 166.826C132.478 166.826 151.045 175.873 169.423 173.106C187.8 170.339 180.208 162.548 180.208 162.548C180.208 162.548 177.001 150.898 175.596 136.99C175.596 136.99 179.068 95.979 172.45 91.02C166.982 86.922 151.13 88.963 151.13 88.963Z" fill="#5E6291"/>
<path d="M171.301 90.3369C171.301 90.3369 183.904 90.2769 183.904 108.269C183.904 111.737 185.484 116.727 185.001 121.563C184.901 122.56 180.712 127.176 170.644 124.17L171.301 90.3369Z" fill="#5E6291"/>
<path d="M159.608 163.885C165.639 163.603 174.087 160.884 178.923 157.259C178.732 156.404 178.528 155.465 178.317 154.445C173.534 157.055 168.449 159.1 163.095 160.187C150.545 162.735 135.963 158.745 130.485 151.852C130.403 152.646 130.317 153.43 130.229 154.206C130.933 156.761 135.147 165.028 159.608 163.885Z" fill="#7E8F99"/>
<path d="M157.946 156.225C151.597 155.399 145.306 153.99 139.341 151.815C135.2 150.284 129.135 147.975 126.1 144.006C125.792 143.603 125.604 143.225 125.62 143.139C125.789 143.455 125.607 142.393 125.776 141.179C126.418 136.572 128.361 131.955 130.505 128.115C133.711 122.366 137.894 117.217 142.519 112.753C145.878 109.511 146.443 103.567 143.781 99.476C141.119 95.385 136.238 94.697 132.88 97.939C132.649 98.162 132.431 98.398 132.226 98.646L132.156 98.733C127.074 104.962 122.536 111.977 119.109 120.012C116.175 126.891 113.326 136.975 114.658 144.996C114.79 145.785 114.969 146.613 115.245 147.496C118.187 157.54 129.869 160.449 137.351 162.065C144.147 163.533 150.918 164.065 157.653 164C159.42 163.983 160.841 162.225 160.827 160.073C160.813 158.07 159.563 156.433 157.946 156.225Z" fill="#FFC7A7"/>
<path d="M165.713 157.35C165.9 157.307 165.998 157.294 166.115 157.275L166.445 157.23C166.659 157.203 166.869 157.181 167.072 157.17C167.485 157.134 167.885 157.136 168.287 157.13C169.086 157.148 169.877 157.204 170.654 157.331C172.207 157.581 173.726 158.015 175.128 158.685C176.517 159.364 177.854 160.153 178.988 161.158C179.595 161.615 180.087 162.184 180.627 162.699C181.136 163.241 181.587 163.827 182.063 164.388C182.668 165.101 182.58 166.17 181.866 166.775C181.203 167.337 180.234 167.301 179.615 166.721L179.456 166.572C179.003 166.149 178.579 165.697 178.116 165.299C177.629 164.934 177.19 164.506 176.67 164.205C175.695 163.501 174.605 163.027 173.521 162.626C172.428 162.237 171.282 162.05 170.15 161.988C169.583 161.956 169.017 161.981 168.463 162.026C168.19 162.064 167.913 162.088 167.654 162.143C167.413 162.18 167.087 162.265 167.011 162.296C165.697 162.836 164.194 162.208 163.655 160.894C163.116 159.58 163.743 158.077 165.057 157.538C165.185 157.485 165.316 157.444 165.446 157.413L165.713 157.35Z" fill="#FFC7A7"/>
<path d="M170.353 161.607C171.028 161.869 171.499 162.101 172.042 162.365C172.564 162.625 173.075 162.893 173.574 163.175C174.574 163.736 175.542 164.333 176.482 164.963C178.358 166.23 180.128 167.623 181.785 169.126C182.482 169.758 182.534 170.836 181.902 171.532C181.321 172.172 180.365 172.269 179.672 171.79L179.659 171.781C177.951 170.603 176.169 169.55 174.335 168.638C173.417 168.185 172.485 167.77 171.547 167.397C171.079 167.208 170.607 167.038 170.139 166.877C169.69 166.726 169.161 166.558 168.816 166.481C167.434 166.17 166.566 164.798 166.877 163.416C167.188 162.034 168.56 161.166 169.942 161.477C170.064 161.504 170.181 161.54 170.294 161.583L170.353 161.607Z" fill="#FFC7A7"/>
<path d="M166.876 159.381C168.829 159.243 170.406 159.593 171.928 160.035C173.437 160.494 174.847 161.109 176.189 161.841C178.857 163.312 181.291 165.248 183.145 167.754C183.704 168.509 183.545 169.575 182.789 170.134C182.083 170.656 181.107 170.551 180.526 169.919L180.489 169.879C178.824 168.055 176.646 166.648 174.327 165.669C173.167 165.182 171.961 164.803 170.772 164.575C169.6 164.344 168.378 164.284 167.555 164.448C166.168 164.724 164.819 163.824 164.543 162.437C164.267 161.05 165.167 159.701 166.554 159.425C166.657 159.403 166.774 159.388 166.876 159.381Z" fill="#FFC7A7"/>
<path d="M165.834 162.335C166.208 162.276 166.343 162.278 166.564 162.267C166.771 162.255 166.953 162.263 167.144 162.265C167.518 162.279 167.881 162.3 168.231 162.352C168.94 162.434 169.61 162.593 170.266 162.779C171.573 163.16 172.778 163.721 173.894 164.375C175.013 165.03 176.012 165.814 176.949 166.638C177.417 167.051 177.839 167.502 178.281 167.931L179.492 169.304C180.112 170.007 180.045 171.081 179.342 171.701C178.693 172.274 177.729 172.261 177.096 171.702L176.994 171.612L175.804 170.564C175.384 170.253 174.983 169.916 174.557 169.628C173.704 169.053 172.831 168.532 171.925 168.149C171.022 167.766 170.101 167.478 169.194 167.338C168.742 167.272 168.291 167.224 167.865 167.235C167.65 167.229 167.443 167.25 167.249 167.268C167.156 167.281 167.053 167.288 166.978 167.307C166.916 167.316 166.768 167.35 166.862 167.34C165.479 167.624 164.128 166.734 163.843 165.351C163.561 163.971 164.451 162.62 165.834 162.335Z" fill="#FFC7A7"/>
<path d="M158.019 156.269L169.251 157.521C169.251 157.521 174.432 166.914 168.323 167.064C162.215 167.215 156.926 164.045 156.926 164.045L158.019 156.269Z" fill="#FFC7A7"/>
<path d="M131.864 92.3289C127.678 95.6939 123.734 102.011 117.093 117.632C117.093 117.632 118.776 126.801 133.805 131.368C133.805 131.368 138.476 126.517 142.41 117.392C146.344 108.267 149.671 102.294 144.085 95.6929C143.796 95.3519 140.425 90.8559 138.966 90.7329C137.407 90.6039 133.084 91.3489 131.864 92.3289Z" fill="#5E6291"/>
<path d="M176.418 121.429C176.9 110.672 175.641 99.629 175.641 99.629C175.641 99.629 174.99 94.303 171.828 91.491" stroke="#474A6E" stroke-miterlimit="10" stroke-linecap="round" stroke-linejoin="round"/>
<path d="M144.346 112.515C144.346 112.515 140.394 124.298 133.806 131.369" stroke="#474A6E" stroke-miterlimit="10" stroke-linecap="round" stroke-linejoin="round"/>
<path d="M139.171 92.954C139.171 92.954 150.562 94.993 145.536 109.99" stroke="#474A6E" stroke-miterlimit="10" stroke-linecap="round" stroke-linejoin="round"/>
<path d="M146.344 172.385L185.001 170.909L176.328 184.268L146.344 172.385Z" fill="#F5E1E4"/>
<path d="M230.1 142.36L226.882 140.409L221.815 140.795L178.823 144.073L170.68 183.776L218.739 180.111L226.424 142.64L230.1 142.36Z" fill="#875C5E"/>
<path d="M146.756 177.781L175.44 185.609L175.029 180.212L146.344 172.385L146.756 177.781Z" fill="#875C5E"/>
<path d="M221.956 182.063L173.898 185.727L182.041 146.024L230.099 142.36L221.956 182.063Z" fill="#E87674"/>
<path d="M207.349 156.547C207.349 156.547 205.967 156.596 205.639 158.621" stroke="#F5E1E4" stroke-width="0.9472" stroke-miterlimit="10" stroke-linecap="round" stroke-linejoin="round"/>
<path d="M207.538 160.324C207.37 161.676 206.217 162.776 204.976 162.723C203.74 162.67 202.967 161.496 203.233 160.158C203.487 158.879 204.607 157.913 205.747 157.953C206.892 157.992 207.699 159.031 207.538 160.324Z" fill="#F5E1E4"/>
<path d="M206.791 164.939C206.931 163.838 207.67 162.977 208.542 162.763C208.026 161.298 206.858 160.298 205.378 160.241C203.258 160.159 201.105 162.048 200.513 164.647C199.868 167.48 201.29 170.083 203.764 170.222C205.493 170.319 207.13 169.142 208.061 167.429C207.188 167.095 206.646 166.079 206.791 164.939Z" fill="#F5E1E4"/>
<path d="M181.2 56.993C181.2 56.993 182.203 61.529 180.502 70.592C179.487 75.997 180.113 78.684 176.2 85.224C175.365 86.618 174.502 87.669 173.798 88.408C172.931 89.318 171.648 89.686 170.422 89.414C167.264 88.713 160.621 86.444 158.148 83.532C154.797 79.586 153.424 66.385 157.572 60.447C161.721 54.507 171.268 45.589 181.2 56.993Z" fill="#FFC7A7"/>
<path d="M157.167 79.089L151.288 90.312C151.288 90.312 149.931 94.93 155.178 97.322C160.425 99.715 161.554 97.485 161.554 97.485L165.977 84.679L157.167 79.089Z" fill="#FFC7A7"/>
<path d="M176.656 68.259C176.656 68.259 178.123 66.897 179.59 68.452" stroke="#503D4F" stroke-width="1.3318" stroke-miterlimit="10" stroke-linecap="round"/>
<path d="M172.35 67.709C172.35 67.709 170.755 66.485 168.165 67.984" stroke="#503D4F" stroke-width="1.3318" stroke-miterlimit="10" stroke-linecap="round"/>
<path d="M172.335 70.1889C172.096 70.1289 171.954 70.2119 171.725 70.2699C171.314 70.3739 170.897 70.3339 170.487 70.2399C169.801 70.0819 169.195 69.6649 168.478 69.6779C168.331 69.6809 168.269 69.8259 168.323 69.9479C168.695 70.7919 169.854 71.0489 170.689 71.1389C171.276 71.2019 172.437 71.2119 172.518 70.4299C172.529 70.3239 172.433 70.2139 172.335 70.1889Z" fill="#503D4F"/>
<path d="M179.668 71.511C179.451 71.45 179.343 71.519 179.141 71.586C178.772 71.709 178.434 71.739 178.047 71.678C177.434 71.582 176.892 71.204 176.26 71.268C176.151 71.279 176.048 71.375 176.087 71.495C176.347 72.291 177.342 72.486 178.082 72.544C178.61 72.585 179.883 72.518 179.85 71.751C179.846 71.641 179.777 71.542 179.668 71.511Z" fill="#503D4F"/>
<path d="M172.151 82.4C171.093 83.439 168.625 82.87 167.599 81.683" stroke="#503D4F" stroke-width="0.9988" stroke-miterlimit="10" stroke-linecap="round" stroke-linejoin="round"/>
<path d="M174.551 72.9919C174.551 72.9919 176.609 76.562 176.22 77.416C175.798 78.342 173.489 79.153 172.746 78.42" stroke="#503D4F" stroke-width="0.9988" stroke-miterlimit="10" stroke-linecap="round" stroke-linejoin="round"/>
<path d="M172.904 48.0929C165.604 43.6079 153.142 43.4729 149.381 53.5429C146.652 60.8499 148.756 76.0639 155.318 82.6179C158.753 83.8579 154.707 70.9659 157.773 70.8219C158.552 70.7849 159.175 70.9869 159.647 71.3359C160.089 71.0829 159.902 72.1709 160.465 72.0909C162.584 71.7919 164.468 67.8839 165.445 65.5419C166.749 62.4149 173.624 63.4519 176.525 61.6549C180.042 59.4769 181.201 56.9909 181.201 56.9909C181.201 56.9909 180.204 52.5779 172.904 48.0929Z" fill="#303131"/>
<path d="M155.266 69.3949C155.595 72.1599 156.887 74.0619 159.04 74.1199C161.193 74.1779 162.033 72.1309 162.102 69.5789C162.171 67.0279 160.706 65.0509 158.79 64.7819C156.562 64.4699 154.965 66.8599 155.266 69.3949Z" fill="#FFC7A7"/>
<path d="M179.366 55.107C179.366 55.107 179.822 59.8469 181.102 66.7789C181.102 66.7789 186.918 56.556 183.35 50.634C182.429 49.106 179.369 48.5219 177.213 47.5439C166.704 42.7729 159.302 45.446 159.302 45.446L179.366 55.107Z" fill="#303131"/>
</svg>
