<svg width="500" height="400" viewBox="0 0 500 400" fill="none" xmlns="http://www.w3.org/2000/svg">
<path d="M449.901 344.494H416.779V344.744H449.901V344.494Z" fill="#EBEBEB"/>
<path d="M331.22 347.208H322.527V347.458H331.22V347.208Z" fill="#EBEBEB"/>
<path d="M415.778 335.208H396.586V335.458H415.778V335.208Z" fill="#EBEBEB"/>
<path d="M95.652 336.888H52.459V337.138H95.652V336.888Z" fill="#EBEBEB"/>
<path d="M110.889 336.888H104.556V337.138H110.889V336.888Z" fill="#EBEBEB"/>
<path d="M225.147 341.111H131.471V341.361H225.147V341.111Z" fill="#EBEBEB"/>
<path d="M237.014 283.8H43.915C40.768 283.8 38.207 281.239 38.207 278.092V6.66003C38.207 3.51303 40.768 0.952026 43.915 0.952026H237.014C240.16 0.952026 242.721 3.51303 242.721 6.66003V278.092C242.721 281.239 240.16 283.8 237.014 283.8ZM43.915 1.20303C40.905 1.20303 38.457 3.65103 38.457 6.66103V278.093C38.457 281.103 40.905 283.551 43.915 283.551H237.014C240.023 283.551 242.471 281.103 242.471 278.093V6.66003C242.471 3.65103 240.023 1.20203 237.014 1.20203L43.915 1.20303Z" fill="#EBEBEB"/>
<path d="M453.31 283.8H260.212C257.065 283.8 254.505 281.239 254.505 278.092V6.66003C254.505 3.51303 257.066 0.952026 260.212 0.952026H453.31C456.458 0.952026 459.018 3.51303 459.018 6.66003V278.092C459.019 281.239 456.458 283.8 453.31 283.8ZM260.212 1.20303C257.203 1.20303 254.755 3.65103 254.755 6.66103V278.093C254.755 281.103 257.203 283.551 260.212 283.551H453.31C456.32 283.551 458.768 281.103 458.768 278.093V6.66003C458.768 3.65103 456.32 1.20203 453.31 1.20203L260.212 1.20303Z" fill="#EBEBEB"/>
<path d="M500 328.398H0V328.648H500V328.398Z" fill="#EBEBEB"/>
<path d="M447.396 233.7L443.013 329.362H438.069L438.194 326.019H376.401L376.527 329.362H371.576L367.396 233.7H447.396Z" fill="#F0F0F0"/>
<path d="M438.382 320.924H376.208L373.142 239.492H441.428L438.382 320.924Z" fill="white"/>
<path d="M438.628 262.993H376.572L375.888 243.424H439.312L438.628 262.993Z" fill="#EBEBEB"/>
<path d="M436.444 318.488H378.359L376.505 265.426H438.299L436.444 318.488Z" fill="#EBEBEB"/>
<path d="M410.297 252.259C410.297 253.822 409.03 255.088 407.468 255.088C405.905 255.088 404.639 253.821 404.639 252.259C404.639 250.696 405.906 249.43 407.468 249.43C409.03 249.43 410.297 250.696 410.297 252.259Z" fill="white"/>
<path d="M383.285 295.229C382.153 295.229 381.235 294.311 381.235 293.179V279.045C381.235 277.913 382.153 276.995 383.285 276.995C384.417 276.995 385.335 277.913 385.335 279.045V293.179C385.335 294.311 384.417 295.229 383.285 295.229Z" fill="white"/>
<path d="M400.649 224.179C400.649 227.913 401.235 230.329 402.222 231.878C402.964 233.044 404.297 233.699 405.679 233.699H411.086C412.468 233.699 413.801 233.043 414.543 231.878C415.53 230.328 416.116 227.913 416.116 224.179C416.116 218.763 413.754 214.426 412.983 210.964C412.706 209.717 413.63 205.896 413.63 205.896H403.134C403.134 205.896 404.059 209.717 403.781 210.964C403.01 214.426 400.649 218.762 400.649 224.179Z" fill="#F0F0F0"/>
<path d="M411.885 179.745C411.885 179.745 410.116 180.187 409.086 181.56C408.056 182.933 409.835 186.165 409.835 186.165C409.835 186.165 411.517 187.881 413.607 187.37C415.697 186.859 415.697 186.859 415.697 186.859C415.697 186.859 413.486 180.524 411.899 180.165L411.885 179.745Z" fill="#EBEBEB"/>
<path d="M420.137 181.26C419.86 184.014 417.534 187.114 415.075 186.866C412.616 186.618 410.956 183.116 411.233 180.363C411.51 177.609 413.513 177.715 415.972 177.963C418.431 178.21 420.415 178.506 420.137 181.26Z" fill="#EBEBEB"/>
<path d="M413.202 179.122C413.202 179.122 414.772 180.944 418.744 180.805C418.744 180.805 411.979 183.676 413.202 179.122Z" fill="#EBEBEB"/>
<path d="M414.934 178.891C414.934 178.891 417.136 178.923 416.999 179.819C416.999 179.819 418.827 180.061 418.72 179.256C418.613 178.452 414.934 178.891 414.934 178.891Z" fill="#EBEBEB"/>
<path d="M413.202 179.122C413.202 179.122 414.772 180.944 418.744 180.805C418.744 180.805 411.979 183.676 413.202 179.122Z" fill="#E0E0E0"/>
<path d="M414.934 178.891C414.934 178.891 417.136 178.923 416.999 179.819C416.999 179.819 418.827 180.061 418.72 179.256C418.613 178.452 414.934 178.891 414.934 178.891Z" fill="#E0E0E0"/>
<path d="M410.853 186.955C411.386 188.348 412.835 189.287 414.323 189.388C415.812 189.489 417.294 188.828 418.361 187.785C419.428 186.742 420.106 185.349 420.476 183.903C420.572 183.529 420.78 182.587 420.309 182.346C419.876 182.125 419.473 182.712 419.204 182.97C418.431 183.713 417.633 184.396 416.72 184.965C415.836 185.517 414.888 185.967 413.902 186.303C413.626 186.399 410.947 187.201 410.853 186.955Z" fill="#EBEBEB"/>
<path d="M422.254 183.507C422.504 184.692 422.085 185.996 421.19 186.813C420.603 187.35 419.853 187.67 419.107 187.947C418.589 188.14 417.938 188.293 417.538 187.911C417.106 187.499 417.287 186.785 417.509 186.23C417.85 185.377 418.215 184.532 418.603 183.699C418.921 183.015 419.258 181.834 419.795 181.304C420.3 180.805 420.796 181.251 421.316 181.781C421.781 182.253 422.117 182.856 422.254 183.507Z" fill="#EBEBEB"/>
<path d="M411.754 185.57C410.827 185.353 410.063 184.554 409.888 183.618C409.759 182.926 410.072 181.292 410.947 181.242C411.042 182.766 411.112 184.145 411.754 185.57Z" fill="#E0E0E0"/>
<path d="M418.428 186.054C419.358 185.969 420.229 185.387 420.663 184.56C420.903 184.103 421.183 181.591 420.251 182.492C419.946 182.787 419.785 183.882 419.578 184.298C419.264 184.926 418.878 185.516 418.428 186.054Z" fill="#E0E0E0"/>
<path d="M414.761 186.944C415.333 187.653 416.419 187.888 417.233 187.478C417.05 187.939 415.465 188.054 414.971 188.103C413.685 188.231 413.149 187.574 412.059 186.856C412.059 186.856 413.878 187.496 414.761 186.944Z" fill="#E0E0E0"/>
<path d="M406.932 230.728L409.962 200.12L413.975 189.26L414.671 189.517L410.676 200.328L407.51 231.563L406.932 230.728Z" fill="#E6E6E6"/>
<path d="M410.65 200.057L409.988 200.391C409.552 199.527 409.216 198.444 408.828 197.19C408.228 195.251 407.547 193.054 406.274 190.982L406.906 190.594C408.228 192.745 408.923 194.99 409.536 196.971C409.915 198.193 410.242 199.248 410.65 200.057Z" fill="#E6E6E6"/>
<path d="M412.282 196.044C413.312 195.972 414.311 195.512 415.036 194.778C415.86 193.943 416.305 192.816 416.729 191.722C415.384 191.862 414.133 190.985 412.784 190.887C411.709 190.809 410.608 191.265 409.902 192.08C408.989 193.136 408.454 194.429 408.96 195.088C409.376 195.63 410.904 196.141 412.282 196.044Z" fill="#F0F0F0"/>
<path d="M401.447 192.73C402.441 191.904 404.57 191.571 405.776 192.035C406.982 192.499 407.885 193.56 408.139 194.667C407.659 195.397 406.689 195.678 405.821 195.578C404.953 195.478 404.156 195.064 403.382 194.658C402.608 194.252 401.811 193.838 400.943 193.737L401.447 192.73Z" fill="#F0F0F0"/>
<path d="M408.126 193.312C406.37 193.508 404.796 193.858 403.199 191.86C402.128 190.52 402.472 188.496 402.55 186.895C404.075 187.23 407.53 188.911 408.297 189.323C409.064 189.735 409.716 190.405 409.843 191.198C409.969 191.991 409.432 192.873 408.566 193.018C408.537 192.975 408.126 193.312 408.126 193.312Z" fill="#F0F0F0"/>
<path d="M403.097 217.123C402.392 219.115 401.723 221.283 401.952 223.401C401.996 223.804 402.12 224.264 402.411 224.336C402.681 224.402 402.949 224.071 403.046 223.704C403.142 223.338 403.117 222.946 403.116 222.565C403.108 219.282 404.895 216.517 405.234 213.314C405.33 212.404 405.095 209.53 404.562 211.641C404.085 213.523 403.748 215.285 403.097 217.123Z" fill="white"/>
<path d="M249.459 65.2151H170.675V192.93H249.459V65.2151Z" fill="#E0E0E0"/>
<path d="M252.359 65.2151H173.575V192.93H252.359V65.2151Z" fill="#F0F0F0"/>
<path d="M248.374 70.4041H177.409V132.732H248.374V70.4041Z" fill="white"/>
<path d="M248.375 70.4081H245.877V185.449H248.375V70.4081Z" fill="#E0E0E0"/>
<path d="M177.188 132.733V135.513H246.144V132.733H177.188Z" fill="#E0E0E0"/>
<path d="M248.373 128.066H176.069V132.732H248.373V128.066Z" fill="#F0F0F0"/>
<path d="M325.126 65.2151H246.342V192.93H325.126V65.2151Z" fill="#E0E0E0"/>
<path d="M328.026 65.2151H249.242V192.93H328.026V65.2151Z" fill="#F0F0F0"/>
<path d="M324.041 70.4041H253.076V132.732H324.041V70.4041Z" fill="white"/>
<path d="M324.042 70.4081H321.544V185.449H324.042V70.4081Z" fill="#E0E0E0"/>
<path d="M252.854 132.733V135.513H321.81V132.733H252.854Z" fill="#E0E0E0"/>
<path d="M324.04 128.066H251.736V132.732H324.04V128.066Z" fill="#F0F0F0"/>
<path d="M82.362 286.861C82.362 286.861 85.269 254.653 72.47 238.945C59.67 223.237 82.463 237.538 86.5 253.203C86.5 253.203 87.256 224.23 74.483 205.454C61.71 186.678 83.481 200.73 87.277 221.208C87.277 221.208 88 195.354 81.619 181.646C75.237 167.938 84.756 176.098 88.964 184.666C93.172 193.234 91.079 215.963 91.079 215.963C91.079 215.963 95.553 173.862 104.041 176.143C112.529 178.424 94.89 207.787 93.478 222.123C93.478 222.123 101.197 202.127 108.89 205.165C116.583 208.203 98.18 212.402 92.497 241.513L90.834 255.041C90.834 255.041 97.81 235.384 104.19 240.548C110.57 245.711 88.642 258.607 86.152 287.42L82.362 286.861Z" fill="#EBEBEB"/>
<path d="M83.737 288.529C83.737 288.529 81.012 248.695 97.226 229.724C113.44 210.753 84.933 227.667 79.533 246.866C79.533 246.866 79.376 211.092 95.639 188.335C111.902 165.577 84.663 182.218 79.431 207.363C79.431 207.363 79.231 175.438 87.472 158.729C95.713 142.019 83.75 151.782 78.328 162.219C72.907 172.656 74.881 200.768 74.881 200.768C74.881 200.768 70.487 148.676 59.953 151.219C49.419 153.761 70.397 190.558 71.755 208.292C71.755 208.292 62.766 183.371 53.192 186.873C43.618 190.375 66.213 196.147 72.447 232.249L74.137 248.995C74.137 248.995 66.056 224.517 58.045 230.683C50.035 236.85 76.746 253.464 79.047 289.097L83.737 288.529Z" fill="#F0F0F0"/>
<path d="M108.936 308.391C108.936 319.321 97.086 328.191 82.466 328.191C67.836 328.191 55.986 319.321 55.986 308.391C55.986 303.461 58.386 298.971 62.366 295.511L59.236 282.261H105.686L102.556 295.511C106.535 298.971 108.936 303.461 108.936 308.391Z" fill="#EBEBEB"/>
<path d="M250 373.016C357.082 373.016 443.889 367.947 443.889 361.693C443.889 355.439 357.082 350.37 250 350.37C142.918 350.37 56.111 355.439 56.111 361.693C56.111 367.947 142.918 373.016 250 373.016Z" fill="#F5F5F5"/>
<path d="M136.926 276.418C136.926 276.418 145.889 291.321 150.18 310.617C159.411 352.128 159.411 360.54 159.411 360.54L167.125 360.793C167.125 360.793 151.873 285.146 139.491 273.97C127.111 262.794 136.926 276.418 136.926 276.418Z" fill="#407BFF"/>
<path opacity="0.4" d="M136.926 276.418C136.926 276.418 145.889 291.321 150.18 310.617C159.411 352.128 159.411 360.54 159.411 360.54L167.125 360.793C167.125 360.793 151.873 285.146 139.491 273.97C127.111 262.794 136.926 276.418 136.926 276.418Z" fill="black"/>
<path d="M134.06 267.716C136.847 265.52 137.307 265.853 140.254 265.011C137.856 263.2 135.416 260.25 130.055 259.506C125.18 259.105 121.293 262.118 119.616 266.261C119.492 266.567 119.238 266.818 118.901 266.932C118.894 266.934 118.887 266.937 118.881 266.939C118.093 267.205 117.236 266.7 117.214 265.937C117.118 262.611 118.992 259.248 122.089 257.441C118.043 256.607 113.067 256.118 109.266 257.627C105.105 259.278 101.484 266.457 102.346 270.723C102.421 271.094 102.208 271.463 101.822 271.603C101.814 271.606 101.806 271.609 101.798 271.612C101.325 271.785 100.793 271.563 100.636 271.123C100.252 270.047 99.429 268.131 99.688 265.828C99.918 263.782 100.778 261.677 102.797 260.742C98.073 259.036 89.006 265.4 89.516 265.547C88.219 268.823 89.408 273.067 90.105 275.033C90.353 275.732 90.014 276.488 89.305 276.843C89.294 276.848 89.283 276.854 89.272 276.859C88.362 277.314 87.221 276.929 86.859 276.045C86.049 274.063 84.949 270.843 85.377 268.826C83.34 268.981 81.959 271.209 80.951 272.822C77.738 277.963 79.566 283.907 80.477 289.419C83.253 292.3 87.3 295.717 93.383 297.481C97.085 298.555 101.113 298.195 104.601 296.641L104.687 296.603C102.024 294.36 99.147 291.776 96.443 289.467C95.925 289.025 95.866 288.3 96.303 287.791C96.309 287.784 96.314 287.778 96.32 287.771C96.782 287.241 97.632 287.141 98.225 287.55C102.047 290.185 104.685 292.727 108.651 295.373C112.126 294.75 120.145 289.958 119.366 289.785C115.878 287.657 109.51 284.778 106.976 281.596C106.6 281.124 106.742 280.462 107.286 280.151C107.697 279.916 108.229 279.955 108.599 280.24C112.887 283.547 117.12 286.124 122.423 287.983C127.363 286.065 131.035 284.511 132.995 282.159C130.202 280.318 125.957 277.54 122.714 275.409C121.69 274.736 122.571 273.256 123.737 273.7C123.756 273.707 123.774 273.714 123.793 273.722C128.542 275.614 132.817 279.84 137.86 279.434C137.86 279.434 145.257 277.809 145.24 274.545C140.221 274.431 132.814 268.697 134.06 267.716Z" fill="#407BFF"/>
<path opacity="0.2" d="M134.06 267.716C136.847 265.52 137.307 265.853 140.254 265.011C137.856 263.2 135.416 260.25 130.055 259.506C125.18 259.105 121.293 262.118 119.616 266.261C119.492 266.567 119.238 266.818 118.901 266.932C118.894 266.934 118.887 266.937 118.881 266.939C118.093 267.205 117.236 266.7 117.214 265.937C117.118 262.611 118.992 259.248 122.089 257.441C118.043 256.607 113.067 256.118 109.266 257.627C105.105 259.278 101.484 266.457 102.346 270.723C102.421 271.094 102.208 271.463 101.822 271.603C101.814 271.606 101.806 271.609 101.798 271.612C101.325 271.785 100.793 271.563 100.636 271.123C100.252 270.047 99.429 268.131 99.688 265.828C99.918 263.782 100.778 261.677 102.797 260.742C98.073 259.036 89.006 265.4 89.516 265.547C88.219 268.823 89.408 273.067 90.105 275.033C90.353 275.732 90.014 276.488 89.305 276.843C89.294 276.848 89.283 276.854 89.272 276.859C88.362 277.314 87.221 276.929 86.859 276.045C86.049 274.063 84.949 270.843 85.377 268.826C83.34 268.981 81.959 271.209 80.951 272.822C77.738 277.963 79.566 283.907 80.477 289.419C83.253 292.3 87.3 295.717 93.383 297.481C97.085 298.555 101.113 298.195 104.601 296.641L104.687 296.603C102.024 294.36 99.147 291.776 96.443 289.467C95.925 289.025 95.866 288.3 96.303 287.791C96.309 287.784 96.314 287.778 96.32 287.771C96.782 287.241 97.632 287.141 98.225 287.55C102.047 290.185 104.685 292.727 108.651 295.373C112.126 294.75 120.145 289.958 119.366 289.785C115.878 287.657 109.51 284.778 106.976 281.596C106.6 281.124 106.742 280.462 107.286 280.151C107.697 279.916 108.229 279.955 108.599 280.24C112.887 283.547 117.12 286.124 122.423 287.983C127.363 286.065 131.035 284.511 132.995 282.159C130.202 280.318 125.957 277.54 122.714 275.409C121.69 274.736 122.571 273.256 123.737 273.7C123.756 273.707 123.774 273.714 123.793 273.722C128.542 275.614 132.817 279.84 137.86 279.434C137.86 279.434 145.257 277.809 145.24 274.545C140.221 274.431 132.814 268.697 134.06 267.716Z" fill="white"/>
<path d="M182.529 360.844H164.63C160.646 354.974 156.864 347.343 155.941 338.682C153.795 318.666 167.652 300.767 167.652 300.767C167.652 300.767 180.104 311.198 185.214 326.538C186.138 329.319 186.831 332.254 187.158 335.314C188.187 344.879 185.56 353.963 182.529 360.844Z" fill="#407BFF"/>
<path opacity="0.3" d="M182.529 360.844H164.63C160.646 354.974 156.864 347.343 155.941 338.682C153.795 318.666 167.652 300.767 167.652 300.767C167.652 300.767 180.104 311.198 185.214 326.538C186.138 329.319 186.831 332.254 187.158 335.314C188.187 344.879 185.56 353.963 182.529 360.844Z" fill="black"/>
<path d="M205.124 349.931C202.574 354.31 199.244 357.909 195.722 360.844H173.435C173.166 353.299 174.08 343.128 179.228 334.294C180.931 331.378 182.971 328.799 185.213 326.538C195.529 315.981 209.589 312.219 209.589 312.219C209.589 312.219 214.747 333.418 205.124 349.931Z" fill="#407BFF"/>
<g opacity="0.4">
<path d="M205.124 349.931C202.574 354.31 199.244 357.909 195.722 360.844H173.435C173.166 353.299 174.08 343.128 179.228 334.294C180.931 331.378 182.971 328.799 185.213 326.538C195.529 315.981 209.589 312.219 209.589 312.219C209.589 312.219 214.747 333.418 205.124 349.931Z" fill="white"/>
</g>
<path d="M90.785 339.254C87.998 343.22 87.296 342.898 83.834 345.012C87.521 346.799 91.659 350.173 98.75 349.524C105.103 348.547 109.007 343.085 109.701 336.734C109.752 336.265 109.989 335.832 110.378 335.565C110.386 335.56 110.394 335.554 110.402 335.549C111.314 334.926 112.582 335.365 112.876 336.429C114.157 341.071 112.941 346.389 109.623 349.907C115.07 349.8 121.582 348.915 125.901 345.593C130.628 341.958 132.742 330.727 130.158 325.005C129.933 324.507 130.076 323.922 130.519 323.602C130.528 323.595 130.538 323.588 130.547 323.582C131.09 323.19 131.845 323.334 132.198 323.902C133.062 325.292 134.779 327.725 135.252 331.043C135.672 333.991 135.309 337.22 133.061 339.172C139.676 340.076 149.015 328.269 148.312 328.224C148.823 323.211 145.829 317.623 144.257 315.082C143.698 314.178 143.867 313.009 144.646 312.286C144.658 312.275 144.67 312.264 144.682 312.252C145.684 311.325 147.272 311.506 148.041 312.634C149.764 315.163 152.288 319.34 152.445 322.309C154.987 321.447 155.971 317.88 156.694 315.295C158.998 307.056 154.597 299.282 151.515 291.825C146.973 288.654 140.626 285.132 132.258 284.575C127.166 284.236 122.158 286.014 118.254 289.3L118.158 289.381C122.333 291.69 126.9 294.412 131.151 296.802C131.965 297.259 132.294 298.26 131.913 299.112C131.908 299.123 131.903 299.134 131.898 299.145C131.493 300.035 130.445 300.445 129.547 300.058C123.758 297.564 119.51 294.825 113.534 292.361C109.322 294.335 100.773 303.602 101.825 303.599C107.011 305.486 116.131 307.519 120.468 311.189C121.112 311.734 121.161 312.709 120.577 313.317C120.135 313.777 119.444 313.891 118.872 313.607C112.255 310.315 105.962 308.033 98.556 307.096C92.928 311.352 88.791 314.696 87.112 318.62C91.313 320.324 97.691 322.885 102.567 324.855C104.106 325.477 103.5 327.835 101.859 327.58C101.833 327.576 101.807 327.572 101.78 327.567C95.069 326.409 88.148 321.822 81.862 323.986C81.862 323.986 73.001 328.607 74.161 333.188C80.594 331.766 92.031 337.482 90.785 339.254Z" fill="#407BFF"/>
<path d="M143.557 293.518C143.557 293.518 158.595 315.448 162.65 336.153C166.706 356.858 167.288 360.868 167.288 360.868L176.417 360.952C176.417 360.952 160.009 302.904 146.133 290.501C132.258 278.096 143.557 293.518 143.557 293.518Z" fill="#407BFF"/>
<path opacity="0.1" d="M143.557 293.518C143.557 293.518 158.595 315.448 162.65 336.153C166.706 356.858 167.288 360.868 167.288 360.868L176.417 360.952C176.417 360.952 160.009 302.904 146.133 290.501C132.258 278.096 143.557 293.518 143.557 293.518Z" fill="black"/>
<path opacity="0.6" d="M90.785 339.254C87.998 343.22 87.296 342.898 83.834 345.012C87.521 346.799 91.659 350.173 98.75 349.524C105.103 348.547 109.007 343.085 109.701 336.734C109.752 336.265 109.989 335.832 110.378 335.565C110.386 335.56 110.394 335.554 110.402 335.549C111.314 334.926 112.582 335.365 112.876 336.429C114.157 341.071 112.941 346.389 109.623 349.907C115.07 349.8 121.582 348.915 125.901 345.593C130.628 341.958 132.742 330.727 130.158 325.005C129.933 324.507 130.076 323.922 130.519 323.602C130.528 323.595 130.538 323.588 130.547 323.582C131.09 323.19 131.845 323.334 132.198 323.902C133.062 325.292 134.779 327.725 135.252 331.043C135.672 333.991 135.309 337.22 133.061 339.172C139.676 340.076 149.015 328.269 148.312 328.224C148.823 323.211 145.829 317.623 144.257 315.082C143.698 314.178 143.867 313.009 144.646 312.286C144.658 312.275 144.67 312.264 144.682 312.252C145.684 311.325 147.272 311.506 148.041 312.634C149.764 315.163 152.288 319.34 152.445 322.309C154.987 321.447 155.971 317.88 156.694 315.295C158.998 307.056 154.597 299.282 151.515 291.825C146.973 288.654 140.626 285.132 132.258 284.575C127.166 284.236 122.158 286.014 118.254 289.3L118.158 289.381C122.333 291.69 126.9 294.412 131.151 296.802C131.965 297.259 132.294 298.26 131.913 299.112C131.908 299.123 131.903 299.134 131.898 299.145C131.493 300.035 130.445 300.445 129.547 300.058C123.758 297.564 119.51 294.825 113.534 292.361C109.322 294.335 100.773 303.602 101.825 303.599C107.011 305.486 116.131 307.519 120.468 311.189C121.112 311.734 121.161 312.709 120.577 313.317C120.135 313.777 119.444 313.891 118.872 313.607C112.255 310.315 105.962 308.033 98.556 307.096C92.928 311.352 88.791 314.696 87.112 318.62C91.313 320.324 97.691 322.885 102.567 324.855C104.106 325.477 103.5 327.835 101.859 327.58C101.833 327.576 101.807 327.572 101.78 327.567C95.069 326.409 88.148 321.822 81.862 323.986C81.862 323.986 73.001 328.607 74.161 333.188C80.594 331.766 92.031 337.482 90.785 339.254Z" fill="white"/>
<path d="M339.952 313.822C340.013 314.019 338.88 314.665 341.882 315.533C349.275 317.669 362.606 320.398 369.227 314.821C378.681 306.859 362.132 303.751 365.029 298.793C367.926 293.835 384.402 302.496 389.695 295.701C394.988 288.907 381.862 287.273 383.415 283.49C384.968 279.708 397.111 288.073 403.505 281.058C409.899 274.042 397.144 275.511 399.86 272.62C402.576 269.73 420.841 259.4 415.589 254.815C410.336 250.23 392.815 261.392 387.833 261.826C382.85 262.26 385.286 247.701 378.067 251.005C370.848 254.309 369.534 276.864 361.824 277.818C356.082 278.528 360.841 271.494 354.286 270.204C345.381 268.453 335.077 298.007 339.952 313.822Z" fill="#407BFF"/>
<g opacity="0.3">
<path d="M339.952 313.822C340.013 314.019 338.88 314.665 341.882 315.533C349.275 317.669 362.606 320.398 369.227 314.821C378.681 306.859 362.132 303.751 365.029 298.793C367.926 293.835 384.402 302.496 389.695 295.701C394.988 288.907 381.862 287.273 383.415 283.49C384.968 279.708 397.111 288.073 403.505 281.058C409.899 274.042 397.144 275.511 399.86 272.62C402.576 269.73 420.841 259.4 415.589 254.815C410.336 250.23 392.815 261.392 387.833 261.826C382.85 262.26 385.286 247.701 378.067 251.005C370.848 254.309 369.534 276.864 361.824 277.818C356.082 278.528 360.841 271.494 354.286 270.204C345.381 268.453 335.077 298.007 339.952 313.822Z" fill="white"/>
</g>
<path d="M327.884 338.883C327.871 338.879 327.859 338.875 327.845 338.87C327.587 338.773 327.457 338.485 327.554 338.226C345.965 289.557 379.855 276.24 380.195 276.111C380.453 276.014 380.742 276.144 380.839 276.402C380.936 276.66 380.807 276.949 380.549 277.047C380.213 277.175 346.731 290.359 328.489 338.58C328.397 338.825 328.132 338.954 327.884 338.883Z" fill="#407BFF"/>
<path d="M371.914 281.471C371.719 281.415 371.57 281.241 371.554 281.027C371.534 280.752 371.74 280.512 372.015 280.491C372.209 280.476 376.846 280.169 383.531 283.392C383.78 283.512 383.884 283.811 383.765 284.06C383.645 284.309 383.345 284.415 383.097 284.294C376.673 281.198 372.135 281.487 372.09 281.489C372.028 281.494 371.969 281.487 371.914 281.471Z" fill="#407BFF"/>
<path d="M365.08 286.257C364.826 286.184 364.671 285.924 364.732 285.663C368.297 270.454 379.982 260.75 380.1 260.653C380.313 260.478 380.629 260.51 380.803 260.723C380.978 260.937 380.947 261.252 380.733 261.427C380.618 261.521 369.19 271.023 365.706 285.891C365.643 286.159 365.374 286.327 365.105 286.263C365.097 286.262 365.089 286.259 365.08 286.257Z" fill="#407BFF"/>
<path d="M353.33 296.992C353.209 296.957 353.101 296.877 353.034 296.758C352.897 296.518 352.981 296.213 353.222 296.076C353.302 296.031 361.276 291.611 369.044 296.746C369.274 296.899 369.337 297.209 369.185 297.439C369.033 297.669 368.722 297.733 368.492 297.581C361.231 292.778 353.79 296.904 353.716 296.946C353.594 297.016 353.455 297.028 353.33 296.992Z" fill="#407BFF"/>
<path d="M346.638 304.849C346.459 304.797 346.316 304.646 346.284 304.45C346.226 304.098 344.909 295.69 349.324 285.251C349.432 284.997 349.717 284.871 349.979 284.986C350.233 285.093 350.352 285.386 350.245 285.641C345.949 295.798 347.257 304.204 347.271 304.288C347.315 304.56 347.131 304.818 346.859 304.862C346.783 304.874 346.708 304.869 346.638 304.849Z" fill="#407BFF"/>
<path d="M323.693 356.851C323.443 356.779 323.289 356.525 323.343 356.267L325.966 342.824C334.922 298.187 311.971 260.718 311.739 260.345C311.593 260.111 311.664 259.802 311.898 259.656C312.134 259.51 312.441 259.582 312.587 259.815C312.822 260.192 335.983 297.984 326.945 343.026L324.321 356.473C324.264 356.743 323.999 356.916 323.728 356.859C323.716 356.858 323.705 356.854 323.693 356.851Z" fill="#407BFF"/>
<path d="M320.175 280.003C320.149 279.995 320.123 279.986 320.098 279.974C320.058 279.955 320.011 279.921 319.97 279.885L319.829 279.783C316.265 277.164 312.041 275.223 307.94 274.314C307.664 274.261 307.5 273.988 307.56 273.717C307.62 273.447 307.887 273.278 308.156 273.337C312.391 274.278 316.747 276.277 320.422 278.977L320.567 279.083C320.593 279.101 320.618 279.121 320.641 279.143C320.808 279.287 320.865 279.53 320.766 279.738C320.657 279.962 320.406 280.069 320.175 280.003Z" fill="#407BFF"/>
<path d="M323.068 286.742C323.06 286.74 323.052 286.737 323.044 286.734C322.782 286.645 322.644 286.36 322.733 286.099C327.099 273.346 322.971 260.963 322.929 260.84C322.84 260.579 322.979 260.294 323.24 260.205C323.503 260.117 323.786 260.256 323.875 260.516C323.918 260.642 328.159 273.336 323.679 286.423C323.592 286.677 323.322 286.815 323.068 286.742Z" fill="#407BFF"/>
<path d="M325.641 295.379C325.524 295.345 325.419 295.268 325.351 295.156C325.314 295.094 321.582 289.032 313.91 289.188C313.632 289.195 313.406 288.973 313.4 288.698C313.394 288.422 313.614 288.194 313.89 288.188C322.161 288.017 326.049 294.372 326.21 294.642C326.351 294.879 326.274 295.185 326.038 295.327C325.913 295.402 325.77 295.416 325.641 295.379Z" fill="#407BFF"/>
<path d="M328.207 309.203C328.138 309.183 328.073 309.148 328.015 309.098C327.808 308.915 327.788 308.599 327.97 308.393C328.019 308.336 332.951 302.633 334.492 293.043C334.536 292.77 334.792 292.585 335.065 292.629C335.342 292.662 335.523 292.929 335.479 293.202C333.89 303.094 328.931 308.815 328.72 309.054C328.589 309.203 328.387 309.255 328.207 309.203Z" fill="#407BFF"/>
<path d="M329.216 319.456C323.04 318.087 313.92 309.84 311.14 303.29C308.319 296.643 319.241 302.984 319.102 298.266C318.963 293.548 303.665 293.313 302.52 286.327C301.375 279.341 311.489 283.328 311.857 279.987C312.225 276.647 301.222 274.684 299.369 267.105C297.516 259.525 306.143 265.605 305.32 262.451C304.498 259.296 295.383 244.653 300.978 243.412C306.573 242.171 314.823 257.122 318.248 259.396C321.672 261.67 324.594 253.426 328.502 258.651C332.411 263.877 324.481 280.67 329.67 284.392C333.534 287.164 333.668 278.63 338.106 281.865C345.876 287.526 331.724 320.011 329.216 319.456Z" fill="#407BFF"/>
<g opacity="0.2">
<path d="M329.216 319.456C323.04 318.087 313.92 309.84 311.14 303.29C308.319 296.643 319.241 302.984 319.102 298.266C318.963 293.548 303.665 293.313 302.52 286.327C301.375 279.341 311.489 283.328 311.857 279.987C312.225 276.647 301.222 274.684 299.369 267.105C297.516 259.525 306.143 265.605 305.32 262.451C304.498 259.296 295.383 244.653 300.978 243.412C306.573 242.171 314.823 257.122 318.248 259.396C321.672 261.67 324.594 253.426 328.502 258.651C332.411 263.877 324.481 280.67 329.67 284.392C333.534 287.164 333.668 278.63 338.106 281.865C345.876 287.526 331.724 320.011 329.216 319.456Z" fill="white"/>
</g>
<path d="M327.348 339.969C327.328 339.963 327.308 339.957 327.289 339.948C327.035 339.839 326.918 339.545 327.027 339.291C327.061 339.206 327.394 338.287 327.935 336.689C328.76 334.304 330.424 329.291 332.309 322.482C332.35 322.362 332.369 322.28 332.391 322.189C334.488 314.58 336.236 307 337.589 299.648C338.855 292.793 339.783 286.049 340.348 279.604C340.847 273.767 341.049 268.158 340.949 262.931C340.948 262.916 340.947 262.901 340.947 262.886C340.93 262.066 340.901 261.243 340.873 260.42C340.844 259.75 340.815 259.075 340.775 258.398C340.677 256.644 340.613 254.975 340.583 253.435C340.504 250.042 340.54 246.687 340.69 243.464C340.772 241.527 340.895 239.633 341.058 237.838C341.663 230.811 342.821 224.005 344.498 217.61C345.18 215.002 345.964 212.428 346.826 209.962C347.768 207.273 348.814 204.713 349.934 202.354C350.021 202.178 350.097 202.014 350.17 201.856L350.282 201.624C350.318 201.508 350.395 201.405 350.508 201.34C350.747 201.201 351.052 201.282 351.192 201.521C351.283 201.678 351.276 201.879 351.192 202.037L351.194 202.038L351.078 202.275C351.001 202.441 350.922 202.613 350.834 202.79C349.733 205.11 348.7 207.636 347.769 210.292C346.916 212.733 346.14 215.28 345.465 217.863C343.802 224.203 342.654 230.953 342.053 237.926C341.892 239.707 341.77 241.585 341.688 243.508C341.539 246.71 341.503 250.042 341.582 253.413C341.612 254.944 341.676 256.601 341.773 258.341C341.813 259.022 341.843 259.702 341.872 260.382C341.9 261.209 341.928 262.032 341.945 262.853C341.947 262.869 341.947 262.885 341.948 262.9H341.949C342.051 268.165 341.848 273.814 341.345 279.69C340.777 286.168 339.845 292.943 338.573 299.829C337.214 307.21 335.46 314.817 333.359 322.439C333.333 322.547 333.305 322.659 333.263 322.78C331.38 329.583 329.708 334.619 328.881 337.013C328.331 338.64 327.981 339.603 327.945 339.686C327.845 339.92 327.587 340.038 327.348 339.969Z" fill="#407BFF"/>
<path d="M350.689 201.924C350.705 201.905 350.705 201.905 350.715 201.908C350.731 201.889 350.731 201.889 350.742 201.892C351.772 201.345 352.861 200.927 353.979 200.629C355.201 200.322 356.469 200.151 357.739 200.163" fill="#407BFF"/>
<path d="M350.55 202.401C350.486 202.383 350.425 202.351 350.371 202.306C350.159 202.129 350.128 201.817 350.303 201.605C350.342 201.558 350.391 201.518 350.446 201.486C350.466 201.473 350.486 201.462 350.507 201.451V201.449C351.545 200.898 352.669 200.46 353.849 200.144C355.172 199.812 356.479 199.65 357.742 199.661C358.016 199.663 358.24 199.889 358.237 200.165C358.235 200.441 358.009 200.663 357.733 200.66C356.555 200.65 355.333 200.801 354.1 201.111C353 201.405 351.947 201.816 350.976 202.331C350.971 202.333 350.967 202.335 350.962 202.338C350.84 202.419 350.688 202.441 350.55 202.401Z" fill="#407BFF"/>
<path d="M347.16 210.609C347.052 210.578 346.954 210.511 346.886 210.41L344.425 206.795C344.27 206.567 344.329 206.256 344.557 206.1C344.784 205.946 345.096 206.003 345.252 206.232L347.713 209.848C347.868 210.076 347.809 210.387 347.581 210.543C347.453 210.629 347.298 210.649 347.16 210.609Z" fill="#407BFF"/>
<path d="M340.93 253.956C340.673 253.882 340.53 253.58 340.594 253.317L340.597 253.306C341.008 252.387 341.472 251.601 342.008 250.879C342.77 249.811 343.696 248.855 344.755 248.046C345.527 247.453 346.382 246.937 347.296 246.513C347.545 246.397 347.844 246.505 347.96 246.756C348.076 247.007 347.967 247.303 347.717 247.42C346.871 247.813 346.08 248.29 345.364 248.84C344.383 249.589 343.527 250.473 342.817 251.468C342.317 252.142 341.888 252.867 341.538 253.633C341.473 253.901 341.217 254.026 340.949 253.961C340.942 253.96 340.936 253.958 340.93 253.956Z" fill="#407BFF"/>
<path d="M341.314 263.395C341.13 263.342 340.985 263.185 340.957 262.984C340.64 260.705 339.317 258.57 337.417 257.273C337.189 257.117 337.131 256.806 337.286 256.578C337.442 256.35 337.753 256.29 337.981 256.447C340.11 257.9 341.593 260.293 341.948 262.846C341.986 263.12 341.795 263.372 341.522 263.41C341.449 263.419 341.379 263.414 341.314 263.395Z" fill="#407BFF"/>
<path d="M336.288 308.265C335.541 306.739 335.914 301.705 336.114 299.001C336.162 298.354 336.203 297.803 336.223 297.403" fill="#407BFF"/>
<path d="M336.15 308.745C336.019 308.707 335.904 308.616 335.839 308.485C335.095 306.965 335.333 302.774 335.615 298.966C335.663 298.322 335.703 297.776 335.723 297.379C335.736 297.103 335.971 296.89 336.246 296.904C336.522 296.911 336.735 297.152 336.721 297.427C336.702 297.83 336.661 298.386 336.612 299.038C336.43 301.507 336.05 306.641 336.737 308.045C336.858 308.294 336.756 308.593 336.508 308.714C336.392 308.77 336.265 308.778 336.15 308.745Z" fill="#407BFF"/>
<path d="M341.044 244.012C340.794 243.94 340.639 243.686 340.694 243.429C340.863 242.627 344.977 223.758 357.33 219.302C357.59 219.208 357.877 219.343 357.97 219.603C358.064 219.863 357.929 220.149 357.669 220.243C345.842 224.51 341.712 243.445 341.672 243.636C341.615 243.906 341.35 244.079 341.08 244.021C341.068 244.018 341.056 244.015 341.044 244.012Z" fill="#407BFF"/>
<path d="M330.27 284.53C327.804 288.675 335.396 299.536 335.396 299.536C335.396 299.536 348.563 301.027 351.029 296.882C353.495 292.737 352.03 284.625 346.298 281.214C340.565 277.803 332.736 280.385 330.27 284.53Z" fill="#407BFF"/>
<path d="M332.696 227.579C332.771 232.632 341.096 238.221 341.096 238.221C341.096 238.221 349.251 232.388 349.177 227.334C349.102 222.281 345.316 215.817 340.765 215.885C336.214 215.952 332.621 222.525 332.696 227.579Z" fill="#407BFF"/>
<path d="M353.111 248.64C351.68 249.247 350.207 249.864 348.653 249.907C347.099 249.95 345.424 249.289 344.708 247.909C343.821 246.198 344.68 244.087 345.867 242.568C348.217 239.559 355.26 235.191 359.207 237.886C364.905 241.778 356.41 247.24 353.111 248.64Z" fill="#407BFF"/>
<path d="M338.192 254.15C338.768 255.369 339.331 256.865 338.583 257.987C337.92 258.982 336.458 259.159 335.35 258.707C334.243 258.255 333.408 257.333 332.613 256.439C330.77 254.366 327.011 250.043 330.638 247.726C334.409 245.318 336.978 251.582 338.192 254.15Z" fill="#407BFF"/>
<path d="M367.094 215.688C368.016 216.022 368.823 216.888 368.757 217.866C368.68 219.01 367.537 219.751 366.49 220.218C363.882 221.381 356.169 224.357 355.76 219.589C355.374 215.084 364.251 214.659 367.094 215.688Z" fill="#407BFF"/>
<path d="M358.42 198.232C359.752 198.691 361.232 198.526 362.578 198.942C363.924 199.359 365.175 200.825 364.548 202.087C363.969 203.253 362.335 203.296 361.052 203.07C358.864 202.685 356.727 202.009 354.715 201.067C354.248 200.848 353.748 200.573 353.567 200.091C353.211 199.143 354.354 198.265 355.364 198.204C356.374 198.143 357.412 198.496 358.384 198.214L358.42 198.232Z" fill="#407BFF"/>
<path d="M342.829 204.394C341.45 204.102 340.267 203.2 338.898 202.865C337.53 202.53 335.703 203.144 335.591 204.549C335.487 205.847 336.867 206.724 338.083 207.19C340.158 207.985 342.338 208.505 344.548 208.732C345.061 208.785 345.631 208.806 346.035 208.485C346.827 207.856 346.299 206.515 345.465 205.943C344.63 205.371 343.558 205.139 342.87 204.398L342.829 204.394Z" fill="#407BFF"/>
<path d="M349.796 203.612C349.785 203.609 349.773 203.605 349.762 203.601C349.503 203.506 349.37 203.219 349.465 202.96C350.409 200.383 350.856 197.775 350.401 197.488C350.168 197.34 350.098 197.032 350.246 196.798C350.393 196.565 350.7 196.492 350.936 196.643C352.337 197.528 351.03 201.596 350.404 203.304C350.312 203.552 350.046 203.684 349.796 203.612Z" fill="#407BFF"/>
<path d="M352.47 197.699C352.092 195.643 351.667 193.485 350.312 191.893C348.958 190.301 346.347 189.575 344.753 190.928C342.972 192.44 343.636 195.554 345.449 197.028C347.262 198.502 349.736 198.788 352.061 199.016C352.16 198.686 352.259 198.357 352.358 198.027L352.47 197.699Z" fill="#407BFF"/>
<path d="M174.045 338.474C174.032 338.476 174.018 338.477 174.004 338.478C173.729 338.5 173.488 338.294 173.467 338.019C169.438 286.141 194.45 259.677 194.703 259.416C194.896 259.219 195.212 259.213 195.41 259.405C195.608 259.597 195.614 259.913 195.421 260.112C195.171 260.371 170.472 286.54 174.464 337.941C174.484 338.203 174.299 338.433 174.045 338.474Z" fill="#407BFF"/>
<path d="M189.485 267.79C189.284 267.822 189.076 267.729 188.97 267.542C188.835 267.301 188.919 266.997 189.16 266.861C189.329 266.765 193.395 264.515 200.816 264.59C201.092 264.593 201.314 264.819 201.311 265.095C201.308 265.371 201.082 265.595 200.806 265.59C193.675 265.52 189.69 267.711 189.651 267.731C189.598 267.762 189.542 267.78 189.485 267.79Z" fill="#407BFF"/>
<path d="M185.335 275.027C185.074 275.069 184.823 274.899 184.767 274.637C181.527 259.356 187.977 245.604 188.042 245.466C188.16 245.217 188.46 245.112 188.708 245.231C188.957 245.35 189.063 245.649 188.944 245.898C188.88 246.032 182.577 259.491 185.745 274.43C185.802 274.7 185.63 274.966 185.36 275.023C185.352 275.024 185.344 275.026 185.335 275.027Z" fill="#407BFF"/>
<path d="M179.265 289.739C179.141 289.759 179.009 289.732 178.898 289.653C178.673 289.494 178.619 289.182 178.778 288.956C178.831 288.881 184.17 281.49 193.383 282.835C193.656 282.875 193.845 283.129 193.805 283.403C193.765 283.675 193.512 283.866 193.238 283.826C184.623 282.566 179.643 289.464 179.594 289.534C179.513 289.648 179.393 289.719 179.265 289.739Z" fill="#407BFF"/>
<path d="M176.549 299.696C176.365 299.725 176.171 299.649 176.059 299.485C175.856 299.191 171.089 292.141 170.647 280.816C170.637 280.541 170.841 280.305 171.127 280.297C171.402 280.286 171.635 280.501 171.646 280.777C172.076 291.797 176.834 298.85 176.882 298.919C177.038 299.146 176.98 299.458 176.753 299.614C176.69 299.658 176.62 299.684 176.549 299.696Z" fill="#407BFF"/>
<path d="M178.99 361.104C178.733 361.145 178.485 360.981 178.425 360.724L173.984 342.857C163.111 298.648 126.407 274.492 126.038 274.254C125.806 274.104 125.739 273.794 125.889 273.563C126.04 273.331 126.349 273.265 126.58 273.414C126.953 273.655 163.985 298.013 174.956 342.624L179.398 360.496C179.461 360.765 179.294 361.033 179.026 361.097C179.014 361.1 179.002 361.102 178.99 361.104Z" fill="#407BFF"/>
<path d="M142.032 288.459C142.005 288.463 141.978 288.466 141.949 288.465C141.905 288.465 141.847 288.454 141.795 288.439L141.624 288.407C137.285 287.552 132.637 287.591 128.538 288.512C128.265 288.581 128.001 288.404 127.94 288.134C127.879 287.865 128.049 287.597 128.318 287.537C132.551 286.588 137.344 286.545 141.818 287.426L141.994 287.46C142.025 287.465 142.056 287.473 142.086 287.483C142.298 287.542 142.453 287.738 142.452 287.969C142.451 288.217 142.269 288.421 142.032 288.459Z" fill="#407BFF"/>
<path d="M147.516 293.329C147.508 293.33 147.5 293.332 147.491 293.332C147.216 293.363 146.97 293.164 146.939 292.89C145.468 279.49 136.467 270.038 136.377 269.944C136.185 269.746 136.191 269.429 136.389 269.237C136.589 269.045 136.905 269.051 137.096 269.249C137.189 269.345 146.424 279.032 147.934 292.781C147.963 293.047 147.777 293.287 147.516 293.329Z" fill="#407BFF"/>
<path d="M153.517 300.052C153.397 300.071 153.269 300.046 153.16 299.973C153.1 299.932 147.145 296.033 140.267 299.436C140.019 299.561 139.719 299.456 139.597 299.21C139.474 298.963 139.576 298.662 139.823 298.54C147.236 294.868 153.457 298.968 153.718 299.144C153.947 299.298 154.007 299.608 153.853 299.837C153.773 299.957 153.65 300.031 153.517 300.052Z" fill="#407BFF"/>
<path d="M161.718 311.473C161.647 311.484 161.573 311.48 161.5 311.459C161.235 311.382 161.083 311.104 161.159 310.84C161.18 310.767 163.218 303.509 160.536 294.173C160.46 293.907 160.613 293.631 160.878 293.555C161.143 293.467 161.42 293.632 161.496 293.897C164.263 303.526 162.207 310.812 162.119 311.118C162.063 311.311 161.903 311.444 161.718 311.473Z" fill="#407BFF"/>
<path d="M166.99 320.324C160.818 321.711 149.057 318.125 143.755 313.378C138.376 308.561 150.957 309.656 148.825 305.445C146.693 301.234 132.747 307.526 128.74 301.689C124.733 295.853 135.583 295.161 134.496 291.981C133.409 288.801 122.615 291.703 117.715 285.631C112.815 279.558 123.208 281.394 121.123 278.888C119.037 276.383 104.561 267.004 109.098 263.501C113.635 259.999 127.458 270.023 131.525 270.625C135.591 271.227 134.731 262.523 140.49 265.591C146.25 268.659 146.213 287.23 152.491 288.393C157.167 289.259 153.66 281.478 159.052 282.519C168.493 284.341 169.496 319.76 166.99 320.324Z" fill="#407BFF"/>
<g opacity="0.4">
<path d="M166.99 320.324C160.818 321.711 149.057 318.125 143.755 313.378C138.376 308.561 150.957 309.656 148.825 305.445C146.693 301.234 132.747 307.526 128.74 301.689C124.733 295.853 135.583 295.161 134.496 291.981C133.409 288.801 122.615 291.703 117.715 285.631C112.815 279.558 123.208 281.394 121.123 278.888C119.037 276.383 104.561 267.004 109.098 263.501C113.635 259.999 127.458 270.023 131.525 270.625C135.591 271.227 134.731 262.523 140.49 265.591C146.25 268.659 146.213 287.23 152.491 288.393C157.167 289.259 153.66 281.478 159.052 282.519C168.493 284.341 169.496 319.76 166.99 320.324Z" fill="white"/>
</g>
<path d="M174.021 339.685C174.001 339.688 173.98 339.69 173.959 339.691C173.683 339.7 173.452 339.484 173.442 339.208C173.437 339.117 173.348 338.143 173.157 336.467C172.89 333.957 172.264 328.713 171.076 321.748C171.062 321.622 171.044 321.54 171.026 321.448C169.689 313.669 168.048 306.066 166.147 298.836C164.378 292.093 162.351 285.595 160.122 279.521C158.092 274.026 155.89 268.863 153.577 264.175C153.57 264.162 153.562 264.149 153.556 264.135L153.555 264.136C153.191 263.401 152.816 262.668 152.44 261.935C152.129 261.341 151.816 260.743 151.492 260.147C150.658 258.601 149.89 257.118 149.208 255.737C147.694 252.7 146.3 249.647 145.065 246.667C144.316 244.879 143.622 243.113 143.006 241.419C140.566 234.801 138.72 228.149 137.519 221.648C137.027 218.998 136.642 216.335 136.374 213.736C136.083 210.901 135.941 208.139 135.952 205.528C135.956 205.331 135.955 205.151 135.954 204.977L135.957 204.719C135.94 204.599 135.967 204.473 136.041 204.365C136.198 204.138 136.509 204.081 136.737 204.238C136.886 204.341 136.966 204.526 136.956 204.705H136.958L136.954 204.969C136.955 205.152 136.957 205.341 136.952 205.538C136.942 208.106 137.082 210.832 137.368 213.631C137.633 216.203 138.015 218.839 138.502 221.463C139.692 227.909 141.523 234.506 143.944 241.073C144.556 242.753 145.243 244.505 145.987 246.28C147.214 249.241 148.598 252.273 150.103 255.291C150.781 256.664 151.543 258.136 152.371 259.67C152.696 260.269 153.013 260.872 153.328 261.475C153.705 262.212 154.08 262.945 154.445 263.681C154.453 263.695 154.46 263.709 154.467 263.723H154.468C156.799 268.444 159.017 273.644 161.06 279.176C163.301 285.281 165.337 291.809 167.114 298.583C169.022 305.841 170.669 313.473 172.009 321.264C172.032 321.373 172.054 321.486 172.067 321.614C173.255 328.572 173.884 333.841 174.152 336.359C174.346 338.066 174.439 339.086 174.442 339.177C174.45 339.43 174.267 339.646 174.021 339.685Z" fill="#407BFF"/>
<path d="M136.452 204.816C136.458 204.792 136.458 204.792 136.469 204.79C136.475 204.766 136.475 204.766 136.486 204.764C137.186 203.832 137.994 202.989 138.879 202.245C139.854 201.448 140.93 200.754 142.084 200.225" fill="#407BFF"/>
<path d="M136.529 205.307C136.463 205.317 136.395 205.315 136.327 205.297C136.06 205.227 135.899 204.958 135.968 204.692C135.983 204.633 136.011 204.575 136.047 204.523C136.059 204.503 136.073 204.484 136.088 204.466L136.087 204.465C136.792 203.525 137.623 202.65 138.558 201.863C139.614 201 140.729 200.297 141.876 199.771C142.125 199.656 142.424 199.766 142.539 200.017C142.654 200.268 142.544 200.565 142.293 200.68C141.223 201.172 140.181 201.828 139.196 202.633C138.326 203.366 137.547 204.187 136.887 205.066C136.884 205.07 136.881 205.074 136.877 205.078C136.8 205.2 136.672 205.284 136.529 205.307Z" fill="#407BFF"/>
<path d="M136.951 214.177C136.84 214.195 136.723 214.175 136.618 214.113L132.854 211.887C132.616 211.746 132.538 211.44 132.678 211.202C132.818 210.966 133.124 210.885 133.363 211.026L137.127 213.252C137.365 213.393 137.443 213.699 137.303 213.937C137.225 214.071 137.093 214.154 136.951 214.177Z" fill="#407BFF"/>
<path d="M149.743 256.06C149.479 256.102 149.221 255.89 149.167 255.625L149.165 255.614C149.146 254.607 149.232 253.698 149.41 252.817C149.645 251.527 150.077 250.268 150.692 249.085C151.139 248.22 151.693 247.389 152.34 246.617C152.516 246.406 152.833 246.377 153.044 246.555C153.256 246.732 153.283 247.047 153.106 247.259C152.507 247.974 151.994 248.743 151.58 249.544C151.01 250.639 150.611 251.803 150.392 253.005C150.226 253.828 150.146 254.666 150.155 255.509C150.21 255.78 150.032 256.001 149.761 256.057C149.755 256.058 149.749 256.059 149.743 256.06Z" fill="#407BFF"/>
<path d="M154.104 264.439C153.915 264.469 153.717 264.389 153.606 264.218C152.35 262.29 150.245 260.92 147.974 260.554C147.701 260.51 147.516 260.253 147.56 259.981C147.604 259.708 147.86 259.522 148.133 259.567C150.678 259.977 153.037 261.512 154.444 263.672C154.595 263.904 154.529 264.213 154.298 264.364C154.237 264.404 154.171 264.428 154.104 264.439Z" fill="#407BFF"/>
<path d="M168.633 307.188C167.308 306.124 165.505 301.409 164.536 298.877C164.305 298.271 164.107 297.755 163.955 297.384" fill="#407BFF"/>
<path d="M168.712 307.682C168.577 307.703 168.435 307.67 168.32 307.578C167 306.519 165.434 302.624 164.07 299.057C163.84 298.454 163.644 297.942 163.493 297.575C163.388 297.32 163.509 297.028 163.765 296.923C164.018 296.811 164.313 296.939 164.418 297.195C164.572 297.568 164.771 298.089 165.004 298.7C165.889 301.012 167.728 305.821 168.947 306.799C169.163 306.972 169.197 307.287 169.024 307.502C168.942 307.601 168.83 307.663 168.712 307.682Z" fill="#407BFF"/>
<path d="M145.618 247.01C145.362 247.051 145.113 246.887 145.053 246.631C144.865 245.834 140.566 227.006 149.852 217.72C150.048 217.525 150.364 217.525 150.559 217.72C150.754 217.915 150.754 218.232 150.559 218.427C141.668 227.318 145.982 246.212 146.026 246.402C146.089 246.67 145.922 246.94 145.654 247.003C145.642 247.006 145.63 247.008 145.618 247.01Z" fill="#407BFF"/>
<path d="M153.094 288.265C152.624 293.065 164.114 299.667 164.114 299.667C164.114 299.667 176.665 295.418 177.135 290.618C177.605 285.817 172.829 279.098 166.191 278.449C159.551 277.799 153.564 283.464 153.094 288.265Z" fill="#407BFF"/>
<path d="M131.075 235.686C133.292 240.228 143.203 241.746 143.203 241.746C143.203 241.746 148.104 232.998 145.888 228.457C143.672 223.915 137.496 219.675 133.406 221.671C129.315 223.668 128.859 231.144 131.075 235.686Z" fill="#407BFF"/>
<path d="M158.507 246.069C157.47 247.227 156.399 248.411 155.011 249.112C153.623 249.812 151.825 249.926 150.591 248.981C149.061 247.809 148.941 245.533 149.369 243.654C150.217 239.931 154.734 232.983 159.453 233.745C166.264 234.843 160.898 243.399 158.507 246.069Z" fill="#407BFF"/>
<path d="M147.348 257.399C148.388 258.257 149.534 259.372 149.334 260.705C149.157 261.888 147.909 262.669 146.714 262.731C145.52 262.793 144.372 262.313 143.273 261.842C140.723 260.75 135.483 258.436 137.781 254.796C140.168 251.014 145.156 255.591 147.348 257.399Z" fill="#407BFF"/>
<path d="M157.153 210.298C158.13 210.208 159.228 210.649 159.585 211.562C160.002 212.63 159.282 213.787 158.533 214.654C156.667 216.816 150.951 222.789 148.554 218.647C146.288 214.735 154.143 210.576 157.153 210.298Z" fill="#407BFF"/>
<path d="M141.88 198.187C143.281 198.036 144.55 197.257 145.945 197.062C147.341 196.867 149.096 197.662 149.066 199.071C149.038 200.373 147.577 201.106 146.32 201.447C144.176 202.029 141.955 202.326 139.733 202.329C139.217 202.33 138.648 202.293 138.279 201.933C137.554 201.227 138.215 199.946 139.103 199.461C139.991 198.977 141.081 198.854 141.841 198.186L141.88 198.187Z" fill="#407BFF"/>
<path d="M130.389 210.393C129.017 210.715 127.562 210.401 126.181 210.68C124.8 210.959 123.407 212.291 123.903 213.61C124.361 214.829 125.983 215.036 127.282 214.941C129.498 214.778 131.692 214.322 133.789 213.588C134.276 213.417 134.801 213.195 135.03 212.733C135.48 211.827 134.432 210.837 133.433 210.674C132.434 210.511 131.365 210.757 130.427 210.379L130.389 210.393Z" fill="#407BFF"/>
<path d="M136.362 206.723C136.35 206.725 136.338 206.726 136.326 206.727C136.051 206.752 135.809 206.548 135.785 206.273C135.544 203.539 134.839 200.989 134.305 200.922C134.031 200.887 133.837 200.638 133.871 200.364C133.906 200.091 134.152 199.894 134.429 199.93C136.073 200.136 136.621 204.373 136.78 206.185C136.804 206.449 136.619 206.682 136.362 206.723Z" fill="#407BFF"/>
<path d="M136.268 200.234C135.052 198.534 133.749 196.761 131.846 195.896C129.943 195.031 127.271 195.484 126.404 197.386C125.435 199.512 127.359 202.048 129.627 202.611C131.895 203.174 134.255 202.382 136.457 201.599C136.406 201.259 136.356 200.918 136.305 200.578L136.268 200.234Z" fill="#407BFF"/>
<path d="M315.302 360.666H336.222C339.342 356.096 342.072 350.616 343.302 344.446C343.882 341.566 344.102 338.696 344.052 335.896C343.972 331.296 343.172 326.916 342.092 323.026C339.562 313.836 335.432 307.386 335.432 307.386C335.432 307.386 317.682 319.726 313.902 338.576C312.312 346.476 313.452 354.286 315.302 360.666Z" fill="#407BFF"/>
<path opacity="0.2" d="M315.302 360.666H336.222C339.342 356.096 342.072 350.616 343.302 344.446C343.882 341.566 344.102 338.696 344.052 335.896C343.972 331.296 343.172 326.916 342.092 323.026C339.562 313.836 335.432 307.386 335.432 307.386C335.432 307.386 317.682 319.726 313.902 338.576C312.312 346.476 313.452 354.286 315.302 360.666Z" fill="black"/>
<path d="M320.852 360.666H345.302C347.482 358.476 349.492 355.976 351.142 353.126C360.342 337.356 355.412 317.116 355.412 317.116C355.412 317.116 349.182 318.776 342.092 323.026C338.782 325.026 335.272 327.576 332.132 330.786C329.992 332.946 328.052 335.406 326.412 338.196C322.142 345.546 320.922 353.876 320.852 360.666Z" fill="#407BFF"/>
<g opacity="0.2">
<path d="M320.852 360.666H345.302C347.482 358.476 349.492 355.976 351.142 353.126C360.342 337.356 355.412 317.116 355.412 317.116C355.412 317.116 349.182 318.776 342.092 323.026C338.782 325.026 335.272 327.576 332.132 330.786C329.992 332.946 328.052 335.406 326.412 338.196C322.142 345.546 320.922 353.876 320.852 360.666Z" fill="white"/>
</g>
<path d="M250.27 252.402C249.994 252.402 249.771 252.178 249.77 251.903L249.53 95.578C249.529 95.302 249.753 95.078 250.029 95.077C250.305 95.077 250.529 95.3 250.53 95.576L250.77 251.901C250.771 252.177 250.546 252.402 250.27 252.402Z" fill="#263238"/>
<path d="M250.024 91.4939C249.748 91.4939 249.525 91.2709 249.524 90.9949L249.518 88.0349C249.518 87.7589 249.741 87.5339 250.017 87.5339C250.333 87.5329 250.518 87.7569 250.518 88.0329L250.524 90.9929C250.525 91.2689 250.3 91.4929 250.024 91.4939Z" fill="#263238"/>
<path d="M250.014 85.274C249.738 85.274 249.514 85.051 249.514 84.775L249.5 75.528C249.499 75.252 249.723 75.028 249.999 75.027C250 75.027 250 75.027 250 75.027C250.276 75.027 250.499 75.25 250.5 75.526L250.514 84.773C250.515 85.05 250.291 85.274 250.014 85.274Z" fill="#263238"/>
<path d="M250.27 252.402C250.066 252.402 249.875 252.277 249.8 252.074L209.837 143C209.742 142.741 209.875 142.454 210.134 142.359C210.393 142.264 210.681 142.397 210.775 142.656L250.74 251.73C250.835 251.989 250.702 252.276 250.442 252.372C250.386 252.393 250.328 252.402 250.27 252.402Z" fill="#263238"/>
<path d="M210.306 143.328C210.102 143.328 209.91 143.203 209.836 143L207.94 137.824C207.845 137.565 207.979 137.278 208.238 137.182C208.497 137.089 208.784 137.221 208.88 137.48L210.776 142.656C210.871 142.915 210.737 143.202 210.478 143.298C210.421 143.318 210.363 143.328 210.306 143.328Z" fill="#263238"/>
<path d="M205.7 130.756C205.496 130.756 205.305 130.63 205.231 130.428L191.127 91.936C191.032 91.677 191.165 91.39 191.424 91.295C191.683 91.199 191.971 91.333 192.065 91.592L206.169 130.084C206.264 130.343 206.131 130.63 205.872 130.725C205.815 130.746 205.757 130.756 205.7 130.756Z" fill="#263238"/>
<path d="M250.271 252.402C250.128 252.402 249.987 252.341 249.888 252.224L158.363 143.685C158.185 143.474 158.212 143.159 158.423 142.981C158.634 142.802 158.949 142.83 159.127 143.041L250.652 251.58C250.83 251.791 250.803 252.106 250.592 252.284C250.499 252.363 250.385 252.402 250.271 252.402Z" fill="#263238"/>
<path d="M153.134 137.208C152.991 137.208 152.85 137.147 152.751 137.03L139.855 121.737C139.677 121.526 139.704 121.211 139.915 121.032C140.127 120.854 140.441 120.882 140.62 121.092L153.516 136.385C153.694 136.596 153.667 136.911 153.456 137.09C153.362 137.17 153.248 137.208 153.134 137.208Z" fill="#263238"/>
<path d="M319.389 170.03C319.276 170.03 319.162 169.991 319.068 169.913C318.857 169.736 318.829 169.42 319.006 169.209L359.379 121.095C359.556 120.884 359.871 120.856 360.083 121.034C360.294 121.211 360.322 121.527 360.144 121.738L319.772 169.852C319.674 169.969 319.532 170.03 319.389 170.03Z" fill="#263238"/>
<path d="M310.401 180.741C310.288 180.741 310.174 180.703 310.08 180.624C309.869 180.446 309.841 180.132 310.018 179.92L314.698 174.343C314.875 174.132 315.19 174.104 315.402 174.281C315.613 174.458 315.641 174.774 315.464 174.985L310.784 180.562C310.686 180.681 310.544 180.741 310.401 180.741Z" fill="#263238"/>
<path d="M250.27 252.402C250.157 252.402 250.043 252.364 249.949 252.285C249.738 252.107 249.71 251.793 249.887 251.581L305.99 184.722C306.167 184.51 306.482 184.483 306.694 184.661C306.905 184.839 306.933 185.153 306.756 185.365L250.653 252.224C250.555 252.342 250.413 252.402 250.27 252.402Z" fill="#263238"/>
<path d="M302.263 109.179C302.206 109.179 302.149 109.169 302.093 109.149C301.833 109.055 301.699 108.768 301.793 108.508L307.934 91.593C308.029 91.333 308.317 91.203 308.575 91.293C308.835 91.387 308.969 91.674 308.875 91.934L302.734 108.849C302.659 109.053 302.467 109.179 302.263 109.179Z" fill="#263238"/>
<path d="M250.27 252.402C250.213 252.402 250.156 252.392 250.1 252.372C249.84 252.278 249.706 251.991 249.8 251.731L299.514 114.784C299.609 114.524 299.896 114.392 300.155 114.484C300.415 114.578 300.549 114.865 300.455 115.125L250.741 252.073C250.667 252.276 250.475 252.402 250.27 252.402Z" fill="#263238"/>
<path d="M183.142 332.396C183.142 332.396 190.746 330.495 194.548 335.01C198.35 339.525 194.548 343.327 194.548 343.327L180.873 360.833C180.269 361.564 179.371 361.987 178.423 361.987H174.299C171.897 361.987 170.363 359.425 171.499 357.308L183.142 332.396Z" fill="#263238"/>
<path d="M319.672 336.104C354.261 300.912 353.786 244.356 318.61 209.782C283.434 175.207 226.878 175.708 192.289 210.9C157.699 246.091 158.174 302.648 193.35 337.222C228.526 371.796 285.082 371.295 319.672 336.104Z" fill="#407BFF"/>
<g opacity="0.6">
<path d="M319.672 336.104C354.261 300.912 353.786 244.356 318.61 209.782C283.434 175.207 226.878 175.708 192.289 210.9C157.699 246.091 158.174 302.648 193.35 337.222C228.526 371.796 285.082 371.295 319.672 336.104Z" fill="black"/>
</g>
<path d="M324.112 286.788C331.448 238.003 297.847 192.508 249.062 185.172C200.277 177.836 154.783 211.438 147.447 260.223C140.111 309.008 173.712 354.503 222.497 361.839C271.281 369.175 316.776 335.573 324.112 286.788Z" fill="#407BFF"/>
<path opacity="0.8" d="M234.689 345.191C274.278 345.191 306.372 313.097 306.372 273.508C306.372 233.919 274.278 201.825 234.689 201.825C195.1 201.825 163.006 233.919 163.006 273.508C163.006 313.097 195.1 345.191 234.689 345.191Z" fill="white"/>
<path d="M231.674 270.625L200.83 299.654L203.825 302.837L231.768 276.538L281.853 320.786L284.745 317.514L231.674 270.625Z" fill="#263238"/>
<path d="M239.776 277.256C239.776 281.271 236.521 284.525 232.507 284.525C228.493 284.525 225.238 281.271 225.238 277.256C225.238 273.242 228.493 269.988 232.507 269.988C236.521 269.988 239.776 273.242 239.776 277.256Z" fill="#407BFF"/>
<path d="M315.826 332.396C315.826 332.396 308.222 330.495 304.42 335.01C300.618 339.525 304.42 343.327 304.42 343.327L318.095 360.833C318.699 361.564 319.597 361.987 320.545 361.987H324.669C327.071 361.987 328.605 359.425 327.469 357.308L315.826 332.396Z" fill="#263238"/>
<path d="M386.16 109.37C385.016 110.214 383.934 110.786 382.991 111.173C380.614 112.15 378.691 112.151 377.961 112.105C375.681 111.482 373.482 110.414 371.492 108.885C369.281 107.186 367.555 105.091 366.334 102.777C366.436 102.873 366.541 102.97 366.65 103.066C366.895 103.285 367.153 103.498 367.422 103.704C368.786 104.752 370.449 105.651 372.379 106.384C375.243 107.47 378.712 108.192 382.688 108.527C383.449 108.663 384.861 108.968 386.16 109.37Z" fill="#407BFF"/>
<path d="M389.915 111.887C387.149 112.895 384.174 113.242 381.247 112.892C382.003 112.745 382.864 112.506 383.794 112.128C385.114 111.591 386.382 110.85 387.58 109.913C388.451 110.231 389.175 110.591 389.465 110.967C389.743 111.327 389.87 111.635 389.915 111.887Z" fill="#407BFF"/>
<path d="M396.569 107.649C394.849 109.295 392.87 110.56 390.751 111.428C390.669 111.092 390.497 110.721 390.192 110.327C389.862 109.901 389.182 109.519 388.377 109.19C388.655 108.952 388.929 108.703 389.198 108.443C389.816 107.847 390.412 107.194 390.985 106.487C393.255 107.371 395.165 107.773 396.569 107.649Z" fill="#407BFF"/>
<path d="M398.633 105.352C398.289 105.8 397.928 106.229 397.552 106.637L397.526 106.572C396.587 106.938 395.061 106.822 393.117 106.237C392.636 106.092 392.131 105.919 391.607 105.719C392.416 104.651 393.175 103.47 393.879 102.181C395.037 102.513 396.549 102.753 398.177 101.919C399.742 101.118 401.115 99.45 402.273 96.948C401.793 99.913 400.591 102.804 398.633 105.352Z" fill="#407BFF"/>
<path d="M398.135 100.857C396.802 101.539 395.573 101.393 394.522 101.108C394.653 100.857 394.781 100.601 394.907 100.341C396.68 96.6999 397.73 93.1929 398.027 89.9149C398.266 87.2809 398.022 84.7879 397.3 82.5079C396.791 80.8949 396.12 79.6229 395.502 78.6799C398.926 81.3179 401.187 84.9079 402.197 88.7919C403.051 92.0749 402.585 95.6209 400.68 98.4269C399.902 99.5749 399.052 100.387 398.135 100.857Z" fill="#407BFF"/>
<path d="M393.473 100.593C391.792 99.784 390.244 97.286 389.677 95.706C384.363 80.892 381.006 76.357 379.209 75.064C383.815 73.926 388.814 74.538 393.119 77.043C393.623 77.542 395.283 79.359 396.266 82.503C397.342 85.944 397.805 91.729 393.899 99.75C393.757 100.038 393.616 100.319 393.473 100.593Z" fill="#407BFF"/>
<path d="M390.577 105.129C389.236 104.577 387.788 103.869 386.294 103.03C381.299 100.228 376.42 96.359 373.242 92.681C369.911 88.826 368.594 86.239 368.075 84.748C367.887 84.207 367.788 83.769 367.74 83.426C368.008 83.013 368.295 82.607 368.601 82.21C371.059 79.012 374.345 76.826 377.927 75.723C378.296 75.83 379.077 76.264 380.3 77.938C382.692 81.213 385.53 87.4 388.732 96.327C389.263 97.807 390.53 99.924 392.053 101.094C392.319 101.298 392.592 101.474 392.871 101.612C392.128 102.958 391.356 104.122 390.577 105.129Z" fill="#407BFF"/>
<path d="M389.909 105.982C389.007 107.071 388.1 107.957 387.22 108.679C385.474 108.084 383.505 107.717 383.162 107.656L383.127 107.652C374.336 106.913 369.806 104.4 367.552 102.421C366.673 101.649 366.064 100.897 365.645 100.251C363.824 95.2011 364.206 89.4601 366.994 84.5911C367.035 84.7471 367.085 84.9111 367.142 85.0851C367.895 87.3691 369.698 90.1711 372.499 93.4131C374.272 95.4651 376.564 97.5741 379.109 99.5301C381.2 101.137 383.462 102.641 385.747 103.923C387.223 104.75 388.618 105.439 389.909 105.982Z" fill="#407BFF"/>
<g opacity="0.4">
<path opacity="0.7" d="M389.915 111.887C387.149 112.895 384.174 113.242 381.247 112.892C382.003 112.745 382.864 112.506 383.794 112.128C385.114 111.591 386.382 110.85 387.58 109.913C388.451 110.231 389.175 110.591 389.465 110.967C389.743 111.327 389.87 111.635 389.915 111.887Z" fill="white"/>
<path opacity="0.7" d="M396.569 107.649C394.849 109.295 392.87 110.56 390.751 111.428C390.669 111.092 390.497 110.721 390.192 110.327C389.862 109.901 389.182 109.519 388.377 109.19C388.655 108.952 388.929 108.703 389.198 108.443C389.816 107.847 390.412 107.194 390.985 106.487C393.255 107.371 395.165 107.773 396.569 107.649Z" fill="white"/>
<path opacity="0.7" d="M398.633 105.352C398.289 105.8 397.928 106.229 397.552 106.637L397.526 106.572C396.587 106.938 395.061 106.822 393.117 106.237C392.636 106.092 392.131 105.919 391.607 105.719C392.416 104.651 393.175 103.47 393.879 102.181C395.037 102.513 396.549 102.753 398.177 101.919C399.742 101.118 401.115 99.45 402.273 96.948C401.793 99.913 400.591 102.804 398.633 105.352Z" fill="white"/>
<path d="M398.135 100.857C396.802 101.539 395.573 101.393 394.522 101.108C394.653 100.857 394.781 100.601 394.907 100.341C396.68 96.6999 397.73 93.1929 398.027 89.9149C398.266 87.2809 398.022 84.7879 397.3 82.5079C396.791 80.8949 396.12 79.6229 395.502 78.6799C398.926 81.3179 401.187 84.9079 402.197 88.7919C403.051 92.0749 402.585 95.6209 400.68 98.4269C399.902 99.5749 399.052 100.387 398.135 100.857Z" fill="white"/>
<path opacity="0.7" d="M386.16 109.37C385.016 110.214 383.934 110.786 382.991 111.173C380.614 112.15 378.691 112.151 377.961 112.105C375.681 111.482 373.482 110.414 371.492 108.885C369.281 107.186 367.555 105.091 366.334 102.777C366.436 102.873 366.541 102.97 366.65 103.066C366.895 103.285 367.153 103.498 367.422 103.704C368.786 104.752 370.449 105.651 372.379 106.384C375.243 107.47 378.712 108.192 382.688 108.527C383.449 108.663 384.861 108.968 386.16 109.37Z" fill="white"/>
<path d="M393.473 100.593C391.792 99.784 390.244 97.286 389.677 95.706C384.363 80.892 381.006 76.357 379.209 75.064C383.815 73.926 388.814 74.538 393.119 77.043C393.623 77.542 395.283 79.359 396.266 82.503C397.342 85.944 397.805 91.729 393.899 99.75C393.757 100.038 393.616 100.319 393.473 100.593Z" fill="white"/>
<path d="M390.577 105.129C389.236 104.577 387.788 103.869 386.294 103.03C381.299 100.228 376.42 96.359 373.242 92.681C369.911 88.826 368.594 86.239 368.075 84.748C367.887 84.207 367.788 83.769 367.74 83.426C368.008 83.013 368.295 82.607 368.601 82.21C371.059 79.012 374.345 76.826 377.927 75.723C378.296 75.83 379.077 76.264 380.3 77.938C382.692 81.213 385.53 87.4 388.732 96.327C389.263 97.807 390.53 99.924 392.053 101.094C392.319 101.298 392.592 101.474 392.871 101.612C392.128 102.958 391.356 104.122 390.577 105.129Z" fill="white"/>
<path d="M389.909 105.982C389.007 107.071 388.1 107.957 387.22 108.679C385.474 108.084 383.505 107.717 383.162 107.656L383.127 107.652C374.336 106.913 369.806 104.4 367.552 102.421C366.673 101.649 366.064 100.897 365.645 100.251C363.824 95.2011 364.206 89.4601 366.994 84.5911C367.035 84.7471 367.085 84.9111 367.142 85.0851C367.895 87.3691 369.698 90.1711 372.499 93.4131C374.272 95.4651 376.564 97.5741 379.109 99.5301C381.2 101.137 383.462 102.641 385.747 103.923C387.223 104.75 388.618 105.439 389.909 105.982Z" fill="white"/>
</g>
<path d="M319.761 71.0411L310.982 78.2441L310.402 77.6651L319.273 70.3351L319.761 71.0411Z" fill="#407BFF"/>
<path d="M327.463 58.874C328.014 54.575 323.661 50.141 319.417 49.256C315.174 48.371 309.276 51.916 308.121 56.093C305.185 66.715 315.682 72.141 318.736 74.374C321.79 76.606 325.292 79.272 325.26 81.556C326.814 79.055 328.335 77.912 330.476 75.891C332.617 73.87 334.801 71.853 336.472 69.429C338.144 67.005 339.283 64.098 339.061 61.162C338.839 58.226 337.079 55.219 334.278 54.312C328.486 52.436 327.463 58.874 327.463 58.874Z" fill="#407BFF"/>
<g opacity="0.5">
<path d="M327.463 58.874C328.014 54.575 323.661 50.141 319.417 49.256C315.174 48.371 309.276 51.916 308.121 56.093C305.185 66.715 315.682 72.141 318.736 74.374C321.79 76.606 325.292 79.272 325.26 81.556C326.814 79.055 328.335 77.912 330.476 75.891C332.617 73.87 334.801 71.853 336.472 69.429C338.144 67.005 339.283 64.098 339.061 61.162C338.839 58.226 337.079 55.219 334.278 54.312C328.486 52.436 327.463 58.874 327.463 58.874Z" fill="white"/>
</g>
<path d="M341.147 54.3601L332.367 61.5621L331.788 60.9831L340.659 53.6531L341.147 54.3601Z" fill="#407BFF"/>
<path d="M338.145 51.944L342.591 57.13L345.61 49.735L338.145 51.944Z" fill="#407BFF"/>
<path d="M238.287 62.373C238.262 64.046 243.596 65.481 250.199 65.579C256.803 65.677 262.176 64.4 262.201 62.727C262.226 61.054 256.893 59.618 250.289 59.521C243.685 59.424 238.312 60.701 238.287 62.373Z" fill="#407BFF"/>
<path d="M238.336 59.3427L238.291 62.3724L262.205 62.7264L262.25 59.6967L238.336 59.3427Z" fill="#407BFF"/>
<path d="M238.332 59.344C238.307 61.017 243.641 62.453 250.245 62.55C256.849 62.648 262.222 61.371 262.247 59.698C262.272 58.025 256.939 56.59 250.335 56.492C243.73 56.395 238.357 57.671 238.332 59.344Z" fill="#407BFF"/>
<path opacity="0.4" d="M238.332 59.344C238.307 61.017 243.641 62.453 250.245 62.55C256.849 62.648 262.222 61.371 262.247 59.698C262.272 58.025 256.939 56.59 250.335 56.492C243.73 56.395 238.357 57.671 238.332 59.344Z" fill="white"/>
<path d="M239.854 59.25C239.853 59.348 239.894 59.466 239.964 59.545C240.735 58.541 245.086 57.843 250.311 57.92C255.55 57.998 259.879 58.824 260.606 59.851C260.678 59.774 260.723 59.657 260.724 59.559C260.741 58.426 256.087 57.42 250.32 57.334C244.567 57.249 239.871 58.117 239.854 59.25Z" fill="#407BFF"/>
<path opacity="0.4" d="M239.854 59.25C239.853 59.348 239.894 59.466 239.964 59.545C240.735 58.541 245.086 57.843 250.311 57.92C255.55 57.998 259.879 58.824 260.606 59.851C260.678 59.774 260.723 59.657 260.724 59.559C260.741 58.426 256.087 57.42 250.32 57.334C244.567 57.249 239.871 58.117 239.854 59.25Z" fill="#407BFF"/>
<path opacity="0.4" d="M239.964 59.545C240.705 60.572 245.034 61.398 250.258 61.475C255.497 61.552 259.848 60.855 260.605 59.851C259.878 58.824 255.549 57.998 250.31 57.92C245.086 57.843 240.735 58.54 239.964 59.545Z" fill="#407BFF"/>
<path d="M237.161 57.82C237.136 59.493 242.47 60.9281 249.073 61.0261C255.677 61.1241 261.05 59.8471 261.075 58.1741C261.1 56.5011 255.767 55.0651 249.163 54.9681C242.559 54.8701 237.186 56.147 237.161 57.82Z" fill="#407BFF"/>
<path d="M237.21 54.789L237.165 57.8187L261.08 58.1727L261.124 55.143L237.21 54.789Z" fill="#407BFF"/>
<path d="M237.206 54.791C237.181 56.464 242.515 57.9 249.119 57.997C255.723 58.095 261.096 56.818 261.121 55.145C261.146 53.472 255.813 52.037 249.209 51.939C242.604 51.841 237.23 53.118 237.206 54.791Z" fill="#407BFF"/>
<path opacity="0.4" d="M237.206 54.791C237.181 56.464 242.515 57.9 249.119 57.997C255.723 58.095 261.096 56.818 261.121 55.145C261.146 53.472 255.813 52.037 249.209 51.939C242.604 51.841 237.23 53.118 237.206 54.791Z" fill="white"/>
<path d="M238.728 54.697C238.727 54.795 238.768 54.913 238.838 54.992C239.609 53.988 243.96 53.29 249.185 53.367C254.425 53.445 258.753 54.271 259.48 55.297C259.553 55.22 259.597 55.103 259.598 55.005C259.615 53.872 254.961 52.866 249.194 52.78C243.441 52.696 238.744 53.564 238.728 54.697Z" fill="#407BFF"/>
<path opacity="0.4" d="M238.728 54.697C238.727 54.795 238.768 54.913 238.838 54.992C239.609 53.988 243.96 53.29 249.185 53.367C254.425 53.445 258.753 54.271 259.48 55.297C259.553 55.22 259.597 55.103 259.598 55.005C259.615 53.872 254.961 52.866 249.194 52.78C243.441 52.696 238.744 53.564 238.728 54.697Z" fill="#407BFF"/>
<path opacity="0.4" d="M238.838 54.992C239.579 56.019 243.908 56.845 249.132 56.922C254.371 56.999 258.722 56.302 259.479 55.297C258.752 54.27 254.424 53.444 249.184 53.367C243.96 53.289 239.609 53.987 238.838 54.992Z" fill="#407BFF"/>
<path d="M238.026 52.9311C238.001 54.6041 243.335 56.0391 249.938 56.1371C256.542 56.2351 261.915 54.9571 261.94 53.2851C261.965 51.6121 256.632 50.1771 250.028 50.0791C243.424 49.9811 238.051 51.2581 238.026 52.9311Z" fill="#407BFF"/>
<path d="M238.067 49.8963L238.022 52.926L261.936 53.28L261.981 50.2503L238.067 49.8963Z" fill="#407BFF"/>
<path d="M238.071 49.9021C238.046 51.5751 243.38 53.0101 249.984 53.1081C256.588 53.2061 261.961 51.9291 261.986 50.2561C262.011 48.5831 256.678 47.1481 250.074 47.0501C243.469 46.9521 238.095 48.2291 238.071 49.9021Z" fill="#407BFF"/>
<path opacity="0.4" d="M238.071 49.9021C238.046 51.5751 243.38 53.0101 249.984 53.1081C256.588 53.2061 261.961 51.9291 261.986 50.2561C262.011 48.5831 256.678 47.1481 250.074 47.0501C243.469 46.9521 238.095 48.2291 238.071 49.9021Z" fill="white"/>
<path d="M239.593 49.8081C239.591 49.9061 239.633 50.0241 239.703 50.1031C240.474 49.0981 244.825 48.4011 250.05 48.4781C255.29 48.5561 259.617 49.3821 260.345 50.4091C260.418 50.3321 260.462 50.2151 260.463 50.1171C260.48 48.9841 255.826 47.9781 250.058 47.8921C244.306 47.8071 239.61 48.6751 239.593 49.8081Z" fill="#407BFF"/>
<path opacity="0.4" d="M239.593 49.8081C239.591 49.9061 239.633 50.0241 239.703 50.1031C240.474 49.0981 244.825 48.4011 250.05 48.4781C255.29 48.5561 259.617 49.3821 260.345 50.4091C260.418 50.3321 260.462 50.2151 260.463 50.1171C260.48 48.9841 255.826 47.9781 250.058 47.8921C244.306 47.8071 239.61 48.6751 239.593 49.8081Z" fill="#407BFF"/>
<path opacity="0.4" d="M239.703 50.1021C240.445 51.1291 244.773 51.9551 249.997 52.0321C255.236 52.1091 259.587 51.4121 260.344 50.4081C259.617 49.3811 255.289 48.5551 250.049 48.4771C244.825 48.4001 240.474 49.0981 239.703 50.1021Z" fill="#407BFF"/>
<path d="M237.096 48.232C237.071 49.905 242.405 51.34 249.008 51.438C255.612 51.536 260.985 50.259 261.01 48.586C261.035 46.913 255.702 45.477 249.098 45.38C242.494 45.282 237.12 46.559 237.096 48.232Z" fill="#407BFF"/>
<path d="M237.145 45.2015L237.1 48.2312L261.015 48.5852L261.059 45.5555L237.145 45.2015Z" fill="#407BFF"/>
<path d="M237.141 45.202C237.116 46.875 242.45 48.311 249.053 48.408C255.657 48.506 261.03 47.229 261.055 45.556C261.08 43.883 255.747 42.448 249.143 42.35C242.539 42.253 237.165 43.53 237.141 45.202Z" fill="#407BFF"/>
<path opacity="0.4" d="M237.141 45.202C237.116 46.875 242.45 48.311 249.053 48.408C255.657 48.506 261.03 47.229 261.055 45.556C261.08 43.883 255.747 42.448 249.143 42.35C242.539 42.253 237.165 43.53 237.141 45.202Z" fill="white"/>
<path d="M238.663 45.108C238.661 45.206 238.703 45.324 238.773 45.403C239.544 44.399 243.895 43.701 249.12 43.778C254.36 43.856 258.688 44.682 259.415 45.708C259.487 45.631 259.532 45.514 259.533 45.416C259.55 44.283 254.896 43.277 249.129 43.191C243.376 43.108 238.679 43.976 238.663 45.108Z" fill="#407BFF"/>
<path opacity="0.4" d="M238.663 45.108C238.661 45.206 238.703 45.324 238.773 45.403C239.544 44.399 243.895 43.701 249.12 43.778C254.36 43.856 258.688 44.682 259.415 45.708C259.487 45.631 259.532 45.514 259.533 45.416C259.55 44.283 254.896 43.277 249.129 43.191C243.376 43.108 238.679 43.976 238.663 45.108Z" fill="#407BFF"/>
<path opacity="0.4" d="M238.773 45.403C239.514 46.43 243.843 47.256 249.067 47.333C254.306 47.41 258.657 46.713 259.414 45.708C258.687 44.681 254.359 43.855 249.119 43.778C243.895 43.701 239.544 44.399 238.773 45.403Z" fill="#407BFF"/>
<path d="M239.424 37.551C239.561 42.509 244.586 46.392 250.648 46.224C256.709 46.056 261.512 41.901 261.375 36.944C261.238 31.986 256.213 28.103 250.151 28.271C244.089 28.439 239.287 32.594 239.424 37.551Z" fill="#407BFF"/>
<path d="M239.369 35.578C239.506 40.536 244.531 44.419 250.593 44.251C256.655 44.083 261.457 39.928 261.32 34.97C261.183 30.012 256.158 26.129 250.096 26.297C244.035 26.465 239.232 30.62 239.369 35.578Z" fill="#407BFF"/>
<path opacity="0.4" d="M239.369 35.578C239.506 40.536 244.531 44.419 250.593 44.251C256.655 44.083 261.457 39.928 261.32 34.97C261.183 30.012 256.158 26.129 250.096 26.297C244.035 26.465 239.232 30.62 239.369 35.578Z" fill="white"/>
<path d="M242.113 35.343C242.12 35.579 242.144 35.815 242.169 36.033C242.188 36.051 242.17 36.069 242.17 36.088C242.736 39.457 246.3 41.961 250.519 41.845C254.756 41.728 258.176 39.031 258.555 35.635C258.554 35.617 258.536 35.599 258.554 35.581C258.566 35.362 258.578 35.125 258.571 34.889C258.468 31.179 254.693 28.263 250.147 28.388C245.619 28.512 242.011 31.633 242.113 35.343Z" fill="#407BFF"/>
<path opacity="0.3" d="M242.169 36.033C242.188 36.051 242.17 36.069 242.17 36.088C242.736 39.457 246.3 41.961 250.519 41.845C254.756 41.728 258.176 39.031 258.555 35.635C258.554 35.617 258.536 35.599 258.554 35.581C257.988 32.23 254.424 29.708 250.187 29.825C245.968 29.94 242.549 32.656 242.169 36.033Z" fill="white"/>
<g opacity="0.5">
<path d="M253.49 37.142C253.531 38.637 252.357 39.67 250.484 39.879L250.271 41.123L249.147 41.154L249.36 39.91C248.289 39.839 247.336 39.528 246.751 39.116L247.465 37.702C248.073 38.124 248.834 38.384 249.611 38.441L249.941 36.531C248.887 36.245 247.729 35.861 247.691 34.501C247.65 33.006 248.847 31.961 250.754 31.773L250.967 30.53L252.091 30.499L251.878 31.754C252.678 31.81 253.415 32.015 253.964 32.337L253.317 33.75C252.824 33.438 252.235 33.262 251.626 33.212L251.287 35.201C252.33 35.476 253.454 35.85 253.49 37.142ZM250.211 34.916L250.492 33.289C249.855 33.431 249.505 33.788 249.506 34.216C249.516 34.564 249.802 34.758 250.211 34.916ZM251.677 37.485C251.668 37.159 251.404 36.964 251.006 36.829L250.745 38.377C251.349 38.236 251.689 37.912 251.677 37.485Z" fill="white"/>
</g>
<path d="M183.499 81.239H171.161L170.161 47.566H184.5L183.499 81.239Z" fill="#407BFF"/>
<path opacity="0.7" d="M183.499 81.239H171.161L170.161 47.566H184.5L183.499 81.239Z" fill="white"/>
<path d="M185.834 48.657H168.827L169.827 45.739H184.833L185.834 48.657Z" fill="#407BFF"/>
<path d="M183.907 67.53L184.167 58.772H170.493L170.754 67.53H183.907Z" fill="#407BFF"/>
<path opacity="0.8" d="M180.16 63.151C180.16 64.714 178.893 65.981 177.33 65.981C175.767 65.981 174.5 64.714 174.5 63.151C174.5 61.588 175.767 60.321 177.33 60.321C178.893 60.321 180.16 61.589 180.16 63.151Z" fill="white"/>
<path d="M205.008 66.2351C204.518 64.2031 203.337 62.0441 201.295 61.6011C199.095 61.1231 197.075 62.8221 195.463 64.3941C194.537 60.9611 190.32 59.0571 186.925 60.1121C183.53 61.1671 181.209 64.6061 180.858 68.1441C180.507 71.6821 181.878 75.2281 183.985 78.0911C186.061 80.9131 188.371 82.2121 191.816 81.5231C194.293 81.0281 196.353 81.7001 198.732 81.4181C204.592 80.7211 206.093 70.7361 205.008 66.2351Z" fill="#407BFF"/>
<path d="M195.888 57.014C196.142 57.419 196.852 56.898 197.271 56.62C196.617 58.278 196.671 62.113 196.192 63.815C195.971 64.601 195.099 64.176 194.98 64.035C195.303 60.545 195.474 56.353 195.888 57.014Z" fill="#263238"/>
<path d="M197.952 57.393C198.88 56.655 199.953 56.137 201.016 55.624C200.832 56.88 200.6 58.178 199.883 59.218C199.169 60.255 197.989 60.943 196.756 61.041C194.447 61.226 197.303 57.909 197.952 57.393Z" fill="#407BFF"/>
<path d="M188.459 62.441C187.879 62.045 186.942 62.487 186.876 63.187C186.81 63.887 187.639 64.498 188.289 64.23C188.939 63.963 189.103 62.952 188.573 62.49L188.459 62.441Z" fill="white"/>
<path d="M185.704 76.452C185.815 76.582 185.943 76.717 186.111 76.749C186.431 76.808 186.694 76.442 186.672 76.117C186.649 75.792 186.445 75.515 186.267 75.242C185.101 73.45 184.907 71.066 185.766 69.109C185.984 68.612 186.267 68.139 186.402 67.613C186.723 66.368 185.714 65.199 184.526 65.925C183.62 66.479 183.492 68.405 183.427 69.313C183.246 71.862 184.036 74.499 185.704 76.452Z" fill="white"/>
<path d="M131.646 86.185V93.042C132.491 93.042 132.492 94.3549 131.646 94.3549C129.033 94.3549 126.418 94.373 123.803 94.388V84.8719C126.417 84.8719 129.032 84.8719 131.646 84.8719C132.491 84.8719 132.492 86.185 131.646 86.185Z" fill="#407BFF"/>
<path opacity="0.3" d="M131.646 86.185V93.042C132.491 93.042 132.492 94.3549 131.646 94.3549C129.033 94.3549 126.418 94.373 123.803 94.388V84.8719C126.417 84.8719 129.032 84.8719 131.646 84.8719C132.491 84.8719 132.492 86.185 131.646 86.185Z" fill="white"/>
<path d="M131.646 86.1949H125.553V93.0419H131.646V86.1949Z" fill="#407BFF"/>
<path opacity="0.6" d="M131.646 86.1949H125.553V93.0419H131.646V86.1949Z" fill="white"/>
<path d="M126.831 85.5291H93.198C91.746 85.5291 90.569 87.358 90.569 89.614C90.569 91.87 91.746 93.6991 93.198 93.6991H126.831V85.5291Z" fill="#407BFF"/>
<path opacity="0.9" d="M126.831 85.5291H93.198C91.746 85.5291 90.569 87.358 90.569 89.614C90.569 91.87 91.746 93.6991 93.198 93.6991H126.831V85.5291Z" fill="white"/>
<path d="M126.831 94.355C119.916 94.355 100.478 94.48 93.564 94.355C88.828 94.27 88.573 85.191 93.219 84.872C96.457 84.65 99.788 84.872 103.033 84.872C106.795 84.872 123.069 84.872 126.831 84.872C127.676 84.872 127.677 86.185 126.831 86.185C120.277 86.185 101.211 86.185 94.657 86.185C93.14 86.185 92.055 86.202 91.469 87.991C90.962 89.54 91.122 92.699 93.198 93.041C93.422 93.078 93.685 93.041 93.91 93.041C97.484 93.041 101.057 93.041 104.631 93.041C107.861 93.041 123.602 93.041 126.832 93.041C127.676 93.042 127.678 94.355 126.831 94.355Z" fill="#407BFF"/>
<g opacity="0.2">
<path d="M126.831 94.355C119.916 94.355 100.478 94.48 93.564 94.355C88.828 94.27 88.573 85.191 93.219 84.872C96.457 84.65 99.788 84.872 103.033 84.872C106.795 84.872 123.069 84.872 126.831 84.872C127.676 84.872 127.677 86.185 126.831 86.185C120.277 86.185 101.211 86.185 94.657 86.185C93.14 86.185 92.055 86.202 91.469 87.991C90.962 89.54 91.122 92.699 93.198 93.041C93.422 93.078 93.685 93.041 93.91 93.041C97.484 93.041 101.057 93.041 104.631 93.041C107.861 93.041 123.602 93.041 126.832 93.041C127.676 93.042 127.678 94.355 126.831 94.355Z" fill="white"/>
</g>
<path d="M129.169 95.639V101.989C129.951 101.989 129.953 103.205 129.169 103.205C126.749 103.205 124.327 103.221 121.905 103.236V94.423C124.326 94.423 126.747 94.423 129.169 94.423C129.952 94.423 129.953 95.639 129.169 95.639Z" fill="#407BFF"/>
<path opacity="0.3" d="M129.169 95.639V101.989C129.951 101.989 129.953 103.205 129.169 103.205C126.749 103.205 124.327 103.221 121.905 103.236V94.423C124.326 94.423 126.747 94.423 129.169 94.423C129.952 94.423 129.953 95.639 129.169 95.639Z" fill="white"/>
<path d="M129.17 95.6479H123.527V101.989H129.17V95.6479Z" fill="#407BFF"/>
<path opacity="0.6" d="M129.17 95.6479H123.527V101.989H129.17V95.6479Z" fill="white"/>
<path d="M124.711 95.031H93.562C92.217 95.031 91.127 96.725 91.127 98.814C91.127 100.903 92.217 102.597 93.562 102.597H124.71L124.711 95.031Z" fill="#407BFF"/>
<path opacity="0.9" d="M124.711 95.031H93.562C92.217 95.031 91.127 96.725 91.127 98.814C91.127 100.903 92.217 102.597 93.562 102.597H124.71L124.711 95.031Z" fill="white"/>
<path d="M124.711 103.205C118.307 103.205 100.305 103.321 93.902 103.205C89.516 103.126 89.28 94.718 93.582 94.423C96.581 94.217 99.666 94.423 102.671 94.423C106.155 94.423 121.227 94.423 124.711 94.423C125.493 94.423 125.495 95.639 124.711 95.639C118.641 95.639 100.984 95.639 94.914 95.639C93.509 95.639 92.504 95.655 91.961 97.312C91.491 98.746 91.639 101.672 93.562 101.989C93.769 102.023 94.013 101.989 94.221 101.989C97.531 101.989 100.84 101.989 104.15 101.989C107.141 101.989 121.719 101.989 124.711 101.989C125.493 101.989 125.494 103.205 124.711 103.205Z" fill="#407BFF"/>
<path d="M133.56 104.741V112.298C134.491 112.298 134.493 113.745 133.56 113.745C130.68 113.745 127.798 113.765 124.916 113.782V103.294C127.798 103.294 130.679 103.294 133.56 103.294C134.491 103.294 134.493 104.741 133.56 104.741Z" fill="#407BFF"/>
<path opacity="0.3" d="M133.56 104.741V112.298C134.491 112.298 134.493 113.745 133.56 113.745C130.68 113.745 127.798 113.765 124.916 113.782V103.294C127.798 103.294 130.679 103.294 133.56 103.294C134.491 103.294 134.493 104.741 133.56 104.741Z" fill="white"/>
<path d="M133.56 104.752H126.845V112.298H133.56V104.752Z" fill="#407BFF"/>
<path opacity="0.6" d="M133.56 104.752H126.845V112.298H133.56V104.752Z" fill="white"/>
<path d="M128.254 104.018H91.186C89.586 104.018 88.288 106.034 88.288 108.52C88.288 111.006 89.585 113.022 91.186 113.022H128.254V104.018Z" fill="#407BFF"/>
<path opacity="0.9" d="M128.254 104.018H91.186C89.586 104.018 88.288 106.034 88.288 108.52C88.288 111.006 89.585 113.022 91.186 113.022H128.254V104.018Z" fill="white"/>
<path d="M128.254 113.745C120.633 113.745 99.21 113.883 91.59 113.745C86.37 113.651 86.09 103.645 91.21 103.294C94.779 103.049 98.45 103.294 102.026 103.294C106.172 103.294 124.108 103.294 128.255 103.294C129.186 103.294 129.188 104.741 128.255 104.741C121.031 104.741 100.019 104.741 92.796 104.741C91.124 104.741 89.928 104.76 89.282 106.732C88.723 108.439 88.899 111.921 91.188 112.298C91.434 112.339 91.725 112.298 91.972 112.298C95.91 112.298 99.849 112.298 103.787 112.298C107.347 112.298 124.695 112.298 128.255 112.298C129.185 112.298 129.187 113.745 128.254 113.745Z" fill="#407BFF"/>
<g opacity="0.2">
<path d="M128.254 113.745C120.633 113.745 99.21 113.883 91.59 113.745C86.37 113.651 86.09 103.645 91.21 103.294C94.779 103.049 98.45 103.294 102.026 103.294C106.172 103.294 124.108 103.294 128.255 103.294C129.186 103.294 129.188 104.741 128.255 104.741C121.031 104.741 100.019 104.741 92.796 104.741C91.124 104.741 89.928 104.76 89.282 106.732C88.723 108.439 88.899 111.921 91.188 112.298C91.434 112.339 91.725 112.298 91.972 112.298C95.91 112.298 99.849 112.298 103.787 112.298C107.347 112.298 124.695 112.298 128.255 112.298C129.185 112.298 129.187 113.745 128.254 113.745Z" fill="black"/>
</g>
<path d="M196.826 245.946L194.16 262.024L186.419 262.04L187.427 245.085L196.826 245.946Z" fill="#EBB376"/>
<path d="M183.465 262.504C182.527 262.613 181.538 262.554 181.18 262.187C180.992 261.97 180.961 261.658 181.103 261.408C181.205 261.186 181.389 261.012 181.617 260.924C182.836 260.431 185.643 261.628 185.766 261.682C185.836 261.712 185.879 261.782 185.874 261.858C185.868 261.933 185.818 261.997 185.747 262.021C185.003 262.248 184.239 262.41 183.465 262.504ZM182.095 261.175C181.979 261.187 181.866 261.215 181.758 261.259C181.612 261.302 181.494 261.409 181.437 261.55C181.33 261.788 181.389 261.89 181.447 261.945C181.854 262.396 183.758 262.186 185.142 261.849C184.177 261.434 183.144 261.206 182.095 261.175Z" fill="#263238"/>
<path d="M185.72 262.021C185.696 262.031 185.669 262.032 185.645 262.023C184.697 261.728 182.693 260.303 182.755 259.436C182.75 259.229 182.874 258.962 183.361 258.856C183.716 258.776 184.088 258.845 184.391 259.046C185.444 259.724 185.882 261.735 185.903 261.829C185.915 261.893 185.892 261.958 185.842 262C185.805 262.022 185.762 262.03 185.72 262.021ZM183.52 259.181L183.416 259.184C183.098 259.249 183.092 259.381 183.084 259.428C183.097 259.945 184.435 261.086 185.434 261.53C185.245 260.685 184.802 259.918 184.163 259.334C183.974 259.207 183.745 259.152 183.52 259.181Z" fill="#263238"/>
<path d="M186.395 260.875L194.63 259.917C194.94 259.881 195.234 260.065 195.338 260.36L197.606 266.886C197.811 267.464 197.51 268.098 196.932 268.303C196.858 268.329 196.781 268.348 196.703 268.358C193.728 268.652 191.07 268.796 187.375 269.231C183.014 269.74 184.181 270.133 179.062 270.802C175.977 271.202 175.003 267.756 176.293 267.431C182.201 265.979 182.613 264.096 184.676 261.681C185.131 261.211 185.743 260.924 186.395 260.875Z" fill="#407BFF"/>
<path opacity="0.1" d="M195.125 256.207L186.82 255.284L187.427 245.085L196.826 245.946L195.125 256.207Z" fill="black"/>
<path d="M239.657 162.647C239.657 162.647 190.889 164.095 188.925 177.505C186.962 190.915 185.264 251.774 185.264 251.774L196.617 253.14C196.617 253.14 203.661 219.323 207.743 184.86C207.743 184.86 259.583 188.013 262.095 180.756C264.608 173.499 262.173 162.716 262.173 162.716L239.657 162.647Z" fill="#407BFF"/>
<path opacity="0.3" d="M239.657 162.647C239.657 162.647 190.889 164.095 188.925 177.505C186.962 190.915 185.264 251.774 185.264 251.774L196.617 253.14C196.617 253.14 203.661 219.323 207.743 184.86C207.743 184.86 259.583 188.013 262.095 180.756C264.608 173.499 262.173 162.716 262.173 162.716L239.657 162.647Z" fill="black"/>
<path d="M197.753 254.6L183.852 252.999L183.918 248.013L198.758 249.378L197.753 254.6Z" fill="#407BFF"/>
<path opacity="0.4" d="M213.599 181.094C213.585 181.216 213.57 181.337 213.555 181.459C213.538 179.447 213.608 177.77 213.787 176.542C215.104 167.551 238.379 163.595 247.941 162.345L259.596 162.381C259.596 162.381 261.654 171.494 259.53 177.626C257.406 183.758 213.599 181.094 213.599 181.094Z" fill="black"/>
<path d="M224.261 246.359L224.496 264.076L216.758 264.289L214.848 245.663L224.261 246.359Z" fill="#EBB376"/>
<path d="M213.098 263.714C212.1 263.695 211.072 263.493 210.749 263.058C210.583 262.804 210.595 262.473 210.779 262.231C210.917 262.013 211.135 261.857 211.386 261.797C212.734 261.454 215.504 263.106 215.626 263.18C215.695 263.221 215.73 263.301 215.714 263.38C215.697 263.458 215.636 263.518 215.557 263.533C214.745 263.665 213.922 263.726 213.098 263.714ZM211.85 262.128C211.727 262.123 211.605 262.137 211.486 262.168C211.327 262.192 211.188 262.288 211.108 262.427C210.963 262.661 211.01 262.776 211.062 262.842C211.424 263.372 213.449 263.423 214.947 263.266C213.996 262.695 212.945 262.309 211.85 262.128Z" fill="#263238"/>
<path d="M215.528 263.53C215.501 263.537 215.473 263.534 215.449 263.521C214.497 263.077 212.601 261.3 212.789 260.4C212.813 260.182 212.981 259.921 213.506 259.878C213.889 259.845 214.269 259.969 214.559 260.223C215.566 261.083 215.739 263.252 215.748 263.353C215.752 263.422 215.718 263.487 215.659 263.523C215.618 263.542 215.571 263.544 215.528 263.53ZM213.627 260.241L213.518 260.229C213.175 260.252 213.151 260.389 213.135 260.437C213.076 260.981 214.315 262.366 215.299 262.974C215.221 262.062 214.865 261.196 214.28 260.492C214.1 260.333 213.868 260.243 213.627 260.241Z" fill="#263238"/>
<path d="M216.399 262.424L225.163 262.59C225.493 262.596 225.775 262.83 225.841 263.154L227.29 270.314C227.423 270.949 227.017 271.57 226.383 271.704C226.301 271.721 226.218 271.729 226.135 271.729C222.977 271.614 220.171 271.388 216.237 271.319C211.596 271.233 212.763 271.81 207.305 271.784C204.016 271.765 203.485 268.017 204.882 267.859C211.278 267.177 211.977 265.263 214.481 263.025C215.027 262.597 215.708 262.383 216.399 262.424Z" fill="#407BFF"/>
<path d="M252.355 163.607C252.355 163.607 209.108 167.552 207.144 180.962C205.18 194.372 214.244 253.004 214.244 253.004L225.562 253.467C225.562 253.467 226.91 213.639 225.962 188.317C225.962 188.317 272.316 189.876 274.828 182.619C277.341 175.362 274.871 163.676 274.871 163.676L252.355 163.607Z" fill="#263238"/>
<path d="M252.355 163.607C252.355 163.607 209.108 167.552 207.144 180.962C205.18 194.372 214.244 253.004 214.244 253.004L225.562 253.467C225.562 253.467 226.91 213.639 225.962 188.317C225.962 188.317 265.957 191.483 275.253 184.671C285.457 177.194 274.13 161.209 274.13 161.209L252.355 163.607Z" fill="#407BFF"/>
<path opacity="0.2" d="M252.355 163.607C252.355 163.607 209.108 167.552 207.144 180.962C205.18 194.372 214.244 253.004 214.244 253.004L225.562 253.467C225.562 253.467 226.91 213.639 225.962 188.317C225.962 188.317 265.957 191.483 275.253 184.671C285.457 177.194 274.13 161.209 274.13 161.209L252.355 163.607Z" fill="black"/>
<path opacity="0.1" d="M216.007 256.607L215.574 252.384L224.342 252.808L224.392 256.788L216.007 256.607Z" fill="black"/>
<path d="M226.874 254.92L212.962 254.41L212.356 249.009L227.636 249.657L226.874 254.92Z" fill="#407BFF"/>
<path d="M254.089 118.915C252.887 119.155 251.839 119.351 250.723 119.521C249.607 119.691 248.546 119.839 247.406 119.977C245.213 120.238 242.994 120.409 240.707 120.523C235.997 120.817 231.269 120.472 226.652 119.496C225.345 119.185 224.066 118.763 222.83 118.236C221.437 117.649 220.14 116.858 218.981 115.888C213.616 111.01 213.471 95.0281 213.621 94.3511L218.823 94.8761C218.823 94.8761 222.833 109.595 228.789 109.791C230.604 110.08 232.44 110.218 234.277 110.205C236.198 110.239 238.174 110.144 240.173 109.998C242.172 109.852 244.172 109.629 246.186 109.403L249.201 109.001C250.189 108.859 251.25 108.712 252.102 108.571L254.089 118.915Z" fill="#FF8B7B"/>
<path d="M220.105 91.583L219.368 87.76L212.726 91.693C212.726 91.693 213.704 98.276 216.937 97.734L218.345 96.347C219.58 95.08 220.219 93.349 220.105 91.583Z" fill="#FF8B7B"/>
<path d="M216.933 84.2211L210.301 85.8111L212.742 91.7181L219.384 87.7851L216.933 84.2211Z" fill="#FF8B7B"/>
<path d="M262.289 118.637C265.913 112.54 261.61 107.06 251.984 106.766C246.827 106.53 241.659 106.76 236.544 107.454L237.043 123.986C246.35 124.796 258.578 124.904 262.289 118.637Z" fill="#263238"/>
<path d="M263.036 107.985L271.026 109.104L280.353 112.683C283.267 113.796 285.074 116.722 284.767 119.826C284.171 125.917 277.327 167.194 277.327 167.194C268.677 167.659 260.007 166.838 251.598 164.758L243.108 162.658C246.229 139.796 247.367 120.964 249.223 113.502C249.962 110.493 252.618 108.346 255.715 108.255L263.036 107.985Z" fill="#263238"/>
<path opacity="0.2" d="M282.413 116.306C276.357 113.36 272.532 127.927 272.4 139.35C272.362 142.656 276.357 142.412 277.814 141.964C282.581 140.498 289.005 123.197 282.413 116.306Z" fill="black"/>
<path d="M295.607 190.025L289.037 194.847L289.027 194.857C289.027 194.857 280.483 190.08 282.266 187.27L284.418 186.581C286.314 186.039 288.455 186.06 290.716 187.148L294.549 189.404L295.596 190.015L295.607 190.025Z" fill="#FF8B7B"/>
<path d="M297.287 195.491L295.242 196.778C294.79 197.071 294.221 197.106 293.735 196.899L289.037 194.847L294.55 189.404L295.597 190.015L295.607 190.025L297.765 193.217C298.276 193.973 298.054 195 297.287 195.491Z" fill="#FF8B7B"/>
<path d="M277.601 127.811C277.663 133.673 282.631 187.157 282.247 187.504L288.738 187.526C288.738 187.526 287.783 130.329 287.888 125.973C288.004 121.167 277.558 123.719 277.601 127.811Z" fill="#FF8B7B"/>
<path d="M285.617 114.459C279.611 110.66 275.629 115.198 275.046 124.774C274.656 129.921 274.734 135.093 275.279 140.226L290.218 139.822C291.269 130.555 291.758 118.35 285.617 114.459Z" fill="#263238"/>
<path d="M276.129 111.699C275.974 113.129 275.105 114.405 274.016 115.345C272.927 116.285 271.625 116.937 270.337 117.578C268.702 118.393 266.794 119.22 265.118 118.492C263.57 117.819 262.878 116.744 262.778 114.643C260.762 116.467 260.381 117.556 258.827 117.262C257.82 117.072 257.169 116.11 256.683 115.207C255.825 113.612 255.486 112.739 255.759 110.948C256.203 108.033 259.232 106.08 262.171 105.852C265.326 105.608 267.932 106.08 270.992 106.586C273.549 107.011 276.456 108.678 276.129 111.699Z" fill="#407BFF"/>
<path d="M273.292 96.2871L268.677 99.2991L262.4 103.402C262.67 104.106 262.811 104.854 262.815 105.609C262.874 107.287 262.291 108.764 260.311 109.413C259.493 109.543 258.053 113.199 262.9 114.162C266.178 114.908 268.54 114.372 270.984 112.953C272.188 112.036 272.593 111.474 272.063 109.948C270.528 105.621 271.82 100.351 273.292 96.2871Z" fill="#FF8B7B"/>
<path opacity="0.2" d="M263.921 102.377L268.021 99.29C268.023 99.418 268.027 99.555 268.032 99.7C268.015 100.296 267.951 100.889 267.842 101.475C267.465 103.478 264.914 105.457 262.819 106.016L262.794 105.584C262.773 104.872 262.655 104.165 262.443 103.485C262.428 103.446 262.406 103.409 262.379 103.377L263.921 102.377Z" fill="black"/>
<path d="M261.879 92.1371C260.401 85.7761 261.823 82.7411 259.796 79.0381C258.468 77.9991 255.162 80.0971 255.722 85.2241C256.282 90.3521 261.879 92.1371 261.879 92.1371Z" fill="#263238"/>
<path d="M275.079 89.0791C273.766 95.6981 273.285 99.6251 269.461 102.499C263.679 106.85 255.896 102.503 255.24 95.5921C254.645 89.3751 256.944 79.6151 263.828 77.9861C268.866 76.8261 273.891 79.9701 275.051 85.0081C275.358 86.3461 275.368 87.7361 275.079 89.0791Z" fill="#FF8B7B"/>
<path d="M274.389 94.8141L270.773 95.0991L271.31 90.1921L268.826 87.8061L268.99 81.7041C268.99 81.7041 274.856 81.3041 277.218 81.5751C278.045 81.6701 280.302 84.5541 280.487 85.5741C281.01 88.4601 279.639 91.3191 277.288 93.0721C276.385 93.7471 275.414 94.3301 274.389 94.8141Z" fill="#263238"/>
<path d="M277.097 94.3261C276.55 95.7311 275.506 96.8871 274.164 97.5751C272.42 98.4391 271.13 96.5791 271.458 94.6901C271.76 93.0041 273.269 90.8461 275.096 90.7731C276.923 90.7001 277.771 92.5721 277.097 94.3261Z" fill="#FF8B7B"/>
<path d="M263.677 89.2301C263.624 89.7871 263.288 90.2271 262.918 90.2001C262.549 90.1731 262.334 89.7221 262.351 89.1571C262.368 88.5931 262.74 88.1601 263.112 88.1801C263.485 88.2011 263.733 88.6671 263.677 89.2301Z" fill="#263238"/>
<path d="M257.246 88.5781C257.197 89.1441 256.854 89.5811 256.485 89.5541C256.116 89.5271 255.867 89.0611 255.918 88.5111C255.968 87.9611 256.314 87.5171 256.677 87.5411C257.039 87.5651 257.299 88.0211 257.246 88.5781Z" fill="#263238"/>
<path d="M259.425 90.1471C258.619 91.5191 257.635 92.7781 256.5 93.8931C257.209 94.7841 258.696 94.6071 258.696 94.6071L259.425 90.1471Z" fill="#FF5652"/>
<path d="M260.419 97.2601C261.73 97.1301 262.931 96.4681 263.74 95.4281C263.793 95.3531 263.776 95.2501 263.702 95.1961C263.624 95.1471 263.522 95.1671 263.468 95.2411C262.571 96.3601 261.203 96.9981 259.769 96.9671C259.677 96.9591 259.596 97.0261 259.587 97.1191C259.579 97.2111 259.646 97.2921 259.739 97.3011C259.747 97.3021 259.754 97.3021 259.762 97.3011C259.982 97.3011 260.202 97.2881 260.419 97.2601Z" fill="#263238"/>
<path d="M265.901 88.0211C265.957 88.0191 266.011 88.0021 266.058 87.9711C266.209 87.8681 266.249 87.6631 266.149 87.5101C265.585 86.6191 264.614 86.0691 263.56 86.0421C263.379 86.0431 263.234 86.1911 263.235 86.3721C263.235 86.3761 263.235 86.3801 263.236 86.3851C263.245 86.5671 263.398 86.7091 263.581 86.7031C264.405 86.7401 265.16 87.1771 265.601 87.8741C265.664 87.9771 265.781 88.0351 265.901 88.0211Z" fill="#263238"/>
<path d="M258.439 85.8951C258.474 85.8501 258.497 85.7981 258.506 85.7421C258.506 85.5591 258.359 85.409 258.176 85.407C257.122 85.361 256.115 85.848 255.496 86.702C255.397 86.854 255.439 87.0571 255.591 87.1561C255.743 87.2551 255.946 87.2131 256.045 87.0611C256.544 86.4011 257.337 86.029 258.164 86.068C258.28 86.062 258.384 85.9971 258.439 85.8951Z" fill="#263238"/>
<path d="M255.475 73.7751C254.568 73.9691 254.064 75.0731 254.056 76.0001C254.048 76.9271 254.604 77.8371 255.434 78.2511C258.915 79.9881 261.879 82.1491 267.999 82.4101C268.775 82.4431 269.544 82.5271 270.318 82.4651C272.813 82.2631 275.307 82.0601 277.802 81.8581C278.599 80.7501 278.677 78.9561 278.06 77.7381C275.785 73.2441 265.206 71.6931 255.475 73.7751Z" fill="#263238"/>
<path d="M217.697 103.793L217.732 103.818L217.775 103.813L217.738 103.795L217.697 103.793Z" fill="#F0F0F0"/>
</svg>
