<svg width="687" height="455" viewBox="0 0 687 455" fill="none" xmlns="http://www.w3.org/2000/svg">
<path d="M17.45 254.414C20.638 247.741 26.556 174.821 30.709 161.024C35.127 146.348 41.789 132.803 50.625 120.286C104.545 43.898 143.882 98.82 192.187 56.909C205.133 45.676 215.511 31.608 229.464 21.504C274.807 -11.331 333.183 -2.51102 378.8 24.171C401.761 37.602 417.728 64.959 444.049 71.832C484.576 82.413 524.821 48.824 565.526 47.831C670.507 45.27 687.093 167.696 686.72 247.835C686.634 266.351 684.351 285.015 678.947 302.758C675.255 314.882 669.753 326.294 662.947 336.972C611.61 417.51 548.885 352.445 482.915 373.738C429.507 390.977 390.352 467.704 323.314 453.083C271.567 441.798 264.523 402.34 212.414 392.383C161.657 382.684 130.572 378.678 81.32 395.412C-6.77 425.339 -13.077 318.317 17.45 254.414Z" fill="#FBF8E1"/>
<path d="M594.941 293.2C590.176 290.698 586.495 292.379 583.421 297.784C579.319 304.998 573.61 323.006 577.657 325.395C582.292 328.131 590.114 322.237 594.705 313.492C599.295 304.746 599.707 295.702 594.941 293.2Z" fill="#4E7B8E"/>
<path d="M590.664 292.069C587.871 292.165 585.507 294.117 583.423 297.784C579.321 304.998 573.612 323.006 577.659 325.395C577.848 325.507 578.042 325.604 578.242 325.687C578.655 309.415 586.279 297.57 590.664 292.069Z" fill="#9DC1C7"/>
<path d="M595.143 311.447C595.143 311.447 592.083 309.903 589.042 306.36C588.632 305.882 588.687 305.161 589.165 304.75C589.643 304.34 590.364 304.395 590.775 304.873C593.477 308.021 596.179 309.413 596.179 309.413C596.74 309.699 596.964 310.387 596.678 310.948C596.392 311.509 595.705 311.733 595.143 311.447Z" fill="#9DC1C7"/>
<path d="M593.578 314.788C593.578 314.788 590.518 313.244 587.477 309.701C587.067 309.223 587.122 308.502 587.6 308.091C588.078 307.681 588.8 307.735 589.21 308.214C591.912 311.362 594.615 312.754 594.615 312.754C595.176 313.04 595.4 313.728 595.114 314.289C594.827 314.851 594.139 315.074 593.578 314.788Z" fill="#9DC1C7"/>
<path d="M592.081 317.893C592.081 317.893 589.021 316.349 585.98 312.806C585.57 312.328 585.625 311.607 586.102 311.196C586.581 310.786 587.302 310.841 587.712 311.319C590.414 314.467 593.116 315.859 593.116 315.859C593.677 316.145 593.901 316.833 593.615 317.394C593.329 317.955 592.643 318.179 592.081 317.893Z" fill="#9DC1C7"/>
<path d="M523.607 369.816C518.545 371.647 517.303 375.497 519.22 381.411C521.779 389.306 531.222 405.668 535.715 404.292C540.861 402.716 541.787 392.966 538.427 383.677C535.068 374.39 528.669 367.986 523.607 369.816Z" fill="#4E7B8E"/>
<path d="M519.884 372.211C518.071 374.337 517.918 377.4 519.218 381.412C521.777 389.307 531.219 405.669 535.713 404.293C535.923 404.228 536.126 404.151 536.322 404.059C524.589 392.778 520.987 379.16 519.884 372.211Z" fill="#9DC1C7"/>
<path d="M537.212 381.976C537.212 381.976 534.008 383.193 529.341 383.048C528.711 383.028 528.216 382.501 528.235 381.871C528.255 381.241 528.782 380.746 529.412 380.765C533.559 380.894 536.409 379.838 536.409 379.838C536.999 379.616 537.658 379.915 537.88 380.505C538.101 381.095 537.803 381.754 537.212 381.976Z" fill="#9DC1C7"/>
<path d="M538.62 385.388C538.62 385.388 535.416 386.605 530.749 386.46C530.119 386.44 529.624 385.913 529.643 385.283C529.663 384.653 530.19 384.158 530.82 384.177C534.967 384.306 537.817 383.25 537.817 383.25C538.407 383.028 539.066 383.328 539.287 383.917C539.509 384.508 539.21 385.167 538.62 385.388Z" fill="#9DC1C7"/>
<path d="M539.904 388.586C539.904 388.586 536.7 389.803 532.033 389.658C531.403 389.639 530.908 389.111 530.927 388.481C530.947 387.851 531.474 387.356 532.104 387.375C536.251 387.504 539.101 386.448 539.101 386.448C539.691 386.226 540.35 386.526 540.571 387.115C540.793 387.705 540.493 388.364 539.904 388.586Z" fill="#9DC1C7"/>
<path d="M583.217 232.702C579.739 234.041 575.816 282.643 521.73 370.863C521.73 370.863 532.977 383.388 538.521 377.788C538.521 377.788 600.105 281.887 602.527 278.04C605.242 273.728 610.973 274.008 614.77 277.033C616.958 278.777 633.526 294.782 623.099 295.285C612.671 295.788 602.623 293.937 596.215 293.758C595.026 293.724 590.162 304.809 595.017 308.523C599.872 312.237 648.371 318.672 653.886 310.374C661.532 298.87 636.903 256.871 630.812 249.937C624.721 243.003 586.695 231.363 583.217 232.702Z" fill="#B3B3B3"/>
<path d="M575.173 258.022C580.268 241.873 581.781 233.255 583.217 232.702C586.695 231.364 624.721 243.003 630.812 249.937C632.347 251.685 635.061 255.662 638.137 260.815C627.919 257.464 617.354 255.457 606.586 254.934C597.407 254.489 588.088 255.326 579.088 257.171C577.78 257.439 576.47 257.709 575.173 258.022Z" fill="#9D9D9D"/>
<path d="M608.634 239.112C608.992 239.238 609.35 239.364 609.707 239.492C610.407 246.32 611.088 255.418 610.861 263.499C610.836 264.382 610.8 265.254 610.752 266.109C610.796 266.104 610.842 266.105 610.889 266.112C612.322 266.334 613.397 265.757 614.198 264.631C615.081 263.389 615.644 261.528 615.993 259.311C616.777 254.333 616.455 247.604 615.886 241.826C616.245 241.97 616.602 242.114 616.954 242.258C617.497 247.995 617.781 254.572 617.009 259.471C616.631 261.873 615.994 263.882 615.036 265.228C613.997 266.69 612.59 267.418 610.731 267.13C610.717 267.128 610.702 267.125 610.688 267.122C610.493 269.952 610.157 272.579 609.639 274.844C609.295 274.803 608.95 274.78 608.608 274.779C609.353 271.613 609.713 267.682 609.831 263.471C610.064 255.242 609.348 245.952 608.634 239.112Z" fill="#767474"/>
<path d="M612.422 312.671C603.754 311.453 596.716 309.822 595.018 308.522C590.163 304.808 595.027 293.724 596.216 293.757C602.393 293.93 611.953 295.656 621.975 295.33C621.726 295.573 621.482 295.822 621.243 296.076C618.906 298.553 616.857 301.376 615.202 304.352C613.641 307.161 612.742 309.833 612.422 312.671Z" fill="#9D9D9D"/>
<path d="M658.101 199.377C658.299 197.118 667.949 176.928 668.256 170.147L677.674 174.04C675.95 187.165 672.68 199.001 668.763 210.298C668.763 210.298 657.903 201.637 658.101 199.377Z" fill="#FECBA5"/>
<path d="M661.909 189.491C663.376 192.934 667.021 197.59 672.575 198.3C671.408 202.386 670.126 206.374 668.766 210.298C668.766 210.298 657.905 201.637 658.103 199.377C658.184 198.437 659.905 194.387 661.909 189.491Z" fill="#E58C6C"/>
<path d="M677.864 174.546C675.735 175.997 671.87 177.216 669.552 175.661C666.561 173.655 661.697 164.543 659.92 162.507C659.37 161.877 657.926 160.046 658.285 159.122C659.088 157.05 665.623 162.826 665.659 162.79C665.896 162.555 666.385 151.945 668.339 151.207C670.584 150.36 670.398 158.946 670.728 158.924C671.091 158.9 673.115 150.779 675.926 151.262C677.85 151.592 675.779 159.965 675.991 160.086C676.071 160.132 681.25 154.086 682.8 155.456C684.432 156.898 680.175 161.539 679.911 163.335C679.887 163.497 685.595 160.322 686.173 161.95C686.52 162.926 682.843 166.29 682.326 166.958C680.248 169.64 679.993 173.096 677.864 174.546Z" fill="#FECBA5"/>
<path d="M541.854 137.627C541.854 137.627 536.39 109.141 536.801 96.8069L525.549 98.7139C525.549 98.7139 517.467 145.804 533.386 147.577C546.718 149.061 541.405 135.449 541.854 137.627Z" fill="#FECBA5"/>
<path d="M523.632 127.853C524.346 129.261 528.154 135.16 540.951 132.671C541.428 135.385 541.771 137.197 541.84 137.56C541.843 137.58 541.847 137.602 541.853 137.627L541.84 137.56C541.52 135.75 546.569 149.045 533.385 147.576C526.621 146.823 524.19 137.884 523.632 127.853Z" fill="#E58C6C"/>
<path d="M535.074 99.5439C536.048 98.9729 537.4 97.6359 539.654 94.1099C541.213 91.6719 541.136 90.0029 540.894 88.6389C540.362 85.6399 537.168 86.6769 536.96 86.3329C536.763 86.0089 536.784 79.7629 531.615 80.1149C529.621 80.2499 529.623 81.8999 529.623 81.8999C529.623 81.8999 528.309 80.2819 526.196 80.8399C524.138 81.3839 523.964 83.8839 523.964 83.8839C523.964 83.8839 522.514 83.1429 521.465 84.9089C520.681 86.2289 521.236 87.5339 521.236 87.5339C521.236 87.5339 520.164 86.5869 519.046 88.3889C517.92 90.2039 518.14 90.8759 519.508 93.3059C520.765 95.5379 523.889 99.4969 526.045 100.391C529.808 101.952 532.395 101.114 535.074 99.5439Z" fill="#FECBA5"/>
<path d="M532.017 87.3519C533.557 86.6869 535.257 86.3659 536.903 86.0569C536.924 86.2029 536.943 86.2999 536.963 86.3329C536.982 86.3649 537.026 86.3839 537.091 86.3969C536.573 86.5109 535.951 86.6449 535.671 86.7189C535.164 86.8529 534.66 86.9929 534.163 87.1589C533.743 87.2999 533.322 87.4359 532.911 87.6009C531.637 88.1129 530.159 88.7029 529.836 90.1839C529.713 90.7469 529.805 91.2189 530.275 91.6189C530.609 91.9039 531.097 92.0829 531.51 92.1729C532.608 92.4109 533.715 92.5109 534.836 92.5709C535.223 92.5919 535.614 92.6119 536.001 92.5849C536.145 92.5759 534.933 92.8179 534.346 92.8329C533.652 92.8519 532.655 92.8809 531.721 92.7379C531.63 92.8049 531.555 92.8639 531.53 92.8829C530.813 93.4269 530.253 94.2009 529.911 95.0299C529.802 95.2929 529.542 95.9859 529.564 95.8179C529.672 95.0049 529.999 93.6939 530.481 93.0279C530.59 92.8769 530.722 92.6919 530.877 92.5489C530.084 92.3009 529.44 91.8579 529.232 91.0739C529.074 91.1029 528.893 91.0909 528.778 91.0769C528.661 91.0629 528.544 91.0349 528.427 90.9959C528.383 91.0869 528.3 91.1899 528.242 91.3089C528.174 91.4459 528.096 91.5759 528.008 91.7019C527.512 92.4169 526.549 92.5879 525.715 92.4049C525.671 92.7869 525.517 93.2059 525.386 93.5559C525.23 93.9699 525.034 94.3929 524.743 94.7299C524.25 95.2989 523.376 95.2059 522.748 94.9439C521.45 94.4019 520.481 93.4009 519.747 92.2269C519.737 92.2169 519.727 92.2069 519.717 92.1959L519.733 92.2039C519.738 92.2109 519.742 92.2189 519.747 92.2269C519.953 92.4379 520.154 92.6529 520.364 92.8589C521.141 93.6209 522.371 94.6759 523.562 94.5599C524.409 94.4779 524.983 93.4639 525.182 92.7319C525.224 92.5779 525.218 92.4089 525.233 92.2499C525.11 92.1979 524.994 92.1379 524.886 92.0699C523.097 90.9379 521.571 89.1809 520.609 87.2849C520.913 87.3059 521.133 87.4489 521.21 87.5069C521.383 87.8089 521.599 88.1039 521.753 88.3079C522.775 89.6679 524.032 91.4109 525.775 91.8149C526.225 91.9199 526.821 91.9749 527.245 91.7439C527.536 91.5849 527.738 91.2969 527.919 91.0279C527.937 91.0009 527.979 90.9039 528.024 90.8139C527.569 90.5659 527.145 90.1879 526.823 89.8689C525.824 88.8789 525.179 87.5079 524.55 86.2789C524.14 85.4769 523.74 84.6499 523.563 83.7559C523.811 83.8009 523.968 83.8809 523.968 83.8809C523.968 83.8809 523.969 83.8559 523.975 83.8099C523.988 83.8529 524.002 83.8959 524.016 83.9379C524.232 84.6019 524.548 85.2149 524.863 85.8369C525.523 87.1349 526.245 88.3609 527.183 89.4809C527.55 89.9189 528.049 90.5219 528.638 90.6649C528.806 90.7049 528.991 90.6999 529.166 90.6649C529.164 90.6269 529.162 90.5879 529.161 90.5479C529.134 89.1959 530.025 88.3969 531.122 87.7889C531.199 87.7459 531.277 87.7049 531.355 87.6639C531.302 87.2489 531.19 86.8549 531.107 86.5339C530.806 85.3779 530.486 84.1749 530.068 83.0569C529.914 82.6469 529.776 82.2309 529.63 81.8179C529.643 81.6809 529.689 81.3849 529.862 81.0769C530.279 81.8869 530.578 82.7739 530.863 83.6359C531.069 84.2569 531.24 84.8869 531.416 85.5179C531.555 86.0149 531.721 86.5099 531.9 86.9939C531.938 87.0979 531.983 87.2259 532.017 87.3519Z" fill="#D06644"/>
<path d="M578.659 238.921C578.659 238.921 575.125 250.41 578.116 250.213C583.36 249.867 614.173 250.883 635.955 256.174C635.955 256.174 639.478 257.416 632.835 249.828C626.191 242.241 583.695 235.705 578.659 238.921Z" fill="#9DC1C7"/>
<mask id="mask0_106_1248" style="mask-type:luminance" maskUnits="userSpaceOnUse" x="576" y="238" width="61" height="19">
<path d="M578.659 238.921C578.659 238.921 575.125 250.41 578.116 250.213C583.36 249.867 614.173 250.883 635.955 256.174C635.955 256.174 639.478 257.416 632.835 249.828C626.191 242.241 583.695 235.705 578.659 238.921Z" fill="white"/>
</mask>
<g mask="url(#mask0_106_1248)">
<path d="M582.669 239.176L582.388 253.151C582.383 253.435 582.608 253.67 582.892 253.676C583.176 253.682 583.411 253.456 583.417 253.172L583.698 239.197C583.704 238.913 583.478 238.678 583.194 238.672C582.91 238.666 582.675 238.892 582.669 239.176Z" fill="#5B8A9E"/>
<path d="M591.464 240.647L591.008 254.617C590.999 254.901 591.222 255.139 591.505 255.148C591.789 255.157 592.027 254.934 592.036 254.651L592.492 240.68C592.501 240.396 592.279 240.158 591.995 240.149C591.711 240.141 591.473 240.364 591.464 240.647Z" fill="#5B8A9E"/>
<path d="M600.807 240.643L600.065 254.601C600.05 254.884 600.268 255.127 600.551 255.142C600.835 255.157 601.077 254.939 601.092 254.656L601.834 240.698C601.849 240.415 601.631 240.172 601.348 240.157C601.065 240.142 600.822 240.359 600.807 240.643Z" fill="#5B8A9E"/>
<path d="M608.328 242.153L607.837 256.122C607.827 256.406 608.049 256.644 608.333 256.654C608.617 256.664 608.855 256.442 608.865 256.158L609.356 242.189C609.366 241.905 609.144 241.666 608.86 241.657C608.577 241.647 608.338 241.87 608.328 242.153Z" fill="#5B8A9E"/>
<path d="M616.506 242.266L615.857 256.228C615.844 256.512 616.063 256.753 616.347 256.766C616.631 256.779 616.871 256.56 616.885 256.276L617.534 242.314C617.547 242.03 617.328 241.789 617.044 241.776C616.76 241.762 616.519 241.982 616.506 242.266Z" fill="#5B8A9E"/>
<path d="M624.634 243.845L625.233 257.81C625.245 258.094 625.485 258.314 625.769 258.302C626.052 258.29 626.273 258.05 626.261 257.766L625.663 243.801C625.651 243.518 625.411 243.297 625.127 243.309C624.843 243.321 624.623 243.561 624.634 243.845Z" fill="#5B8A9E"/>
<path d="M631.657 247.121L632.198 261.088C632.209 261.371 632.448 261.593 632.732 261.582C633.016 261.571 633.237 261.332 633.226 261.048L632.685 247.081C632.674 246.797 632.435 246.576 632.151 246.587C631.867 246.598 631.646 246.837 631.657 247.121Z" fill="#5B8A9E"/>
</g>
<path d="M541.81 132.282C541.81 132.282 574.996 157.651 590.21 163.027C604.86 168.204 626.327 176.218 638.963 189.144C644.857 195.173 651.075 202.474 652.188 201.215C653.904 199.274 654.322 197.429 655.722 196.891C658.802 195.707 670.742 204.554 671.257 210.715C671.736 216.443 667.479 233.312 652.84 226.865C636.497 219.668 632.17 214.93 632.17 214.93C632.17 214.93 636.968 237.781 635.502 246.572C635.008 249.536 634.528 251.344 633.163 250.603C625.27 246.313 585.752 239.752 577.773 242.225C577.773 242.225 570.911 237.431 576.048 193.082C576.048 193.082 563.66 181.671 551.368 171.422C541.784 163.431 534.373 152.401 531.311 151.227C528.249 150.054 535.729 136.612 541.81 132.282Z" fill="#4E7B8E"/>
<path d="M524.679 137.441C524.679 137.441 537.268 138.346 540.754 131.672C540.754 131.672 545.353 131.372 548.067 135.584C551.682 141.193 534.386 154.451 530.48 150.882C523.927 144.892 522.677 139.341 524.679 137.441Z" fill="#9DC1C7"/>
<path d="M660.323 192.51C660.323 192.51 654.437 195.718 655.977 200.454C657.517 205.189 668.979 212.907 671.06 209.795C673.141 206.683 672.316 201.42 671.845 200.489C671.374 199.557 665.02 199.756 660.323 192.51Z" fill="#9DC1C7"/>
<path d="M651.81 202.203C651.81 202.203 650.422 210.859 654.361 217.207C652.882 212.281 652.041 207.278 651.81 202.203Z" fill="#3E6581"/>
<path d="M632.17 214.93C631.883 213.765 627.794 197.208 626.516 193.728C625.191 190.121 632.584 205.079 636.044 209.126C639.511 213.181 653.099 227.441 664.248 226.802C661.465 228.569 657.732 229.019 652.84 226.864C636.599 219.713 632.225 214.99 632.17 214.93Z" fill="#3E6581"/>
<path d="M582.264 218.268C582.264 218.268 595.997 239.432 624.389 240.704C624.389 240.704 604.927 238.105 582.264 218.268Z" fill="#3E6581"/>
<path d="M577.553 191.552C577.553 191.552 583.016 186.604 585.706 180.158L577.553 191.552Z" fill="#3E6581"/>
<path d="M581.627 170.901C581.627 170.901 582.476 183.249 577.551 189.415C577.551 189.415 581.54 177.257 581.627 170.901Z" fill="#3E6581"/>
<path d="M592.462 164.003C592.462 164.003 576.605 166.647 609.682 190.239C609.682 190.239 621.698 177.43 612.909 172.725C600.536 166.104 592.462 164.003 592.462 164.003Z" fill="#9DC1C7"/>
<path d="M593.973 165.104C593.973 165.104 582.28 165.501 609.222 186.787C609.222 186.787 618.162 177.279 611.065 172.714C601.118 166.315 593.973 165.104 593.973 165.104Z" fill="#E7F2F3"/>
<path d="M592.417 154.65C592.417 154.65 593.559 160.998 592.27 165.9C591.798 167.695 602.071 178.174 607.116 179.712C610.142 180.634 611.699 177.549 611.809 173.418C611.809 173.418 606.356 166.805 607.644 159.215C608.497 154.187 592.417 154.65 592.417 154.65Z" fill="#FECBA5"/>
<path d="M592.881 159.999C592.845 157.029 592.417 154.65 592.417 154.65C592.417 154.65 608.496 154.187 607.644 159.215C607.129 162.247 607.69 165.122 608.55 167.482C602.967 166.964 596.422 162.644 592.881 159.999Z" fill="#E58C6C"/>
<path d="M618.402 136.814C621.264 137.171 623.269 140.022 622.877 143.177C622.484 146.333 619.841 148.606 616.979 148.25C614.117 147.893 612.112 145.042 612.504 141.887C612.898 138.731 615.54 136.458 618.402 136.814Z" fill="#E58C6C"/>
<path d="M617.355 123.638C617.355 123.638 620.698 134.36 617.236 141.452C613.774 148.544 608.158 132.945 608.158 132.945L604.2 125.933L617.355 123.638Z" fill="#E09741"/>
<path d="M594.318 117.545C604.426 115.058 615.388 123.882 617.614 135.865C619.581 146.457 615.993 157.913 609.778 160.074C599.946 163.494 586.526 157.829 582.301 146.292C578.112 134.848 584.21 120.032 594.318 117.545Z" fill="#FECBA5"/>
<path d="M582.042 145.543C578.376 134.21 584.428 119.978 594.317 117.545C602.794 115.459 611.871 121.328 615.892 130.343C615.214 130.683 615.218 129.813 614.666 129.909C609.765 130.757 602.905 126.873 599.456 129.302C594.582 132.736 588.118 131.44 588.118 131.44C587.868 135.068 582.836 145.87 582.836 145.87C582.836 145.87 582.547 145.767 582.042 145.543Z" fill="#E58C6C"/>
<path d="M583.341 149.46C583.341 149.46 586.543 136.114 586.512 129.402C586.512 129.402 593.437 130.537 596.923 128.797C601.945 126.291 605.844 128.066 607.344 128.309C611.765 129.025 617.989 129.832 622.673 120.911C626.632 113.37 620.357 108.283 611.069 110.834C606.129 112.19 602.7 110.612 598.754 109.21C586.915 105.003 583.402 111.909 582.305 118.091C582.305 118.091 565.714 128.586 583.341 149.46Z" fill="#FDB44E"/>
<path d="M578.718 121.506C581.998 124.21 588.454 128.412 595.36 126.724C605.271 124.301 607.555 126.004 610.261 126.751C611.755 127.163 613.781 127.856 616.238 127.716C613.103 129.174 609.918 128.726 607.345 128.31C605.845 128.068 601.946 126.293 596.924 128.798C593.438 130.538 586.513 129.403 586.513 129.403C586.545 136.115 583.342 149.461 583.342 149.461C571.522 135.464 575.087 126.134 578.718 121.506Z" fill="#E09741"/>
<path d="M579.484 142.93C581.851 141.282 585.248 142.063 587.065 144.673C588.882 147.283 588.435 150.74 586.068 152.388C583.701 154.036 580.304 153.255 578.487 150.645C576.67 148.035 577.116 144.578 579.484 142.93Z" fill="#FECBA5"/>
<path d="M596.793 137.045C596.201 137.132 595.83 137.942 595.964 138.854C596.098 139.765 596.687 140.435 597.278 140.348C597.87 140.261 598.242 139.451 598.108 138.539C597.973 137.627 597.384 136.958 596.793 137.045Z" fill="#802419"/>
<path d="M611.005 135.976C610.408 136.012 609.969 136.789 610.026 137.708C610.082 138.628 610.613 139.344 611.209 139.308C611.806 139.272 612.244 138.495 612.188 137.576C612.132 136.657 611.601 135.939 611.005 135.976Z" fill="#802419"/>
<path d="M600.457 134.264C600.457 134.264 596.674 127.772 592.267 134.559C592.267 134.559 596.552 132.197 600.457 134.264Z" fill="#802419"/>
<path d="M615.237 133.121C615.237 133.121 611.712 127.221 607.877 133.439C607.877 133.439 612.028 131.158 615.237 133.121Z" fill="#802419"/>
<path d="M606.936 136.484C606.936 136.484 606.253 141.378 606.988 142.127C608.197 143.359 607.912 143.766 606.951 144.229C606.951 144.229 611.759 143.314 609.4 141.593C607.278 140.045 606.936 136.484 606.936 136.484Z" fill="#802419"/>
<path d="M608.457 146.793C607.113 146.519 601.845 145.308 600.039 145.096C598.208 144.881 598.041 152.128 602.664 153.307C606.985 154.408 610.227 147.154 608.457 146.793Z" fill="#802419"/>
<path d="M608.911 147.287C608.846 147.019 608.698 146.842 608.456 146.793C607.112 146.519 601.844 145.308 600.038 145.096C599.69 145.055 599.402 145.284 599.195 145.691C599.747 146.726 601.18 147.383 604.449 148.089C606.981 148.635 608.266 147.988 608.911 147.287Z" fill="white"/>
<path d="M399.588 349.748C399.588 349.748 416.678 404.636 426.836 397.22C436.994 389.804 452.115 340.492 452.115 340.492L442.135 337.817L427.7 365.312L423.669 341.757L399.588 349.748Z" fill="#EC9A6F"/>
<path d="M428.837 363.145L442.134 337.817L452.114 340.492C452.114 340.492 442.176 372.901 433.001 389.124C434.089 378.006 430.298 366.915 428.837 363.145Z" fill="#D06644"/>
<path d="M422.613 342.107C423.032 342.55 423.503 343.079 423.997 343.678L426.928 360.805C421.582 362.285 409.006 358.868 401.88 356.662C400.441 352.489 399.588 349.747 399.588 349.747L422.613 342.107Z" fill="#D06644"/>
<path d="M433.374 353.871C433.374 353.871 460.434 395.362 470.227 386.144C480.019 376.926 482.534 327.802 482.534 327.802L474.193 323.037L466.408 353.915L453.816 337.233L433.374 353.871Z" fill="#EC9A6F"/>
<path d="M460.655 346.292C454.825 351.348 442.809 356.727 437.008 359.161C434.757 355.989 433.376 353.872 433.376 353.872L453.817 337.234L460.655 346.292Z" fill="#D06644"/>
<path d="M472.388 320.366C473.872 315.338 475.734 313.671 479.642 315.21C487.576 318.334 509.725 335.307 505.561 337.946C500.858 340.927 493.049 338.83 486.085 335.604C476.876 331.337 470.779 325.817 472.388 320.366Z" fill="#EC9A6F"/>
<path d="M472.98 318.593C472.771 319.128 472.574 319.719 472.383 320.365C470.774 325.817 476.871 331.336 486.08 335.602C490.464 337.633 495.182 339.216 499.251 339.361C497.446 331.647 479.896 322.071 472.98 318.593Z" fill="#EC9A6F"/>
<path d="M499.252 339.362C501.646 339.457 503.814 339.05 505.557 337.945C509.72 335.306 487.572 318.333 479.638 315.209C476.233 313.868 474.381 314.962 472.981 318.593C479.895 322.071 497.458 331.644 499.252 339.362Z" fill="#629482"/>
<path d="M395.814 305.779C395.814 305.779 388.362 343.193 394.643 351.133C397.797 355.12 422.14 362.124 428.42 357.032L428.77 352.445L434.055 357.308C434.055 357.308 461.941 348.719 462.182 336.919C462.363 328.052 444.96 319.822 441.754 312.828C438.547 305.833 395.814 305.779 395.814 305.779Z" fill="#FDB44E"/>
<path d="M394.636 312.427C395.289 308.41 395.814 305.779 395.814 305.779C395.814 305.779 438.548 305.833 441.754 312.828C442.57 314.609 444.308 316.471 446.44 318.402C432.569 328.178 406.998 318.251 394.636 312.427Z" fill="#D88E4A"/>
<path d="M415.738 336.848C416.5 340.293 417.703 343.533 419.538 346.188C419.699 346.421 419.641 346.742 419.408 346.903C419.175 347.064 418.854 347.006 418.693 346.772C415.205 341.727 413.9 334.642 413.611 327.951C413.18 317.997 414.978 308.933 414.978 308.933C415.033 308.654 415.304 308.473 415.583 308.528C415.861 308.583 416.043 308.854 415.987 309.133C415.987 309.133 414.214 318.081 414.639 327.907C414.753 330.538 415.023 333.232 415.529 335.834C416.843 335.696 418.264 334.853 419.212 331.753C420.13 328.75 421.869 310.259 421.869 310.259C421.896 309.976 422.146 309.769 422.429 309.795C422.711 309.822 422.919 310.072 422.893 310.355C422.893 310.355 421.122 329.021 420.195 332.053C419.577 334.073 418.756 335.256 417.897 335.946C417.19 336.514 416.449 336.762 415.738 336.848Z" fill="#B96634"/>
<path d="M427.928 357.383C427.025 354.644 426.127 353.454 422.594 350.607C419.705 348.279 408.271 342.993 413.509 344.189C419.219 345.493 423.425 346.1 423.982 346.42C424.538 346.74 428.823 352.474 428.823 352.474L428.828 352.5L428.769 352.446L428.419 357.033C428.266 357.157 428.102 357.274 427.928 357.383Z" fill="#D88E4A"/>
<path d="M436.826 244.65C436.826 244.65 420.197 201.075 438.904 161.116C438.904 161.116 445.195 152.801 440.191 147.867C436.462 144.191 425.398 139.698 420.004 148.425C412.813 160.059 400.865 195.499 403.83 246.053C403.83 246.053 379.631 298.916 395.352 309.094C404.879 315.261 435.921 321.898 440.474 315.922C440.474 315.922 450.586 322.117 461.261 305.399C472.635 287.586 474.434 287.535 476.444 283.54C478.454 279.545 471.906 269.618 466.422 268.73C461.867 267.993 454.935 277.75 454.935 277.75C454.935 277.75 461.748 262.149 455.434 255.398C445.335 244.601 436.826 244.65 436.826 244.65Z" fill="#9ECBB4"/>
<path d="M421.57 229.606C421.57 229.606 409.188 237.045 405.7 243.834C405.7 243.834 407.844 234.777 421.57 229.606Z" fill="#629482"/>
<path d="M469.978 269.145C469.978 269.145 464.656 269.763 464.837 272.156C465.178 276.663 472.483 283.925 474.035 282.989C476.944 281.235 477.963 277.53 477.963 277.53L469.978 269.145Z" fill="#C7DCD3"/>
<path d="M428.798 141.135C428.798 141.135 424.63 144.501 426.061 146.427C428.757 150.055 438.892 152.327 439.624 150.669C440.356 149.012 440.401 145.545 440.401 145.545L428.798 141.135Z" fill="#C7DCD3"/>
<path d="M440.227 316.209C440.122 316.195 440.041 316.18 440.029 316.176C419.554 309.008 438.974 272.809 438.974 272.809C438.974 272.809 434.079 284.153 432.511 298.745C431.459 308.529 438.392 314.298 440.472 315.927C440.397 316.024 440.315 316.118 440.227 316.209Z" fill="#629482"/>
<path d="M455.497 276.34C455.217 277.093 455.009 277.59 454.942 277.746C453.102 279.83 446.974 286.841 446.2 288.675C445.288 290.838 443.187 288.479 444.382 295.318C444.382 295.318 439.99 290.268 444.351 288.164C444.352 288.166 451.113 279.993 455.497 276.34Z" fill="#629482"/>
<path d="M430.369 144.842C432.245 146.608 435.87 148.418 438.404 147.245C441.672 145.731 447.903 137.494 449.977 135.762C450.619 135.226 452.332 133.643 452.123 132.675C451.653 130.503 444.295 135.184 444.265 135.143C444.067 134.874 445.246 124.318 443.432 123.283C441.347 122.094 440.187 130.604 439.864 130.53C439.509 130.449 438.782 122.111 435.93 122.148C433.979 122.173 434.712 130.767 434.484 130.853C434.398 130.886 430.23 124.103 428.485 125.214C426.648 126.383 430.125 131.633 430.105 133.448C430.103 133.612 424.963 129.582 424.137 131.1C423.642 132.01 426.746 135.907 427.153 136.648C428.783 139.623 428.493 143.076 430.369 144.842Z" fill="#EC9A6F"/>
<path d="M470.235 270.751C469.965 269.654 469.983 267.753 470.942 263.68C471.605 260.863 472.855 259.755 474.002 258.978C476.524 257.27 478.005 260.284 478.397 260.194C478.767 260.108 483.233 255.743 486.582 259.696C487.874 261.221 486.69 262.369 486.69 262.369C486.69 262.369 488.766 262.184 489.838 264.089C490.881 265.944 489.21 267.811 489.21 267.811C489.21 267.811 490.751 268.334 490.216 270.318C489.816 271.8 488.492 272.311 488.492 272.311C488.492 272.311 489.918 272.421 489.405 274.478C488.888 276.551 488.252 276.86 485.556 277.572C483.079 278.226 478.063 278.742 475.92 277.819C472.176 276.206 470.975 273.767 470.235 270.751Z" fill="#EC9A6F"/>
<path d="M481.114 264.453C480.518 262.885 479.564 261.442 478.638 260.046C478.519 260.132 478.437 260.187 478.398 260.196C478.362 260.204 478.317 260.186 478.263 260.148C478.543 260.599 478.879 261.139 479.021 261.391C479.278 261.848 479.529 262.307 479.756 262.78C479.947 263.179 480.144 263.577 480.311 263.986C480.831 265.257 481.437 266.727 480.6 267.991C480.281 268.472 479.88 268.735 479.265 268.676C478.829 268.635 478.359 268.41 478.007 268.176C477.071 267.555 476.228 266.83 475.404 266.068C475.12 265.805 474.833 265.538 474.582 265.242C474.489 265.132 475.159 266.17 475.557 266.602C476.028 267.113 476.701 267.849 477.455 268.419C477.47 268.531 477.48 268.624 477.484 268.657C477.594 269.55 477.429 270.491 477.072 271.314C476.959 271.575 476.643 272.244 476.748 272.111C477.256 271.467 477.968 270.318 478.111 269.509C478.144 269.325 478.184 269.102 478.179 268.891C478.909 269.287 479.676 269.44 480.383 269.044C480.472 269.177 480.607 269.298 480.698 269.372C480.789 269.447 480.892 269.511 481.001 269.567C480.967 269.662 480.95 269.793 480.906 269.918C480.855 270.062 480.816 270.209 480.787 270.359C480.62 271.213 481.168 272.023 481.881 272.493C481.638 272.791 481.444 273.194 481.284 273.532C481.095 273.932 480.929 274.367 480.89 274.812C480.825 275.562 481.501 276.124 482.126 276.392C483.419 276.946 484.812 276.943 486.166 276.652C486.18 276.652 486.194 276.652 486.209 276.652L486.193 276.646C486.184 276.648 486.175 276.649 486.167 276.651C485.872 276.65 485.577 276.656 485.283 276.649C484.196 276.623 482.582 276.475 481.835 275.54C481.304 274.875 481.631 273.757 482.017 273.105C482.099 272.968 482.224 272.854 482.327 272.733C482.45 272.785 482.574 272.826 482.697 272.856C484.755 273.351 487.079 273.221 489.109 272.591C488.882 272.388 488.626 272.33 488.531 272.314C488.194 272.4 487.831 272.451 487.578 272.483C485.891 272.697 483.764 273.01 482.26 272.041C481.871 271.791 481.416 271.403 481.287 270.937C481.198 270.618 481.263 270.272 481.33 269.955C481.337 269.923 481.377 269.825 481.411 269.731C481.906 269.885 482.473 269.926 482.926 269.934C484.332 269.961 485.765 269.468 487.085 269.063C487.946 268.798 488.818 268.51 489.582 268.013C489.377 267.866 489.21 267.81 489.21 267.81C489.21 267.81 489.227 267.791 489.256 267.755C489.216 267.776 489.176 267.796 489.135 267.816C488.508 268.123 487.848 268.324 487.182 268.531C485.791 268.962 484.408 269.298 482.952 269.405C482.381 269.447 481.601 269.51 481.089 269.186C480.943 269.094 480.818 268.957 480.721 268.807C480.75 268.782 480.779 268.756 480.808 268.729C481.797 267.807 481.749 266.611 481.421 265.4C481.398 265.314 481.374 265.23 481.348 265.146C481.683 264.895 482.043 264.701 482.332 264.537C483.371 263.947 484.456 263.339 485.549 262.86C485.95 262.684 486.345 262.495 486.743 262.31C486.833 262.205 487.013 261.966 487.113 261.628C486.241 261.894 485.397 262.297 484.58 262.693C483.991 262.978 483.42 263.295 482.845 263.608C482.392 263.855 481.922 264.081 481.449 264.289C481.352 264.332 481.228 264.39 481.114 264.453Z" fill="#D06644"/>
<path d="M431.751 228.554C434.106 238.336 436.825 244.649 436.825 244.649C436.825 244.649 441.528 244.622 448.09 249.045C446.258 250.469 443.978 252.283 441.265 254.518C439.284 256.151 433.294 262.145 423.852 258.157C414.841 254.351 415.998 243.266 427.547 231.211C428.895 229.806 430.308 228.959 431.751 228.554Z" fill="#D06644"/>
<path d="M434.054 236.884C435.585 241.769 436.825 244.649 436.825 244.649C436.825 244.649 441.528 244.622 448.09 249.044C446.258 250.468 443.978 252.282 441.265 254.518C439.575 255.91 434.971 260.475 427.797 259.315C416.731 248.364 427.088 240.32 434.054 236.884Z" fill="#EC9A6F"/>
<path d="M443.477 240.505C443.477 240.505 438.559 243.265 439.99 246.871C441.681 251.134 422.709 252.25 424.562 246.156C425.251 243.888 427.797 242.198 430.335 235.339C432.658 229.06 443.477 240.505 443.477 240.505Z" fill="#EC9A6F"/>
<path d="M427.725 240.926C428.541 239.54 429.439 237.762 430.335 235.339C432.658 229.06 443.478 240.506 443.478 240.506C443.478 240.506 440.218 242.336 439.778 244.961C434.457 244.932 429.903 242.387 427.725 240.926Z" fill="#D06644"/>
<path d="M425.497 220.4C425.497 220.4 424.3 223.393 420.658 225.766C418.129 227.415 415.871 229.406 415.037 231.251C414.203 233.096 420.308 230.993 423.051 233.56C425.794 236.127 429.952 236.915 432.397 235.773C434.842 234.631 435.031 228.569 435.031 228.569L425.497 220.4Z" fill="#191919"/>
<path d="M430.906 214.214C433.502 215.948 434.154 219.534 432.363 222.216C430.571 224.899 427.008 225.668 424.413 223.934C421.817 222.2 421.164 218.614 422.956 215.932C424.748 213.25 428.31 212.48 430.906 214.214Z" fill="#D06644"/>
<path d="M461.296 199.874C471.305 206.04 472.221 221.42 465.001 233.139C457.781 244.858 439.626 246.774 430.849 239.942C424.008 234.617 421.415 224.691 428.636 212.972C435.857 201.253 451.287 193.707 461.296 199.874Z" fill="#EC9A6F"/>
<path d="M429.749 211.289C437.346 200.55 451.774 194.007 461.296 199.873C471.305 206.039 472.221 221.419 465.001 233.138C461.144 239.398 454.166 242.861 447.165 243.687C448.939 240.497 455.738 228.094 455.757 225.335C455.757 225.335 446.23 211.497 447.914 204.848C447.914 204.848 436.725 206.118 429.749 211.289Z" fill="#D06644"/>
<path d="M448.855 202.396C448.855 202.396 450.619 215.997 457.679 223.84C457.679 223.84 450.977 241.081 441.15 246.285C441.15 246.285 450.226 248.403 453.367 247.437C457.921 246.036 458.175 249.572 461.245 249.677C464.995 249.804 490.372 214.525 463.908 198.866C436.878 182.873 430.941 197.976 428.552 204.786C426.525 210.564 428.27 213.817 428.27 213.817C428.27 213.817 436.27 201.689 448.855 202.396Z" fill="#2D2C2A"/>
<path d="M475.8 219.948C475.368 234.741 463.694 249.76 461.244 249.677C458.174 249.573 457.92 246.036 453.366 247.437C450.225 248.403 441.149 246.285 441.149 246.285C450.976 241.081 457.678 223.84 457.678 223.84C455.897 221.861 454.453 219.516 453.29 217.116C462.483 219.257 470.802 219.825 475.8 219.948ZM428.009 206.616C429.399 207.552 430.822 208.422 432.268 209.232C429.688 211.668 428.269 213.817 428.269 213.817C428.269 213.817 426.891 211.246 428.009 206.616Z" fill="#191919"/>
<path d="M444.955 217.38C444.955 217.38 453.071 212.984 450.46 222.297C450.46 222.297 451.379 216.301 444.955 217.38Z" fill="#56181D"/>
<path d="M430.939 212.615C430.939 212.615 438.083 205.078 437.973 214.885C437.973 214.885 436.234 208.929 430.939 212.615Z" fill="#56181D"/>
<path d="M437.133 219.582C437.162 220.228 436.405 222.257 435.286 222.795C434.271 223.283 434.161 224.668 434.405 225.456C434.405 225.456 432.432 222.733 434.04 222.234C436.064 221.605 437.116 219.199 437.133 219.582Z" fill="#56181D"/>
<path d="M433.805 227.92C435.177 228.125 440.603 228.8 442.393 229.224C444.207 229.654 441.854 236.608 437.052 236.126C432.564 235.676 431.998 227.65 433.805 227.92Z" fill="#56181D"/>
<path d="M433.202 228.234C433.356 228.002 433.559 227.884 433.805 227.921C435.177 228.126 440.603 228.801 442.393 229.225C442.738 229.307 442.933 229.625 442.988 230.083C442.105 230.876 440.514 231.005 437.163 230.543C434.569 230.185 433.572 229.124 433.202 228.234Z" fill="white"/>
<path d="M435.395 217.914C435.395 217.914 433.451 212.441 430.044 217.381C431.652 216.413 433.404 216.383 435.395 217.914Z" fill="#56181D"/>
<path d="M447.249 225.789C447.249 225.789 448.678 219.314 441.991 221.838C444.284 221.949 446.135 223.047 447.249 225.789Z" fill="#56181D"/>
<path d="M265.927 67.146C260.356 71.1 252.198 83.369 254.672 110.722C257.436 141.294 252.4 136.056 246.601 143.02C240.803 149.983 237.726 157.29 247.618 165.062C257.509 172.835 257.393 175.767 257.067 180.062C256.741 184.357 260.57 191.048 273.473 187.328C290.174 182.513 296.839 193.98 303.598 190.439C310.357 186.898 344.813 168.732 346.215 157.708C347.616 146.684 342.606 136.459 334.283 136.407C325.96 136.355 326.484 126.64 328.218 121.295C329.953 115.95 317.485 109 313.829 105.274C310.174 101.548 307.834 92.506 308.823 89.12C309.813 85.733 302.405 75.379 299.269 74.043C296.133 72.705 272.027 62.817 265.927 67.146Z" fill="#2B2C2C"/>
<path d="M255.08 89.187C266.229 99.092 290.987 116.593 324.655 114.13C327.198 116.564 328.94 119.069 328.218 121.295C326.483 126.64 325.96 136.355 334.283 136.407C342.606 136.459 347.616 146.684 346.215 157.708C344.813 168.732 310.357 186.898 303.598 190.439C296.839 193.98 290.173 182.513 273.473 187.328C260.569 191.049 256.741 184.357 257.067 180.062C257.393 175.767 257.509 172.835 247.618 165.062C237.726 157.29 240.803 149.983 246.601 143.02C252.4 136.056 257.436 141.294 254.672 110.722C253.893 102.123 254.167 95.014 255.08 89.187Z" fill="#191919"/>
<path d="M288.347 190.962C288.347 190.962 340.926 182.995 349.147 173.626C349.147 173.626 348.828 165.728 339.98 163.661C331.131 161.594 299.014 167.857 294.417 176.788C289.821 185.72 288.347 190.962 288.347 190.962Z" fill="#A07334"/>
<path d="M284.139 166.077C283.396 167.348 286.7 173.323 287.14 174.453C289.492 180.494 297.301 188.967 292.681 193.81C287.774 198.956 284.127 200.171 277.577 208.86C270.853 217.779 256.732 240.255 253.371 241.002C251.883 241.333 257.494 210.831 257.236 208.895C257.101 207.881 245.275 205.808 244.948 206.201C242.51 209.125 225.009 272.43 238.382 277.759C255.163 284.447 315.624 223.913 318.934 224.832C325.144 226.557 348.331 257.725 342.605 258.983C339.996 259.556 296.491 267.456 295.956 268.607C295.212 270.21 297.377 278.848 298.289 280.55C298.828 281.555 358.709 286.848 372.187 274.582C377.786 269.486 373.667 243.614 362.143 220.554C354.152 204.565 343.544 190.766 339.618 173.098C338.701 168.973 335.699 156.584 334.225 156.079C328.209 154.018 323.411 157.95 320.581 158.679C309.302 161.584 284.139 166.077 284.139 166.077Z" fill="#EC9A6F"/>
<path d="M293.686 192.315C304.197 189.49 327.999 184.035 344.403 187.434C349.392 198.828 356.435 209.131 362.143 220.552C373.668 243.612 377.787 269.484 372.187 274.58C363.389 282.587 334.816 283.112 315.883 282.231C309.6 278.006 307.932 270.708 310.602 265.138C323.672 262.505 340.989 259.337 342.605 258.982C348.33 257.724 325.143 226.556 318.933 224.831C315.623 223.912 255.161 284.446 238.381 277.758C230.213 274.503 233.564 249.619 237.965 230.073C243.872 223.991 250.417 222.841 254.742 226.468C253.601 234.049 252.649 241.162 253.372 241.001C256.733 240.254 270.853 217.778 277.578 208.859C284.129 200.171 287.775 198.955 292.682 193.809C293.126 193.343 293.455 192.843 293.686 192.315Z" fill="#04566F"/>
<path d="M317.642 225.364C319.621 223.449 323.619 221.533 325.056 220.717C325.697 220.354 327.354 219.05 328.167 219.05C328.219 219.05 328.56 220.641 328.581 220.707C329.018 222.031 329.563 223.332 330.127 224.606C331.548 227.819 333.355 230.824 335.097 233.869C337.396 237.887 339.891 241.721 342.855 245.283C345.151 248.044 348.672 251.403 350.097 254.788C351.321 257.694 348.037 259.461 345.713 260.121C342.467 261.043 337.412 261.544 333.202 260.771C338.216 259.825 341.901 259.137 342.605 258.982C348.331 257.724 325.143 226.556 318.934 224.831C318.724 224.773 318.285 224.961 317.642 225.364Z" fill="#0C4466"/>
<path d="M347.925 194.756C352.401 203.375 357.68 211.622 362.143 220.553C373.668 243.613 377.787 269.485 372.187 274.581C370.162 276.425 367.088 277.871 363.325 278.996C363.616 278.591 363.9 278.179 364.172 277.759C368.581 270.954 370.549 263.361 369.182 255.345C367.314 244.389 363.865 233.109 359.243 223.012C356.351 216.694 352.308 210.952 349.99 204.365C348.926 201.338 348.262 198.042 347.925 194.756Z" fill="#1F7B88"/>
<path d="M299.665 269.171C296.177 265.257 293.781 264.545 290.903 267.604C285.062 273.815 272.277 298.619 277.169 299.228C282.694 299.916 288.861 294.687 293.782 288.797C300.288 281.008 303.446 273.414 299.665 269.171Z" fill="#EC9A6F"/>
<path d="M298.368 267.823C298.785 268.218 299.216 268.668 299.665 269.171C303.447 273.414 300.289 281.009 293.782 288.797C290.684 292.505 287.093 295.951 283.475 297.818C281.815 290.07 293.599 273.92 298.368 267.823Z" fill="#EC9A6F"/>
<path d="M283.475 297.818C281.351 298.926 279.216 299.483 277.169 299.228C272.277 298.619 285.062 273.815 290.903 267.604C293.41 264.938 295.552 265.136 298.368 267.823C293.6 273.919 281.803 290.073 283.475 297.818Z" fill="#2B2C2C"/>
<path d="M258.071 209.585C262.046 206.167 262.801 203.784 259.793 200.853C253.686 194.902 229.113 181.681 228.417 186.561C227.631 192.073 232.75 198.331 238.552 203.355C246.224 209.999 253.761 213.291 258.071 209.585Z" fill="#EC9A6F"/>
<path d="M229.887 193.241C228.704 190.979 228.11 188.713 228.417 186.56C229.113 181.68 253.686 194.902 259.793 200.852C262.129 203.128 262.196 205.074 260.246 207.431C254.269 204.271 237.51 195.569 229.887 193.241Z" fill="#2B2C2C"/>
<path d="M336.264 93.471C336.484 87.774 338.521 83.297 337.933 79.519C336.318 69.16 321.487 55.113 321.487 55.113L326.167 49.517C326.167 49.517 354.618 69.799 355.327 82.744C355.449 84.958 354.617 93.197 353.55 96.025C345.892 116.313 336.191 95.369 336.264 93.471Z" fill="#EC9A6F"/>
<path d="M336.808 88.801C340.93 89.904 348.842 91.803 354.51 91.824C354.233 93.542 353.905 95.083 353.549 96.024C345.891 116.313 336.191 95.369 336.264 93.471C336.328 91.816 336.546 90.263 336.808 88.801Z" fill="#D06644"/>
<path d="M326.521 49.963C326.521 49.963 324.376 56.889 323.988 56.969C321.364 57.507 310.377 56.781 307.685 57.02C306.852 57.095 304.522 57.185 303.986 56.352C302.784 54.483 311.298 52.597 311.29 52.546C311.24 52.216 302.947 45.579 303.5 43.565C304.135 41.251 310.97 46.452 311.145 46.172C311.339 45.863 305.963 39.45 308.007 37.46C309.406 36.099 314.959 42.698 315.181 42.599C315.265 42.561 313.422 34.817 315.442 34.369C317.568 33.898 318.817 40.07 320.114 41.34C320.232 41.455 321.021 34.971 322.678 35.461C323.671 35.755 324.229 40.707 324.464 41.518C325.411 44.779 325.699 46.67 326.521 49.963Z" fill="#EC9A6F"/>
<path d="M250.449 103.564C250.449 103.564 237.674 88.891 236.535 86.301C235.232 83.339 235.197 78.689 250.249 58.371L245.94 52.33C245.94 52.33 219.19 73.079 219.84 84.384C220.554 96.8 235.59 115.317 245.004 121.129C254.418 126.94 250.449 103.564 250.449 103.564Z" fill="#EC9A6F"/>
<path d="M246.489 98.9519C248.726 101.585 250.449 103.563 250.449 103.563C250.449 103.563 254.418 126.939 245.005 121.128C242.29 119.452 239.107 116.719 235.936 113.38C240.91 111.456 245.038 102.468 246.489 98.9519Z" fill="#D06644"/>
<path d="M244.949 52.9229C244.949 52.9229 247.382 59.7539 247.773 59.8169C250.418 60.2449 261.365 59.0589 264.064 59.1859C264.9 59.2249 267.231 59.2179 267.732 58.3629C268.855 56.4459 260.269 54.9169 260.275 54.8659C260.312 54.5339 268.319 47.5559 267.682 45.5669C266.951 43.2809 260.34 48.7639 260.152 48.4919C259.946 48.1919 265.049 41.5589 262.923 39.6569C261.469 38.3559 256.196 45.1819 255.97 45.0909C255.885 45.0569 257.402 37.2419 255.365 36.8789C253.221 36.4969 252.232 42.7169 250.989 44.0389C250.876 44.1589 249.816 37.7139 248.181 38.2729C247.201 38.6089 246.852 43.5789 246.65 44.3989C245.842 47.6969 245.633 49.5989 244.949 52.9229Z" fill="#EC9A6F"/>
<path d="M247.654 98.21C247.654 98.21 275.179 129.201 291.1 123.227C307.021 117.253 332.379 100.447 335.611 89.249L356.608 94.937C356.608 94.937 349.294 124.56 329.914 136.854C329.914 136.854 347.992 158.17 349.146 173.658C349.146 173.658 344.169 168.57 321.583 174.503C304.776 178.918 288.344 190.961 288.344 190.961C286.175 179.006 283.583 171.774 274.394 152.346L236.989 120.949C236.988 120.951 246.979 106.256 247.654 98.21Z" fill="#FDD553"/>
<path d="M329.74 135.581C327.175 131.812 325.219 127.586 321.988 124.286C320.529 122.796 315.912 119.156 315.969 119.07C316.104 118.868 320.779 121.439 321.845 122.258C327.242 126.402 329.74 135.581 329.74 135.581Z" fill="#BA7F11"/>
<path d="M330.762 133.909C330.867 134.059 329.964 129.833 329.714 128.589C329.081 125.436 328.3 122.335 327.318 119.271C327.214 118.947 326.409 116.318 326.409 116.318C326.409 116.318 328.568 119.025 329.335 121.321C330.615 125.152 330.762 133.909 330.762 133.909Z" fill="#BA7F11"/>
<path d="M276.948 151.241C276.952 151.281 277.31 150.855 277.315 150.848C277.602 150.472 277.872 150.084 278.138 149.693C278.848 148.647 279.406 147.406 279.864 146.231C280.401 144.855 281.28 143.704 281.809 139.622C282.315 135.719 281.567 130.847 281.567 130.847C281.567 130.847 281.039 133.939 280.866 135.203C280.387 138.705 279.739 142.26 278.813 145.675C278.619 146.391 277.575 148.906 277.575 148.906C277.575 148.906 277.878 143.862 277.281 140.741C276.346 135.851 274.676 129.844 274.032 129.807C273.878 129.798 275.439 135.336 276.21 140.719C276.974 146.057 276.948 151.241 276.948 151.241Z" fill="#BA7F11"/>
<path d="M306.472 83.6639C309.483 82.8389 312.688 84.9459 313.624 88.3649C314.56 91.7839 312.876 95.2299 309.865 96.0539C306.854 96.8789 303.65 94.7719 302.713 91.3529C301.776 87.9339 303.461 84.4889 306.472 83.6639Z" fill="#D06644"/>
<path d="M299.043 109.227C299.043 109.227 300.302 119.441 305.083 118.689C309.864 117.938 313.982 128.535 309.65 134.004C305.318 139.474 283.654 136.024 281.596 127.11C279.538 118.195 288.416 122.443 285.253 115.477C280.064 104.046 299.043 109.227 299.043 109.227Z" fill="#EC9A6F"/>
<path d="M285.538 116.156C285.456 115.942 285.362 115.716 285.254 115.477C280.065 104.046 299.044 109.228 299.044 109.228C299.044 109.228 299.555 113.372 301.162 116.187C296.706 118.065 289.3 116.93 285.538 116.156Z" fill="#D06644"/>
<path d="M275.903 69.4629C286.644 64.6839 299.855 72.6109 305.451 85.1869C311.047 97.7629 307.438 111.323 298.899 114.403C293.204 116.457 277.667 115.577 269.645 103.919C261.841 92.5799 265.162 74.2429 275.903 69.4629Z" fill="#EC9A6F"/>
<path d="M272.265 107.108C271.327 106.147 270.448 105.087 269.644 103.919C261.841 92.58 265.162 74.243 275.903 69.463C286.108 64.922 298.542 71.851 304.556 83.339C303.53 82.496 302.488 82.001 302.488 82.001C304.586 87.439 294.816 80.246 294.816 80.246C299.216 86.814 284.186 82.728 284.186 82.728C287.55 90.673 271.708 84.459 271.708 84.459C270.758 89.023 271.703 101.7 272.265 107.108Z" fill="#D06644"/>
<path d="M293.13 149.506C302.308 140.388 307.316 130.468 289.767 121.865C266.846 110.628 269.737 95.4419 269.796 81.7309C269.796 81.7309 289.31 91.1519 280.961 80.3659C280.961 80.3659 296.889 87.9779 292.801 77.7639C292.801 77.7639 307.277 89.2349 299.197 76.6509C299.197 76.6509 306.523 85.1739 307.048 89.9129C307.048 89.9129 307.635 60.1279 290.556 57.7939C267.291 54.6139 261.692 75.3829 261.692 75.3829C261.692 75.3829 255.293 93.8489 261.497 108.636C266.381 120.277 277.123 126.958 284.813 132.711C292.742 138.643 290.247 152.37 293.13 149.506Z" fill="#2B2C2C"/>
<path d="M283.117 89.634C283.117 89.634 276.183 83.541 276.656 93.202C276.656 93.202 277.094 87.152 283.117 89.634Z" fill="#56181D"/>
<path d="M302.456 85.9599C302.456 85.9599 296.58 77.3969 295.153 87.0999C295.153 87.0999 297.803 81.4899 302.456 85.9599Z" fill="#56181D"/>
<path d="M293.764 89.121C293.764 89.121 293.388 94.374 295.825 95.366C297.423 96.017 296.309 97.609 295.577 98.385C295.577 98.385 300.837 96.054 298.101 95.035C293.962 93.494 293.764 89.121 293.764 89.121Z" fill="#56181D"/>
<path d="M297.344 100.405C295.917 100.392 290.301 100.204 288.415 100.346C286.504 100.491 287.773 107.928 292.726 108.212C297.356 108.478 299.221 100.421 297.344 100.405Z" fill="#56181D"/>
<path d="M297.906 100.819C297.787 100.558 297.6 100.406 297.344 100.404C295.917 100.391 290.301 100.203 288.415 100.345C288.052 100.373 287.803 100.664 287.673 101.12C288.442 102.068 290.036 102.454 293.512 102.525C296.204 102.58 297.387 101.664 297.906 100.819Z" fill="white"/>
<path d="M296.828 90.8909C296.828 90.8909 298.308 85.2739 302.115 89.9119C300.432 89.0819 298.684 89.1979 296.828 90.8909Z" fill="#56181D"/>
<path d="M279.996 97.5759C279.996 97.5759 279.598 90.9569 285.808 94.4979C283.525 94.2469 281.526 95.0419 279.996 97.5759Z" fill="#56181D"/>
<path d="M198.941 362.16C204.301 361.672 207.059 364.633 207.83 370.802C208.86 379.037 207.243 397.859 202.591 398.518C197.262 399.272 192.29 390.834 191.395 380.998C190.5 371.161 193.58 362.648 198.941 362.16Z" fill="#804E48"/>
<path d="M203.326 362.752C205.87 363.909 207.307 366.618 207.83 370.802C208.86 379.037 207.243 397.859 202.591 398.518C202.373 398.549 202.156 398.564 201.94 398.565C207.784 383.373 205.273 369.513 203.326 362.752Z" fill="#FFE9DA"/>
<path d="M191.772 378.941C191.772 378.941 195.19 378.685 199.355 376.576C199.917 376.291 200.143 375.604 199.858 375.042C199.573 374.479 198.886 374.254 198.324 374.539C194.623 376.414 191.594 376.665 191.594 376.665C190.965 376.714 190.496 377.264 190.545 377.893C190.594 378.521 191.144 378.99 191.772 378.941Z" fill="#FFE2D5"/>
<path d="M191.943 382.629C191.943 382.629 195.361 382.373 199.526 380.263C200.088 379.979 200.313 379.291 200.029 378.729C199.744 378.167 199.057 377.942 198.494 378.226C194.793 380.101 191.764 380.352 191.764 380.352C191.136 380.401 190.666 380.951 190.716 381.58C190.765 382.208 191.315 382.678 191.943 382.629Z" fill="#FFE2D5"/>
<path d="M192.136 386.069C192.136 386.069 195.554 385.814 199.719 383.703C200.282 383.419 200.507 382.731 200.222 382.169C199.937 381.607 199.25 381.382 198.688 381.666C194.987 383.541 191.958 383.792 191.958 383.792C191.329 383.841 190.86 384.391 190.909 385.02C190.957 385.648 191.507 386.118 192.136 386.069Z" fill="#FFE2D5"/>
<path d="M85.143 300.391C90.1 298.292 93.628 300.271 96.243 305.913C99.734 313.442 103.932 331.861 99.702 333.906C94.857 336.249 87.549 329.728 83.699 320.632C79.847 311.537 80.187 302.49 85.143 300.391Z" fill="#804E48"/>
<path d="M85.032 322.841C85.032 322.841 88.123 322.025 91.613 319.165C92.084 318.779 92.184 318.031 91.837 317.494C91.489 316.958 90.825 316.835 90.354 317.221C87.253 319.761 84.517 320.511 84.517 320.511C83.949 320.664 83.603 321.31 83.746 321.952C83.888 322.596 84.464 322.994 85.032 322.841Z" fill="#FFE2D5"/>
<path d="M86.391 325.544C86.391 325.544 89.482 324.727 92.972 321.868C93.443 321.482 93.543 320.733 93.196 320.197C92.849 319.66 92.184 319.538 91.713 319.924C88.612 322.464 85.876 323.214 85.876 323.214C85.308 323.367 84.962 324.013 85.105 324.656C85.247 325.298 85.823 325.697 86.391 325.544Z" fill="#FFE2D5"/>
<path d="M88.158 328.337C88.158 328.337 91.249 327.52 94.739 324.661C95.21 324.275 95.31 323.526 94.963 322.99C94.615 322.453 93.951 322.331 93.48 322.717C90.379 325.257 87.643 326.007 87.643 326.007C87.075 326.16 86.73 326.805 86.872 327.448C87.013 328.092 87.59 328.49 88.158 328.337Z" fill="#FFE2D5"/>
<path d="M87.009 299.778C91.004 298.871 93.969 301.007 96.243 305.913C99.734 313.442 103.932 331.861 99.702 333.906C99.39 334.057 99.068 334.171 98.737 334.25C99.035 310.892 90.61 302.354 87.009 299.778Z" fill="#FFE9DA"/>
<path d="M121.49 259.072C121.49 259.072 123.955 264.933 127.303 270.812C132.675 280.243 195.241 347.112 199.804 359.61C196.957 364.79 192.574 368.752 186.919 371.704C186.919 371.704 107.243 288.743 95.303 290.828C83.372 292.912 68.115 305.768 68.115 305.768L79.48 302.408C82.047 308.429 84.151 316.748 80.785 321.247C80.785 321.247 32.717 335.464 23.787 331.05C16.603 327.499 8.937 318.284 32.709 293.886C47.603 278.6 60.478 267.698 68.32 259.785C73.133 254.928 76.217 249.694 76.217 249.694L121.49 259.072Z" fill="#659DB4"/>
<path d="M79.481 302.408C80.139 303.953 80.767 305.648 81.28 307.392C67.392 312.874 54.882 321.359 56.5 318.782C58.439 315.694 68.116 305.768 68.116 305.768L79.481 302.408Z" fill="#4A7B9B"/>
<path d="M186.263 370.864C185.068 371.197 189.195 375.894 190.87 375.966C197.647 376.255 204.798 366.017 203.266 362.384C201.903 359.154 198.601 355.855 198.541 356.885C198.311 360.753 193.351 368.888 186.263 370.864Z" fill="#ABE1E8"/>
<path d="M80.149 321.459C79.709 322.62 86.007 320.907 87.056 319.6C91.303 314.31 87.137 302.865 83.302 301.948C79.893 301.133 75.362 302.629 76.156 303.288C79.137 305.763 82.755 314.578 80.149 321.459Z" fill="#ABE1E8"/>
<path d="M69.279 258.789C73.539 254.239 76.217 249.694 76.217 249.694L121.489 259.073C121.489 259.073 122.755 262.083 124.705 265.952C107.07 271.727 78.507 262.205 69.279 258.789Z" fill="#4A7B9B"/>
<path d="M96.114 253.816L97.121 254.024C96.241 258.096 94.646 266.442 94.249 275.063C94.128 277.69 94.117 280.344 94.272 282.907C94.311 282.896 94.352 282.888 94.394 282.886C95.046 282.852 96.209 282.7 97.368 281.888C98.559 281.055 99.73 279.534 100.392 276.8C101.384 272.701 103.107 261.057 103.914 255.431L104.923 255.64C104.108 261.309 102.384 272.94 101.392 277.042C100.649 280.112 99.296 281.795 97.958 282.731C96.589 283.689 95.217 283.873 94.446 283.913C94.41 283.915 94.375 283.913 94.341 283.908C94.532 286.338 94.882 288.671 95.442 290.808C95.394 290.814 95.348 290.82 95.302 290.828C95.016 290.878 94.728 290.935 94.438 290.996C93.212 286.246 92.965 280.575 93.221 275.015C93.621 266.333 95.226 257.928 96.114 253.816Z" fill="#325C80"/>
<path d="M158.585 233.612C158.585 233.612 166.544 225.786 167.667 214.1L163.067 210.33L156.905 225.88L158.585 233.612Z" fill="#AE3350"/>
<path d="M167.103 210.819L184.461 219.016C184.461 219.016 184.26 210.981 182.702 202.543L191.288 199.952C191.288 199.952 204.766 231.836 198.531 237.196C193.46 241.555 168.072 231.13 158.178 226.792C148.866 222.708 167.103 210.819 167.103 210.819Z" fill="#FECBA5"/>
<path d="M170.694 212.515C168.244 215.223 164.02 221.271 165.275 229.791C162.512 228.666 160.063 227.618 158.177 226.791C148.865 222.708 167.102 210.819 167.102 210.819L170.694 212.515Z" fill="#E58C6C"/>
<path d="M191.285 204.04C191.285 204.04 184.211 205.635 183.949 205.338C182.174 203.332 177.325 193.446 175.775 191.232C175.296 190.547 174.055 188.572 174.51 187.692C175.53 185.718 181.411 192.158 181.451 192.126C181.712 191.918 183.33 181.42 185.352 180.895C187.675 180.291 186.574 188.809 186.904 188.822C187.269 188.836 190.147 180.978 192.891 181.758C194.768 182.291 191.816 190.396 192.013 190.539C192.088 190.593 197.882 185.134 199.277 186.661C200.746 188.269 196.018 192.429 195.564 194.187C195.523 194.346 201.537 191.797 201.938 193.478C202.179 194.486 198.164 197.438 197.578 198.046C195.226 200.493 193.729 201.686 191.285 204.04Z" fill="#FECBA5"/>
<path d="M92.452 169.185C92.452 169.185 46.276 117.632 45.323 117.667C44.37 117.702 37.632 127.846 37.632 127.846C37.632 127.846 76.015 170.783 82.848 184.778L92.452 169.185Z" fill="#FECBA5"/>
<path d="M88.391 164.657C90.913 167.466 92.452 169.184 92.452 169.184L82.848 184.777C81.477 181.97 78.837 177.997 75.489 173.438C78.804 168.722 84.663 165.995 88.391 164.657Z" fill="#E58C6C"/>
<path d="M45.868 119.331C45.868 119.331 47.295 118.193 47.104 114.013C46.973 111.122 45.948 109.802 44.964 108.827C42.8 106.683 40.789 109.372 40.42 109.211C40.072 109.059 36.489 103.944 32.467 107.211C30.916 108.471 31.868 109.818 31.868 109.818C31.868 109.818 29.862 109.253 28.457 110.927C27.089 112.558 28.387 114.701 28.387 114.701C28.387 114.701 26.776 114.932 26.936 116.98C27.056 118.51 28.262 119.256 28.262 119.256C28.262 119.256 26.84 119.101 26.966 121.218C27.092 123.35 27.659 123.772 30.177 124.969C32.49 126.069 35.638 127.641 38.227 128.179C39.241 128.388 45.868 119.331 45.868 119.331Z" fill="#FECBA5"/>
<path d="M36.967 112.894C37.842 111.463 39.046 110.221 40.213 109.02C40.315 109.127 40.385 109.196 40.421 109.211C40.455 109.226 40.502 109.217 40.562 109.189C40.205 109.581 39.774 110.049 39.588 110.271C39.251 110.672 38.919 111.078 38.609 111.5C38.347 111.857 38.082 112.212 37.841 112.583C37.096 113.736 36.228 115.069 36.817 116.466C37.041 116.997 37.388 117.33 38.002 117.386C38.439 117.426 38.942 117.291 39.33 117.126C40.365 116.689 41.327 116.132 42.278 115.535C42.606 115.329 42.937 115.12 43.238 114.875C43.35 114.784 42.499 115.681 42.029 116.032C41.472 116.447 40.674 117.046 39.828 117.468C39.792 117.575 39.766 117.665 39.756 117.697C39.483 118.555 39.472 119.509 39.67 120.385C39.733 120.662 39.919 121.378 39.841 121.228C39.461 120.502 38.973 119.241 38.982 118.42C38.984 118.233 38.985 118.007 39.029 117.8C38.238 118.054 37.456 118.063 36.834 117.543C36.722 117.658 36.567 117.752 36.465 117.808C36.361 117.864 36.249 117.909 36.131 117.944C36.147 118.043 36.139 118.176 36.16 118.306C36.184 118.457 36.195 118.609 36.196 118.762C36.203 119.632 35.515 120.328 34.727 120.658C34.911 120.996 35.027 121.427 35.122 121.789C35.234 122.217 35.317 122.675 35.273 123.119C35.199 123.869 34.43 124.296 33.766 124.444C32.393 124.749 31.024 124.489 29.748 123.954C29.734 123.951 29.72 123.949 29.706 123.946L29.723 123.943C29.731 123.947 29.74 123.951 29.748 123.954C30.038 124.007 30.326 124.067 30.617 124.114C31.691 124.289 33.304 124.441 34.21 123.661C34.856 123.105 34.739 121.946 34.481 121.234C34.426 121.084 34.324 120.949 34.245 120.811C34.115 120.84 33.985 120.857 33.858 120.864C31.744 120.97 29.484 120.414 27.605 119.42C27.866 119.262 28.128 119.252 28.224 119.255C28.539 119.402 28.886 119.518 29.129 119.597C30.748 120.118 32.78 120.819 34.437 120.144C34.865 119.97 35.384 119.672 35.597 119.239C35.743 118.941 35.743 118.59 35.736 118.266C35.735 118.233 35.714 118.129 35.698 118.03C35.183 118.089 34.618 118.025 34.172 117.95C32.785 117.717 31.467 116.968 30.245 116.326C29.448 115.907 28.644 115.462 27.985 114.833C28.213 114.727 28.388 114.702 28.388 114.702C28.388 114.702 28.375 114.68 28.353 114.64C28.388 114.668 28.424 114.695 28.46 114.722C29.019 115.14 29.631 115.459 30.247 115.785C31.534 116.465 32.832 117.051 34.243 117.425C34.796 117.571 35.551 117.777 36.115 117.553C36.276 117.489 36.424 117.379 36.547 117.248C36.523 117.218 36.499 117.188 36.475 117.156C35.673 116.067 35.941 114.901 36.487 113.77C36.526 113.691 36.565 113.612 36.605 113.534C36.322 113.225 36.004 112.968 35.75 112.754C34.838 111.983 33.883 111.184 32.898 110.512C32.536 110.265 32.183 110.005 31.826 109.752C31.757 109.632 31.625 109.364 31.588 109.013C32.396 109.435 33.151 109.987 33.881 110.527C34.407 110.916 34.91 111.332 35.417 111.746C35.818 112.072 36.238 112.381 36.663 112.673C36.755 112.732 36.865 112.812 36.967 112.894Z" fill="#A92707"/>
<path d="M90.897 165.014C90.897 165.014 109.174 187.765 126.037 192.725C142.901 197.686 163.158 207.214 169.039 211.466C162.56 216.739 159.882 225.021 158.511 233.621L137.465 224.545C137.465 224.545 128.087 236.147 126.143 248.531C124.69 257.784 124.936 264.52 124.936 264.52C97.386 265.359 77.512 258.765 71.212 255.098C71.212 255.098 72.448 227.86 89.385 200.109L76.536 185.594C78.417 175.902 82.658 168.509 90.897 165.014Z" fill="#FE7680"/>
<path d="M137.505 223.904C137.505 223.904 137.222 214.811 139.159 205.262C139.159 205.262 133.681 216.357 137.505 223.904Z" fill="#AE3350"/>
<path d="M121.581 247.477C121.581 247.477 97.085 256.764 77.009 251.433C77.009 251.433 97.828 252.902 121.581 247.477Z" fill="#AE3350"/>
<path d="M89.739 199.791C89.739 199.791 96.718 190.874 103.215 188.838C103.215 188.838 92.791 190.281 89.739 199.791Z" fill="#AE3350"/>
<path d="M117.416 216.52C118.44 215.995 126.497 220.591 128.574 221.263C129.884 221.687 124.921 230.213 123.578 230.785C122.235 231.356 119.083 232.209 116.833 231.37C114.949 230.668 113.092 226.697 113.643 224.917C114.195 223.138 115.844 217.326 117.416 216.52Z" fill="#FFA09C"/>
<path d="M120.065 202.376C120.065 202.376 114.565 212.686 113.653 215.105C113.276 216.104 109.269 214.914 109.498 213.346C109.848 210.958 112.894 204.785 115.752 200.779C116.768 199.354 120.065 202.376 120.065 202.376Z" fill="#FFE8E6"/>
<path d="M115.573 205.12C116.276 205.198 116.782 205.848 116.702 206.57C116.622 207.293 115.986 207.817 115.283 207.739C114.58 207.661 114.074 207.011 114.154 206.288C114.234 205.566 114.87 205.042 115.573 205.12Z" fill="#7B283F"/>
<path d="M113.257 209.707C113.96 209.785 114.466 210.435 114.386 211.158C114.306 211.881 113.67 212.404 112.967 212.327C112.264 212.249 111.758 211.599 111.838 210.876C111.918 210.153 112.554 209.629 113.257 209.707Z" fill="#7B283F"/>
<path d="M116.56 203.347C116.56 203.347 129.884 201.886 133.494 210.317C133.494 210.317 142.387 196.471 131.494 190.664C117.784 183.355 107.328 189.852 101.376 197.431C101.376 197.431 112.769 194.748 116.56 203.347Z" fill="#FFE8E6"/>
<path d="M137.809 185.583C137.809 185.583 133.025 191.032 133.619 195.845C134.317 201.502 120.428 203.614 116.374 203.61C116.374 203.61 112.028 195.507 116.605 189.445C116.605 189.445 119.547 188.612 122.08 182.932C124.613 177.252 137.809 185.583 137.809 185.583Z" fill="#FECBA5"/>
<path d="M118.913 187.829C119.875 186.857 121.014 185.324 122.08 182.933C124.612 177.253 137.809 185.584 137.809 185.584C137.809 185.584 136.39 187.201 135.193 189.451C127.878 190.517 122.003 188.97 118.913 187.829Z" fill="#E58C6C"/>
<path d="M117.843 155.213C120.846 156.066 122.498 159.527 121.53 162.937C120.562 166.347 117.337 168.423 114.334 167.571C111.331 166.718 109.679 163.257 110.648 159.847C111.616 156.437 114.84 154.361 117.843 155.213Z" fill="#E58C6C"/>
<path d="M147.276 139.205C158.128 143.726 161.132 159.523 155.497 173.05C149.862 186.577 132.126 190.263 122.368 186.003C114.7 182.655 110.737 172.476 116.372 158.949C122.006 145.422 136.423 134.684 147.276 139.205Z" fill="#FECBA5"/>
<path d="M117.993 155.239C124.754 144.527 137.964 135.326 147.276 139.205C158.128 143.726 161.132 159.523 155.497 173.05C154.79 174.746 153.893 176.288 152.845 177.679C152.058 177.734 150.387 177.31 150.252 177.346C150.252 177.346 142.866 170.649 148.608 157.774C148.608 157.774 120.524 153.695 133.738 150.97C133.738 150.97 122.932 153.017 125.849 149.654C125.849 149.654 121.289 152.04 117.993 155.239Z" fill="#E58C6C"/>
<path d="M151.94 180.371C151.94 180.371 141.024 170.991 151.926 155.024C151.926 155.024 141.906 155.115 136.594 153.236C132.986 151.959 136.034 150.438 139.085 149.462C139.085 149.462 122.657 150.174 129.121 146.031C129.121 146.031 122.656 147.198 117.421 156.773C117.421 156.773 117.393 132.666 140.735 134.629C140.735 134.629 136.732 133.705 134.216 133.547C131.7 133.389 137.366 130.006 145.361 132.516C153.357 135.027 159.81 137.501 158.968 147.036C158.968 147.036 179.249 156.737 151.94 180.371Z" fill="#A92707"/>
<path d="M149.131 159.929C155.092 161.625 160.861 162.702 165.296 163.367C163.692 167.956 159.774 173.59 151.939 180.37C151.939 180.37 143.238 172.894 149.131 159.929ZM121.403 143.06C122.442 144.776 123.738 146.356 125.235 147.811C122.963 149.3 120.038 151.986 117.42 156.774C117.42 156.774 117.411 149.337 121.403 143.06Z" fill="#802419"/>
<path d="M156.037 176.13C158.531 178.007 158.826 181.831 156.694 184.663C154.562 187.495 150.807 188.271 148.312 186.393C145.818 184.516 145.523 180.692 147.655 177.86C149.787 175.028 153.543 174.253 156.037 176.13Z" fill="#FECBA5"/>
<path d="M139.031 169.139C139.604 169.309 139.857 170.164 139.595 171.047C139.333 171.93 138.655 172.509 138.082 172.339C137.509 172.169 137.256 171.314 137.518 170.431C137.779 169.548 138.457 168.969 139.031 169.139Z" fill="#802419"/>
<path d="M125.097 162.912C125.67 163.082 125.923 163.937 125.661 164.82C125.399 165.703 124.721 166.282 124.148 166.112C123.575 165.942 123.322 165.087 123.584 164.204C123.846 163.321 124.524 162.742 125.097 162.912Z" fill="#802419"/>
<path d="M138.147 165.354C138.147 165.354 145.71 160.061 144.176 169.611C144.176 169.611 144.406 163.55 138.147 165.354Z" fill="#802419"/>
<path d="M122.667 158.49C122.667 158.49 130.629 151.838 129.356 161.58C129.356 161.58 128.343 155.45 122.667 158.49Z" fill="#802419"/>
<path d="M130.128 165.924C130.128 165.924 128.05 170.778 127.054 171.108C125.415 171.65 126.326 173.285 126.969 174.136C126.969 174.136 122.038 171.385 124.829 170.528C126.621 169.978 130.128 165.924 130.128 165.924Z" fill="#802419"/>
<path d="M125.057 175.941C126.606 176.102 132.716 176.612 134.748 176.962C136.807 177.317 134.715 183.627 129.315 183.279C124.268 182.954 123.019 175.73 125.057 175.941Z" fill="#802419"/>
<path d="M124.407 176.234C124.562 176.022 124.779 175.913 125.057 175.941C126.606 176.102 132.716 176.612 134.748 176.962C135.14 177.03 135.382 177.313 135.478 177.725C134.553 178.456 132.787 178.601 129.009 178.244C126.084 177.968 124.889 177.03 124.407 176.234Z" fill="white"/>
</svg>
