<svg width="216" height="45" viewBox="0 0 216 45" fill="none" xmlns="http://www.w3.org/2000/svg">
<path d="M208.103 17.3864C212.457 17.3864 215.07 19.9991 215.07 25.0504V35.7103H209.636V26.0955C209.636 23.4828 208.416 22.2635 206.57 22.2635C204.445 22.2635 202.877 23.8311 202.877 27.0709V35.7103H197.443V10.1753H202.877V19.2327C204.236 18.0483 206.047 17.3864 208.103 17.3864Z" fill="black"/>
<path d="M184.144 36.2676C178.362 36.2676 174.355 32.2614 174.355 26.8967C174.355 21.3925 178.362 17.3864 184.179 17.3864C189.265 17.3864 192.923 20.5913 193.794 24.9458H188.394C187.663 23.2737 186.2 22.2634 184.249 22.2634C181.706 22.2634 179.859 24.1098 179.859 26.8618C179.859 29.5442 181.706 31.3905 184.319 31.3905C186.13 31.3905 187.558 30.4848 188.394 28.7081H193.759C192.853 33.0975 189.265 36.2676 184.144 36.2676Z" fill="black"/>
<path d="M169.064 30.8332H171.746V35.7103H168.193C163.351 35.7103 160.878 33.2369 160.878 28.2902V22.6816H157.394V17.9438H161.052L161.853 13.5544H166.312V17.9438H171.712V22.6816H166.312V28.1509C166.312 29.9623 167.183 30.8332 169.064 30.8332Z" fill="black"/>
<path d="M146.74 17.3864C151.966 17.3864 154.822 20.1036 154.822 24.8762V35.7102H151.06L150.224 33.8639C148.761 35.4664 146.81 36.2676 144.371 36.2676C140.261 36.2676 137.787 34.2471 137.787 30.8332C137.787 27.3495 140.261 25.2245 144.894 25.2245H149.388V24.493C149.388 22.7511 148.412 21.7757 146.671 21.7757C145.033 21.7757 144.058 22.6466 143.814 23.8311H138.345C138.972 19.8249 142.037 17.3864 146.74 17.3864ZM145.66 31.8782C148.134 31.8782 149.388 30.659 149.388 29.0217V28.743H145.556C143.988 28.743 143.361 29.3004 143.361 30.2758C143.361 31.2164 144.023 31.8782 145.66 31.8782Z" fill="black"/>
<path d="M134.784 35.7102H129.001L126.876 20.661L120.571 34.5955H117.401L111.13 20.6958L108.97 35.7102H103.188L106.88 11.3248H112.663L118.968 25.3639L125.309 11.3248H131.091L134.784 35.7102Z" fill="black"/>
<path d="M84.9271 17.3864C88.8636 17.3864 91.4066 19.9642 91.4066 24.702V35.7102H85.9722V25.6774C85.9722 23.2737 84.9619 22.2634 83.3943 22.2634C81.6525 22.2634 80.259 23.6569 80.259 26.3741V35.7102H74.8246V25.6774C74.8246 23.2737 73.8143 22.2634 72.2467 22.2634C70.5049 22.2634 69.1114 23.6569 69.1114 26.3741V35.7102H63.6769V17.9437H67.4393L68.3102 19.8249C69.6339 18.2921 71.6545 17.3864 73.7795 17.3864C76.1832 17.3864 78.0643 18.3618 79.1791 20.1733C80.468 18.3966 82.6279 17.3864 84.9271 17.3864Z" fill="black"/>
<path d="M13.2726 35.7102L8.67424 27.6282H5.71315V35.7102H0V11.3248H9.96318C15.0841 11.3248 18.6026 14.8433 18.6026 19.4068C18.6026 22.3331 17.0001 25.0503 14.2132 26.4089L19.6477 35.7102H13.2726ZM12.7501 19.4765C12.7501 17.7347 11.5656 16.5503 9.4058 16.5503H5.71315V22.4028H9.4058C11.5656 22.4028 12.7501 21.2183 12.7501 19.4765Z" fill="black"/>
<path fill-rule="evenodd" clip-rule="evenodd" d="M39.6415 16.2456C41.5304 12.7835 41.5619 8.8596 39.6415 5.41521C37.679 1.89883 34.3212 0 30.5759 0C26.7335 0 23.4335 1.97081 21.5103 5.41521C19.5899 8.85967 19.5899 12.8012 21.5103 16.2456L30.1175 31.6696C30.363 32.1124 30.9787 32.1097 31.2215 31.6642L39.6415 16.2456ZM30.5695 6.71911C32.683 6.71911 34.3947 8.49163 34.3947 10.6771C34.3947 12.8625 32.6843 14.6364 30.5695 14.6364C28.4561 14.6364 26.7443 12.8639 26.7443 10.6771C26.7443 8.4903 28.4547 6.71911 30.5695 6.71911Z" fill="#87CEEB"/>
<path fill-rule="evenodd" clip-rule="evenodd" d="M58.6415 29.7379C60.5304 26.384 60.5619 22.5827 58.6415 19.246C56.679 15.8395 53.3212 14 49.5759 14C45.7335 14 42.4335 15.9092 40.5103 19.246C38.5899 22.5828 38.5899 26.4012 40.5103 29.7379L49.1175 44.6799C49.363 45.1089 49.9787 45.1062 50.2215 44.6747L58.6415 29.7379ZM49.5695 20.5091C51.683 20.5091 53.3947 22.2263 53.3947 24.3434C53.3947 26.4606 51.6843 28.179 49.5695 28.179C47.4561 28.179 45.7443 26.4619 45.7443 24.3434C45.7443 22.225 47.4547 20.5091 49.5695 20.5091Z" fill="#F08080"/>
</svg>
