<svg width="70" height="80" viewBox="0 0 70 80" fill="none" xmlns="http://www.w3.org/2000/svg">
<path d="M68 11.1989L35.801 0.100949H35.6994C35.5979 0.100949 35.5002 0.10095 35.5002 -0.000610352H35.301H35.1018H34.9026H34.7033C34.6018 -0.000610352 34.6018 -0.000610709 34.5041 0.100949H34.4026L2.00056 11.1989C1.00056 11.4997 0.398956 12.3981 0.398956 13.4997V37.3008C0.398956 54.1988 10.2974 69.8007 25.598 76.9027C28.3988 78.2035 31.3988 79.2035 34.3988 79.9027C34.598 79.9027 34.6995 80.0043 34.8988 80.0043C35.098 80.0043 35.1995 80.0043 35.3988 79.9027C38.3988 79.2035 41.3988 78.2035 44.1996 76.9027C59.5006 69.7035 69.3986 54.2038 69.3986 37.3008V13.4997C69.6017 12.4997 68.8984 11.6013 68 11.1989ZM64.8008 37.3009C64.8008 52.4029 56 66.1989 42.3008 72.6019C39.9024 73.7035 37.5 74.6019 35 75.1019C32.5 74.5004 30 73.7035 27.6992 72.6019C14.0002 66.3011 5.1992 52.3989 5.1992 37.3009V15.1989L35.0002 4.89795L64.8012 15.1989L64.8008 37.3009Z" fill="black"/>
<path d="M23.602 39.5C22.7036 38.6016 21.2036 38.6016 20.2036 39.5C19.3052 40.3985 19.3052 41.8984 20.2036 42.8984L28.102 50.7968C28.5005 51.1953 29.2036 51.496 29.8012 51.496C30.4028 51.496 31.0004 51.1953 31.5004 50.7968L49.8014 32.4958C50.6999 31.5974 50.6999 30.0974 49.8014 29.0974C48.903 28.199 47.403 28.199 46.403 29.0974L29.801 45.6994L23.602 39.5Z" fill="black"/>
</svg>
