<svg width="60" height="71" viewBox="0 0 60 71" fill="none" xmlns="http://www.w3.org/2000/svg">
<path d="M14.4424 35.1754L2.16144 67.8856C2.16142 67.8857 2.16141 67.8857 2.16139 67.8858C1.88167 68.6263 2.13929 69.4674 2.7845 69.9267C3.42982 70.3861 4.30972 70.3542 4.91858 69.8444C4.91872 69.8443 4.91885 69.8441 4.91899 69.844L58.3705 25.4193L58.3713 25.4186C58.9343 24.9486 59.1477 24.1727 58.896 23.4778C58.6445 22.7834 57.9875 22.3238 57.2501 22.3238H40.3038L52.5267 3.19223C52.5267 3.19218 52.5267 3.19213 52.5268 3.19208C52.8729 2.6535 52.893 1.96997 52.5883 1.40961L52.5873 1.40777C52.281 0.84992 51.6914 0.5 51.0552 0.5H14.6452C13.9293 0.5 13.2835 0.936884 13.0202 1.6049C13.0201 1.60527 13.0199 1.60563 13.0198 1.606L0.626374 32.7771C0.626193 32.7775 0.626011 32.778 0.62583 32.7784C0.406415 33.3228 0.47982 33.9298 0.799674 34.4069L0.799661 34.4069L0.801879 34.4102C1.12977 34.891 1.67138 35.1754 2.25017 35.1754H14.4424ZM52.406 25.8243L7.76082 62.933L18.6059 34.043L18.6061 34.0424C18.8068 33.5055 18.7379 32.903 18.4072 32.429C18.081 31.9612 17.5462 31.676 16.9698 31.676H4.83164L15.8322 3.99997L47.8573 4.00047L35.6345 23.1321C35.6344 23.1321 35.6344 23.1321 35.6344 23.1322C35.2882 23.6708 35.2681 24.3543 35.5728 24.9147L35.5738 24.9165C35.8805 25.4752 36.4705 25.8243 37.1098 25.8243H52.406Z" fill="black" stroke="black"/>
</svg>
